SplineFontDB: 3.0
FontName: BoonTook-Mon-Ultra-Oblique
FullName: BoonTook Mon Ultra Oblique
FamilyName: BoonTook Mon Ultra
Weight: Ultra
Copyright: Copyright (c) 2014, Sungsit Sawaiwan (sungsit.com | https://twitter.com/gzix), with Reserved Font Names "BoonTook".
Version: 1.0-beta1
ItalicAngle: -9
UnderlinePosition: -60
UnderlineWidth: 60
Ascent: 960
Descent: 240
woffMajor: 1
woffMinor: 0
LayerCount: 2
Layer: 0 0 "Back"  1
Layer: 1 0 "Fore"  0
FSType: 8
OS2Version: 0
OS2_WeightWidthSlopeOnly: 0
OS2_UseTypoMetrics: 0
CreationTime: 1394017292
ModificationTime: 1414534007
PfmFamily: 33
TTFWeight: 950
TTFWidth: 5
LineGap: 0
VLineGap: 0
Panose: 2 1 1 5 5 0 0 0 0 0
OS2TypoAscent: 1240
OS2TypoAOffset: 0
OS2TypoDescent: -480
OS2TypoDOffset: 0
OS2TypoLinegap: 0
OS2WinAscent: 1240
OS2WinAOffset: 0
OS2WinDescent: 480
OS2WinDOffset: 0
HheadAscent: 1240
HheadAOffset: 0
HheadDescent: -480
HheadDOffset: 0
OS2FamilyClass: 2048
OS2Vendor: 'BUni'
Lookup: 1 0 0 "'aalt' Latin Access All Alternates"  {"'aalt' Latin Access All Alternates" ("alt" ) } ['aalt' ('DFLT' <'dflt' > 'latn' <'dflt' > ) ]
Lookup: 1 0 0 "'ss18' Latin g alt"  {"'ss18' Latin g alt"  } ['ss18' ('DFLT' <'dflt' > 'latn' <'dflt' > 'thai' <'PAL ' 'SAN ' 'THA ' 'dflt' > ) ]
Lookup: 1 0 0 "'ss19' Latin a alt"  {"'ss19' Latin a alt"  } ['ss19' ('DFLT' <'dflt' > 'latn' <'dflt' > 'thai' <'PAL ' 'SAN ' 'THA ' 'dflt' > ) ]
Lookup: 1 0 0 "'ss20' Latin a & g alt"  {"'ss20' Latin a & g alt" ("alt" ) } ['ss20' ('DFLT' <'dflt' > 'latn' <'dflt' > 'thai' <'PAL ' 'SAN ' 'THA ' 'dflt' > ) ]
Lookup: 1 0 0 "'locl' Localized Thai-Sanskrit"  {"'locl' Localized Thai-Sanskrit" ("descless" ) } ['ccmp' ('latn' <' SAN' 'PAL ' > 'thai' <'PAL ' 'SAN ' > ) 'locl' ('latn' <' SAN' 'PAL ' > 'thai' <'PAL ' 'SAN ' > ) 'salt' ('DFLT' <'dflt' > 'latn' <'dflt' > 'thai' <'PAL ' 'SAN ' 'THA ' 'dflt' > ) 'ss01' ('DFLT' <'dflt' > 'latn' <'dflt' > 'thai' <'PAL ' 'SAN ' 'THA ' 'dflt' > ) ]

StartChar: uni0E2D
Encoding: 3629 3629 0
Width: 730
VWidth: 0
Flags: W
HStem: -20 180<321.043 434.274> 230 110<310 359.982> 440 180<245.97 552.5>
VStem: 480 273<226.164 403.654>
LayerCount: 2
Fore
SplineSet
71 260 m 0
 78 305 106 340 144 340 c 2
 344 340 l 2
 358 340 369 329 369 315 c 0
 369 313 369 312 369 310 c 2
 361 260 l 2
 358 244 342 230 326 230 c 2
 311 230 l 1
 310 225 310 220 310 216 c 0
 310 178 339 160 375 160 c 0
 433 160 464 210 478 300 c 0
 480 312 480 323 480 333 c 0
 480 409 429 440 350 440 c 0
 290 440 250 427 227 420 c 0
 213 416 188 405 175 405 c 0
 160 405 158 423 155 435 c 2
 136 510 l 1
 136 510 133 522 135 535 c 0
 137 550 143 558 159 565 c 0
 172 570 282 620 458 620 c 0
 647 620 753 524 753 365 c 0
 753 344 752 323 748 300 c 0
 720 123 561 -20 347 -20 c 0
 183 -20 67 52 67 205 c 0
 67 222 68 241 71 260 c 0
EndSplineSet
Colour: ffff00
EndChar

StartChar: uni0E01
Encoding: 3585 3585 1
Width: 770
VWidth: 0
Flags: W
HStem: 0 21G<120 331 490 701> 440 180<392.089 514.346>
LayerCount: 2
Fore
SplineSet
100 505 m 0
 102 517 111 527 125 535 c 1
 125 535 290 620 478 620 c 0
 673 620 792 551 792 413 c 0
 792 399 791 385 789 370 c 2
 736 40 l 2
 733 18 712 0 690 0 c 2
 500 0 l 2
 480 0 466 15 466 34 c 0
 466 36 466 38 466 40 c 2
 519 370 l 2
 520 377 520 383 520 389 c 0
 520 424 500 440 450 440 c 0
 435 440 414 439 391 437 c 1
 406 423 418 402 418 375 c 0
 418 370 418 365 417 360 c 2
 366 40 l 2
 363 18 342 0 320 0 c 2
 130 0 l 2
 110 0 96 15 96 34 c 0
 96 36 96 38 96 40 c 2
 149 370 l 2
 152 387 150 395 145 398 c 1
 139 397 131 395 128 395 c 0
 117 395 113 403 111 415 c 2
 101 480 l 1
 101 480 99 497 100 505 c 0
EndSplineSet
Colour: ffff00
EndChar

StartChar: uni0E17
Encoding: 3607 3607 2
Width: 775
VWidth: 0
Flags: W
HStem: 0 21G<80 301 480 701> 400 210<445.5 664> 580 20G<174 375>
VStem: 504 290<241.562 487>
LayerCount: 2
Fore
SplineSet
56 40 m 2xd0
 139 560 l 2
 142 582 163 600 185 600 c 2
 365 600 l 2xb0
 385 600 399 585 399 566 c 0
 399 564 399 562 399 560 c 2
 389 498 l 1
 424 544 494 610 607 610 c 0
 721 610 794 545 794 429 c 0
 794 414 793 397 790 380 c 2
 736 40 l 2
 733 18 712 0 690 0 c 2
 490 0 l 2
 470 0 456 15 456 34 c 0
 456 36 456 38 456 40 c 2
 501 320 l 2
 503 333 504 345 504 354 c 0
 504 389 490 400 463 400 c 0
 428 400 402 374 383 333 c 1
 336 40 l 2
 333 18 312 0 290 0 c 2
 90 0 l 2
 70 0 56 15 56 34 c 0
 56 36 56 38 56 40 c 2xd0
EndSplineSet
Colour: ffff00
EndChar

StartChar: uni0E19
Encoding: 3609 3609 3
Width: 775
VWidth: 0
Flags: W
HStem: -10 210<206 424.5> 0 21G<495 696> 580 20G<169 390 569 790>
VStem: 76 290<113 358.438>
LayerCount: 2
Fore
SplineSet
814 560 m 2xb0
 731 40 l 2
 728 18 707 0 685 0 c 2
 505 0 l 2x70
 485 0 471 15 471 34 c 0
 471 36 471 38 471 40 c 2
 481 102 l 1
 446 56 376 -10 263 -10 c 0
 149 -10 76 55 76 171 c 0
 76 186 77 203 80 220 c 2
 134 560 l 2
 137 582 158 600 180 600 c 2
 380 600 l 2
 400 600 414 585 414 566 c 0
 414 564 414 562 414 560 c 2
 369 280 l 2
 367 267 366 255 366 246 c 0
 366 211 380 200 407 200 c 0
 442 200 468 226 487 267 c 1
 534 560 l 2
 537 582 558 600 580 600 c 2
 780 600 l 2
 800 600 814 585 814 566 c 0
 814 564 814 562 814 560 c 2xb0
EndSplineSet
Colour: ffff00
EndChar

StartChar: uni0E21
Encoding: 3617 3617 4
Width: 775
VWidth: 0
Flags: W
HStem: -10 210<402.378 572.5> 0 21G<80 281> 580 20G<174 395 574 795>
LayerCount: 2
Fore
SplineSet
56 40 m 2x60
 139 560 l 2
 142 582 163 600 185 600 c 2
 385 600 l 2
 405 600 419 585 419 566 c 0
 419 564 419 562 419 560 c 2
 372 267 l 1
 379 226 397 200 432 200 c 0
 466 200 484 219 494 280 c 2
 539 560 l 2
 542 582 563 600 585 600 c 2
 785 600 l 2
 805 600 819 585 819 566 c 0
 819 564 819 562 819 560 c 2
 765 220 l 2
 742 74 637 -10 508 -10 c 0xa0
 395 -10 347 56 326 102 c 1
 316 40 l 2
 313 18 292 0 270 0 c 2
 90 0 l 2
 70 0 56 15 56 34 c 0
 56 36 56 38 56 40 c 2x60
EndSplineSet
Colour: ffff00
EndChar

StartChar: uni0E1A
Encoding: 3610 3610 5
Width: 790
VWidth: 0
Flags: W
HStem: -20 190<370.801 481.317> 580 20G<169 390 589 810>
VStem: 78 284<178.631 374.688>
LayerCount: 2
Fore
SplineSet
81 230 m 2
 134 560 l 2
 137 582 158 600 180 600 c 2
 380 600 l 2
 400 600 414 585 414 566 c 0
 414 564 414 562 414 560 c 2
 363 240 l 2
 362 234 362 228 362 223 c 0
 362 187 384 170 422 170 c 0
 466 170 495 192 503 240 c 2
 554 560 l 2
 557 582 578 600 600 600 c 2
 800 600 l 2
 820 600 834 585 834 566 c 0
 834 564 834 562 834 560 c 2
 781 230 l 2
 755 64 606 -20 392 -20 c 0
 197 -20 78 49 78 187 c 0
 78 201 79 215 81 230 c 2
EndSplineSet
Colour: ffff00
EndChar

StartChar: uni0E1B
Encoding: 3611 3611 6
Width: 820
VWidth: 0
Flags: W
HStem: -20 190<371.877 501.017> 580 20G<169 390> 820 20G<647 868>
VStem: 78 284<180.61 374.688>
AnchorPoint: "th-vow-above" 585 660 basechar 0
LayerCount: 2
Fore
SplineSet
81 230 m 2
 134 560 l 2
 137 582 158 600 180 600 c 2
 380 600 l 2
 400 600 414 585 414 566 c 0
 414 564 414 562 414 560 c 2
 363 240 l 2
 362 235 362 230 362 225 c 0
 362 187 388 170 432 170 c 0
 481 170 515 192 523 240 c 2
 612 800 l 2
 615 822 636 840 658 840 c 2
 858 840 l 2
 878 840 892 825 892 806 c 0
 892 804 892 802 892 800 c 2
 801 230 l 2
 775 64 621 -20 402 -20 c 0
 202 -20 78 50 78 189 c 0
 78 202 79 216 81 230 c 2
EndSplineSet
Colour: ffff00
EndChar

StartChar: uni0E04
Encoding: 3588 3588 7
Width: 780
VWidth: 0
Flags: W
HStem: 0 21G<70 281 500 711> 165 175<379.207 447.947> 430 190<390.843 516.967>
LayerCount: 2
Fore
SplineSet
46 40 m 2
 99 370 l 2
 125 536 274 620 488 620 c 0
 683 620 802 551 802 413 c 0
 802 399 801 385 799 370 c 2
 746 40 l 2
 743 18 722 0 700 0 c 2
 510 0 l 2
 490 0 476 15 476 34 c 0
 476 36 476 38 476 40 c 2
 527 360 l 2
 528 365 528 369 528 373 c 0
 528 412 498 430 458 430 c 0
 414 430 375 408 367 360 c 2
 356 290 l 1
 378 317 405 340 434 340 c 0
 445 340 452 338 458 335 c 0
 467 330 470 319 469 310 c 2
 448 175 l 2
 447 167 438 162 431 163 c 0
 425 164 419 165 406 165 c 0
 375 165 346 146 330 125 c 1
 316 40 l 2
 313 18 292 0 270 0 c 2
 80 0 l 2
 60 0 46 15 46 34 c 0
 46 36 46 38 46 40 c 2
EndSplineSet
Colour: ffff00
EndChar

StartChar: uni0E05
Encoding: 3589 3589 8
Width: 780
VWidth: 0
Flags: W
HStem: 0 21G<70 281 500 711> 165 175<379.207 447.947> 385 235<338 451>
VStem: 530 275<247.031 491.5>
LayerCount: 2
Fore
SplineSet
46 40 m 2
 102 390 l 2
 125 536 253 620 338 620 c 0
 395 620 474 530 474 530 c 1
 474 530 581 620 638 620 c 0
 715 620 805 552 805 431 c 0
 805 418 804 404 802 390 c 2
 746 40 l 2
 743 18 722 0 700 0 c 2
 510 0 l 2
 490 0 476 15 476 34 c 0
 476 36 476 38 476 40 c 2
 529 370 l 2
 530 375 530 380 530 384 c 0
 530 410 517 420 517 420 c 1
 478 395 l 1
 478 395 461 385 451 385 c 0
 441 385 428 395 428 395 c 1
 397 420 l 1
 397 420 375 406 369 370 c 2
 356 290 l 1
 378 317 405 340 434 340 c 0
 445 340 452 338 458 335 c 0
 467 330 470 319 469 310 c 2
 448 175 l 2
 447 167 438 162 431 163 c 0
 425 164 419 165 406 165 c 0
 375 165 346 146 330 125 c 1
 316 40 l 2
 313 18 292 0 270 0 c 2
 80 0 l 2
 60 0 46 15 46 34 c 0
 46 36 46 38 46 40 c 2
EndSplineSet
Colour: ffff00
EndChar

StartChar: uni0E02
Encoding: 3586 3586 9
Width: 755
VWidth: 0
Flags: W
HStem: -20 180<358.9 459.844> 580 20G<167 392.5 564 775>
VStem: 81 273<165.021 292.931>
LayerCount: 2
Fore
SplineSet
85 220 m 0
 104 338 197 420 197 420 c 1
 147 420 l 2
 133 420 121 431 121 445 c 0
 121 447 121 448 121 450 c 2
 140 570 l 2
 143 586 159 599 175 600 c 1
 355 600 l 2
 430 600 459 566 459 511 c 0
 459 501 458 491 456 480 c 0
 443 397 370 317 355 220 c 0
 354 215 354 210 354 206 c 0
 354 174 375 160 405 160 c 0
 439 160 468 177 475 220 c 2
 529 560 l 2
 532 582 553 600 575 600 c 2
 765 600 l 2
 785 600 799 585 799 566 c 0
 799 564 799 562 799 560 c 2
 745 220 l 2
 719 54 578 -20 377 -20 c 0
 194 -20 81 46 81 178 c 0
 81 191 83 205 85 220 c 0
EndSplineSet
Colour: ffff00
EndChar

StartChar: uni0E03
Encoding: 3587 3587 10
Width: 765
VWidth: 0
Flags: W
HStem: -20 180<368.722 469.844> 450 160<230 406> 580 20G<574 785>
VStem: 91 273<166.874 276.627>
LayerCount: 2
Fore
SplineSet
93 460 m 2xd0
 113 590 l 2
 114 598 121 607 129 607 c 0
 134 607 137 606 145 600 c 2xb0
 217 550 l 1
 240 570 293 610 367 610 c 0xd0
 445 610 488 564 488 502 c 0
 488 495 487 488 486 480 c 0
 473 397 380 317 365 220 c 0
 364 215 364 210 364 206 c 0
 364 173 385 160 415 160 c 0
 449 160 478 177 485 220 c 2
 539 560 l 2
 542 582 563 600 585 600 c 2
 775 600 l 2xb0
 795 600 809 585 809 566 c 0
 809 564 809 562 809 560 c 2
 755 220 l 2
 729 54 588 -20 387 -20 c 0
 205 -20 91 41 91 176 c 0
 91 190 93 204 95 220 c 0
 113 333 248 369 257 425 c 0
 259 438 256 450 241 450 c 0
 219 450 199 430 186 415 c 0
 181 409 175 400 163 400 c 0
 157 400 145 410 145 410 c 1
 104 435 l 2
 97 440 91 448 93 460 c 2xd0
EndSplineSet
Colour: ffff00
EndChar

StartChar: uni0E06
Encoding: 3590 3590 11
Width: 775
VWidth: -360
Flags: W
HStem: -10 210<402.408 572.5> 0 21G<90 281> 450 160<230 406> 580 20G<584 795>
LayerCount: 2
Fore
SplineSet
93 460 m 2x60
 113 590 l 2
 114 598 121 607 129 607 c 0
 134 607 137 606 145 600 c 2x10
 217 550 l 1
 240 570 293 610 367 610 c 0x20
 445 610 488 564 488 502 c 0
 488 495 487 488 486 480 c 0
 475 408 403 338 375 257 c 1
 382 222 400 200 432 200 c 0
 466 200 494 219 504 280 c 2
 549 560 l 2
 552 582 573 600 595 600 c 2
 785 600 l 2
 805 600 819 585 819 566 c 0
 819 564 819 562 819 560 c 2
 765 220 l 2
 742 74 637 -10 508 -10 c 0x90
 395 -10 347 56 326 102 c 1
 316 40 l 2
 313 18 292 0 270 0 c 2
 100 0 l 2
 80 0 66 15 66 34 c 0
 66 36 66 38 66 40 c 2
 95 220 l 2
 113 333 248 369 257 425 c 0
 259 438 256 450 241 450 c 0
 219 450 199 430 186 415 c 0
 181 409 175 400 163 400 c 0
 157 400 145 410 145 410 c 1
 104 435 l 2
 97 440 91 448 93 460 c 2x60
EndSplineSet
Colour: ffff00
EndChar

StartChar: uni0E07
Encoding: 3591 3591 12
Width: 770
VWidth: 0
Flags: W
HStem: -10 170<410 471.573> 580 20G<137.5 339.5 530 634.5>
VStem: 106 263<478.049 597.671> 530 263<227.812 404.23>
AnchorPoint: "th-vow-below" 600 0 basechar 0
LayerCount: 2
Fore
SplineSet
150 600 m 2
 325 600 l 2
 354 600 366 587 369 560 c 2
 410 160 l 1
 465 160 514 212 528 300 c 0
 530 312 530 324 530 334 c 0
 530 391 503 420 467 420 c 0
 451 420 436 425 434 440 c 2
 424 545 l 1
 424 545 423 556 424 562 c 0
 426 576 433 585 443 590 c 0
 457 598 503 610 557 610 c 0
 712 610 793 504 793 363 c 0
 793 343 791 322 788 300 c 0
 761 129 612 -10 378 -10 c 0
 297 -10 280 -7 232 -3 c 0
 207 -1 194 27 193 40 c 1
 108 555 l 2
 107 559 106 567 106 572 c 0
 106 590 125 600 150 600 c 2
EndSplineSet
Colour: ffff00
EndChar

StartChar: uni0E16
Encoding: 3606 3606 13
Width: 770
VWidth: 0
Flags: W
HStem: 0 21G<164.5 388 490 701> 440 180<390.135 514.346>
LayerCount: 2
Fore
SplineSet
100 505 m 0
 102 517 111 527 125 535 c 1
 125 535 290 620 478 620 c 0
 673 620 792 551 792 413 c 0
 792 399 791 385 789 370 c 2
 736 40 l 2
 733 18 712 0 690 0 c 2
 500 0 l 2
 480 0 466 15 466 34 c 0
 466 36 466 38 466 40 c 2
 519 370 l 2
 520 377 520 383 520 389 c 0
 520 424 500 440 450 440 c 0
 434 440 412 439 387 436 c 1
 400 423 409 403 409 378 c 0
 409 372 408 366 407 360 c 2
 374 150 l 1
 404 150 l 2
 418 150 429 139 429 125 c 0
 429 123 429 122 429 120 c 2
 415 30 l 2
 412 14 396 0 380 0 c 2
 200 0 l 2
 129 0 103 32 103 73 c 0
 103 78 103 84 104 90 c 2
 149 370 l 2
 152 390 149 397 142 397 c 1
 136 396 130 395 128 395 c 0
 117 395 113 403 111 415 c 2
 101 480 l 1
 101 480 100 491 100 499 c 0
 100 501 100 503 100 505 c 0
EndSplineSet
Colour: ffff00
EndChar

StartChar: uni0E2E
Encoding: 3630 3630 14
Width: 750
VWidth: 0
Flags: W
HStem: -20 180<321.043 434.274> 230 110<310 359.982> 440 180<245.97 500>
VStem: 480 273<226.164 406.053>
LayerCount: 2
Fore
SplineSet
71 260 m 0
 78 305 106 340 144 340 c 2
 344 340 l 2
 358 340 369 329 369 315 c 0
 369 313 369 312 369 310 c 2
 361 260 l 2
 358 244 342 230 326 230 c 2
 311 230 l 1
 310 225 310 220 310 216 c 0
 310 178 339 160 375 160 c 0
 433 160 464 210 478 300 c 0
 480 312 480 323 480 333 c 0
 480 409 429 440 350 440 c 0
 290 440 250 427 227 420 c 0
 213 416 188 405 175 405 c 0
 160 405 158 423 155 435 c 2
 136 510 l 1
 136 510 133 522 135 535 c 0
 137 550 143 558 159 565 c 0
 172 570 282 620 458 620 c 0
 542 620 589 596 611 579 c 1
 635 604 648 634 651 650 c 0
 654 666 670 680 686 680 c 2
 823 680 l 2
 838 680 848 668 848 654 c 0
 848 592 785 526 717 486 c 1
 737 461 753 422 753 363 c 0
 753 344 752 323 748 300 c 0
 720 123 561 -20 347 -20 c 0
 183 -20 67 52 67 205 c 0
 67 222 68 241 71 260 c 0
EndSplineSet
Substitution2: "TH Tail Swap" uni0E2E.swap
Substitution2: "'ss02' TH Tail swap" uni0E2E.swap
Colour: ffff00
EndChar

StartChar: uni0E20
Encoding: 3616 3616 15
Width: 770
VWidth: 0
Flags: W
HStem: 0 21G<63 290 490 701> 440 180<398.715 514.346>
LayerCount: 2
Fore
SplineSet
100 505 m 0
 102 517 111 527 125 535 c 1
 125 535 290 620 478 620 c 0
 673 620 792 551 792 413 c 0
 792 399 791 385 789 370 c 2
 736 40 l 2
 733 18 712 0 690 0 c 2
 500 0 l 2
 480 0 466 15 466 34 c 0
 466 36 466 38 466 40 c 2
 519 370 l 2
 520 377 520 383 520 389 c 0
 520 424 500 440 450 440 c 0
 436 440 417 439 396 437 c 1
 409 423 419 404 419 379 c 0
 419 373 418 367 417 360 c 2
 374 90 l 2
 366 42 330 0 250 0 c 2
 70 0 l 2
 56 0 45 11 45 25 c 0
 45 27 45 28 45 30 c 2
 59 120 l 2
 62 136 78 150 94 150 c 2
 124 150 l 1
 159 370 l 2
 162 391 158 399 150 399 c 1
 144 398 132 395 128 395 c 0
 117 395 113 403 111 415 c 2
 101 480 l 1
 101 480 99 497 100 505 c 0
EndSplineSet
Colour: ffff00
EndChar

StartChar: uni0E14
Encoding: 3604 3604 16
Width: 790
VWidth: 0
Flags: W
HStem: -10 190<239.5 434.696> 0 21G<510 721> 420 200<406.202 528.627>
VStem: 73 282<199.233 364.338> 538 273<308.308 410.561>
LayerCount: 2
Fore
SplineSet
78 300 m 0xb8
 105 471 260 620 508 620 c 0
 709 620 811 524 811 405 c 0
 811 394 811 382 809 370 c 2
 756 40 l 2
 753 18 732 0 710 0 c 2
 520 0 l 2x78
 500 0 486 15 486 34 c 0
 486 36 486 38 486 40 c 2
 537 360 l 2
 537 362 538 364 538 367 c 0
 538 392 520 420 477 420 c 0
 416 420 371 380 358 300 c 0
 356 289 355 279 355 269 c 0
 355 205 393 180 419 180 c 0
 436 180 445 185 449 185 c 0
 455 185 459 182 457 170 c 2
 436 40 l 2
 434 25 417 11 401 5 c 0
 386 0 358 -10 318 -10 c 0
 161 -10 73 98 73 241 c 0
 73 260 75 280 78 300 c 0xb8
EndSplineSet
Colour: ffff00
EndChar

StartChar: uni0E15
Encoding: 3605 3605 17
Width: 810
VWidth: 0
Flags: W
HStem: -10 190<239.5 434.696> 0 21G<520 731> 420 190<397.927 490.936> 580 20G<624 825>
VStem: 73 282<199.233 370.348>
LayerCount: 2
Fore
SplineSet
78 300 m 0xa8
 105 471 234 610 407 610 c 0xa8
 483 610 541 553 577 485 c 1
 589 560 l 2
 592 582 613 600 635 600 c 2
 815 600 l 2
 835 600 849 585 849 566 c 0
 849 564 849 562 849 560 c 2
 766 40 l 2
 763 18 742 0 720 0 c 2
 530 0 l 2x58
 510 0 496 15 496 34 c 0
 496 36 496 38 496 40 c 2
 543 334 l 1
 528 376 480 420 447 420 c 0
 411 420 371 380 358 300 c 0
 356 289 355 279 355 269 c 0
 355 205 393 180 419 180 c 0
 436 180 445 185 449 185 c 0
 455 185 459 182 457 170 c 2
 436 40 l 2
 434 25 417 11 401 5 c 0
 386 0 358 -10 318 -10 c 0
 161 -10 73 98 73 241 c 0
 73 260 75 280 78 300 c 0xa8
EndSplineSet
Colour: ffff00
EndChar

StartChar: uni0E33
Encoding: 3635 3635 18
Width: 540
VWidth: 0
Flags: W
HStem: 0 21G<240 461> 410 200<178.628 418.5> 670 90<-125.171 -54.0414> 850 90<-121.428 -49.8287>
VStem: -264 136<761.802 843.529> -47 136<766.142 848.819> 268 287<248.594 495.5>
LayerCount: 2
Fore
SplineSet
89 530 m 0
 91 542 99 549 119 560 c 1
 119 560 212 610 347 610 c 0
 490 610 555 552 555 439 c 0
 555 421 553 401 550 380 c 2
 496 40 l 2
 493 18 472 0 450 0 c 2
 250 0 l 2
 230 0 216 15 216 34 c 0
 216 36 216 38 216 40 c 2
 267 360 l 2
 268 366 268 371 268 376 c 0
 268 401 255 410 225 410 c 0
 199 410 175 404 153 395 c 0
 143 391 132 385 121 385 c 0
 110 385 106 393 104 405 c 2
 90 505 l 1
 90 505 88 522 89 530 c 0
-128 805 m 0
 -129 801 -128 798 -128 795 c 0
 -128 772 -114 760 -95 760 c 0
 -73 760 -53 775 -48 805 c 0
 -47 809 -47 812 -47 815 c 0
 -47 838 -61 850 -80 850 c 0
 -102 850 -123 835 -128 805 c 0
-263 805 m 0
 -250 884 -180 940 -66 940 c 0
 37 940 89 894 89 827 c 0
 89 820 88 813 87 805 c 0
 74 726 5 670 -109 670 c 0
 -212 670 -264 716 -264 783 c 0
 -264 790 -264 797 -263 805 c 0
EndSplineSet
Substitution2: "TH Sara Am Alter" uni0E33.alt
Colour: ffff00
EndChar

StartChar: uni0E08
Encoding: 3592 3592 19
Width: 710
VWidth: -360
Flags: W
HStem: -10 350<189.11 348.018> 440 180<225.992 533.5>
VStem: 462 273<241.283 404.613>
AnchorPoint: "th-vow-below" 520 0 basechar 0
LayerCount: 2
Fore
SplineSet
115 535 m 0
 117 550 123 558 139 565 c 0
 152 570 262 620 438 620 c 0
 629 620 735 528 735 377 c 0
 735 359 734 340 731 320 c 0
 704 149 553 -10 368 -10 c 0
 287 -10 266 -7 218 -3 c 0
 193 -1 182 27 179 40 c 2
 140 190 l 1
 110 190 l 2
 96 190 85 201 85 215 c 0
 85 217 85 218 85 220 c 2
 99 310 l 2
 102 326 118 340 134 340 c 2
 294 340 l 2
 336 340 350 320 356 290 c 2
 380 168 l 1
 416 186 447 233 459 310 c 0
 461 320 462 330 462 339 c 0
 462 405 419 440 340 440 c 0
 284 440 230 427 207 420 c 0
 193 416 168 405 155 405 c 0
 140 405 138 423 135 435 c 2
 116 510 l 1
 116 510 113 522 115 535 c 0
EndSplineSet
Colour: ffff00
EndChar

StartChar: uni0E09
Encoding: 3593 3593 20
Width: 750
VWidth: 0
Flags: W
HStem: -10 170<207 408> 0 21G<490 681> 440 180<246.383 564.5>
VStem: 85 277<190.589 274>
LayerCount: 2
Fore
SplineSet
125 535 m 0xb0
 127 550 133 558 149 565 c 0
 162 570 292 620 468 620 c 0
 661 620 772 551 772 415 c 0
 772 401 772 386 769 370 c 2
 716 40 l 2
 713 18 692 0 670 0 c 2
 500 0 l 2x70
 480 0 466 15 466 34 c 0
 466 36 466 38 466 40 c 2
 475 92 l 1
 441 51 356 -10 238 -10 c 0
 176 -10 108 19 108 102 c 0
 108 111 109 120 111 130 c 2
 120 190 l 1
 110 190 l 2
 96 190 85 201 85 215 c 0
 85 217 85 218 85 220 c 2
 99 310 l 2
 102 326 118 340 134 340 c 2
 314 340 l 2
 365 340 377 326 377 303 c 0
 377 296 375 288 374 280 c 2
 363 210 l 2
 362 204 362 199 362 194 c 0
 362 169 374 160 395 160 c 0
 421 160 448 177 472 204 c 1
 494 340 l 2
 495 346 495 351 495 356 c 0
 495 415 437 440 360 440 c 0
 304 440 245 427 222 420 c 0
 208 416 178 405 165 405 c 0
 150 405 148 423 145 435 c 2
 126 510 l 1
 126 510 123 522 125 535 c 0xb0
EndSplineSet
Colour: ffff00
EndChar

StartChar: uni0E0A
Encoding: 3594 3594 21
Width: 770
VWidth: -360
Flags: W
HStem: -20 180<358.9 459.844> 580 20G<167 392.5>
VStem: 81 273<165.021 292.931> 502 261<224.922 414.398> 651 197<597.422 678.598>
LayerCount: 2
Fore
SplineSet
85 220 m 0xf0
 104 338 197 420 197 420 c 1
 147 420 l 2
 133 420 121 431 121 445 c 0
 121 447 121 448 121 450 c 2
 140 570 l 2
 143 586 159 599 175 600 c 1
 355 600 l 2
 430 600 459 566 459 511 c 0
 459 501 458 491 456 480 c 0
 443 397 370 317 355 220 c 0
 354 215 354 210 354 206 c 0
 354 174 375 160 405 160 c 0
 439 160 468 177 475 220 c 2
 499 370 l 2
 501 383 502 394 502 402 c 0xf0
 502 419 497 427 488 430 c 0
 478 433 469 439 471 450 c 2
 481 510 l 2
 483 521 493 530 504 530 c 0
 596 530 646 618 651 650 c 0
 654 666 670 680 686 680 c 2
 823 680 l 2
 838 680 848 668 848 654 c 0xe8
 848 578 762 501 668 462 c 1
 723 444 763 396 763 345 c 0
 763 340 763 335 762 330 c 2
 745 220 l 2
 719 54 578 -20 377 -20 c 0
 194 -20 81 46 81 178 c 0
 81 191 83 205 85 220 c 0xf0
EndSplineSet
Substitution2: "TH Tail Swap" uni0E0A.swap
Substitution2: "'ss02' TH Tail swap" uni0E0A.swap
Colour: ffff00
EndChar

StartChar: uni0E0B
Encoding: 3595 3595 22
Width: 780
VWidth: -360
Flags: W
HStem: -20 180<368.722 469.844> 450 160<230 406>
VStem: 91 273<166.874 276.627> 512 261<224.922 414.398> 661 197<597.422 678.598>
LayerCount: 2
Fore
SplineSet
93 460 m 2xf0
 113 590 l 2
 114 598 121 607 129 607 c 0
 134 607 137 606 145 600 c 2
 217 550 l 1
 240 570 293 610 367 610 c 0
 445 610 488 564 488 502 c 0
 488 495 487 488 486 480 c 0
 473 397 380 317 365 220 c 0
 364 215 364 210 364 206 c 0
 364 173 385 160 415 160 c 0
 449 160 478 177 485 220 c 2
 509 370 l 2
 511 383 512 394 512 402 c 0xf0
 512 419 507 427 498 430 c 0
 488 433 484 439 486 450 c 2
 496 510 l 2
 498 521 503 530 514 530 c 0
 606 530 656 618 661 650 c 0
 664 666 680 680 696 680 c 2
 833 680 l 2
 848 680 858 668 858 654 c 0xe8
 858 578 772 501 678 462 c 1
 733 444 773 396 773 345 c 0
 773 340 773 335 772 330 c 2
 755 220 l 2
 729 54 588 -20 387 -20 c 0
 205 -20 91 41 91 176 c 0
 91 190 93 204 95 220 c 0
 113 333 248 369 257 425 c 0
 259 438 256 450 241 450 c 0
 219 450 199 430 186 415 c 0
 181 409 175 400 163 400 c 0
 157 400 145 410 145 410 c 1
 104 435 l 2
 97 440 91 448 93 460 c 2xf0
EndSplineSet
Substitution2: "TH Tail Swap" uni0E0B.swap
Substitution2: "'ss02' TH Tail swap" uni0E0B.swap
Colour: ffff00
EndChar

StartChar: uni0E0C
Encoding: 3596 3596 23
Width: 1150
VWidth: 0
Flags: W
HStem: -10 200<793.618 957> 0 21G<164.5 388 490 681> 440 180<390.135 514.346> 580 20G<954 1165>
LayerCount: 2
Fore
SplineSet
100 505 m 0x60
 102 517 111 527 125 535 c 1
 125 535 290 620 478 620 c 0x60
 673 620 792 551 792 413 c 0
 792 399 791 385 789 370 c 2
 766 230 l 1
 779 205 796 190 820 190 c 0
 846 190 863 209 873 270 c 2
 919 560 l 2
 922 582 943 600 965 600 c 2
 1155 600 l 2
 1175 600 1189 585 1189 566 c 0
 1189 564 1189 562 1189 560 c 2
 1133 210 l 2
 1110 64 1016 -10 898 -10 c 0x90
 794 -10 746 48 725 92 c 1
 716 40 l 2
 713 18 692 0 670 0 c 2
 500 0 l 2
 480 0 466 15 466 34 c 0
 466 36 466 38 466 40 c 2
 519 370 l 2
 520 377 520 383 520 389 c 0
 520 424 500 440 450 440 c 0
 434 440 412 439 387 436 c 1
 400 423 409 403 409 378 c 0
 409 372 408 366 407 360 c 2
 374 150 l 1
 404 150 l 2
 418 150 429 139 429 125 c 0
 429 123 429 122 429 120 c 2
 415 30 l 2
 412 14 396 0 380 0 c 2
 200 0 l 2
 129 0 103 32 103 73 c 0
 103 78 103 84 104 90 c 2
 149 370 l 2
 152 390 149 397 142 397 c 1
 136 396 130 395 128 395 c 0
 117 395 113 403 111 415 c 2
 101 480 l 1
 101 480 100 491 100 499 c 0
 100 501 100 503 100 505 c 0x60
EndSplineSet
Colour: ffff00
EndChar

StartChar: uni0E0D
Encoding: 3597 3597 24
Width: 1150
VWidth: 0
Flags: W
HStem: -250 150<617.463 919.36> -196 141<532.25 558.912 931.001 1002.09> -20 180<765.989 851.336> 0 21G<164.5 388> 440 180<390.135 514.346> 580 20G<954 1165>
VStem: 490 273<163.791 353.047>
LayerCount: 2
Fore
SplineSet
483 -170 m 0x42
 484 -163 488 -154 491 -150 c 2
 539 -70 l 2
 545 -59 556 -55 566 -55 c 0x42
 573 -55 580 -58 585 -60 c 0
 591 -63 661 -100 764 -100 c 0x82
 867 -100 949 -63 955 -60 c 0
 960 -58 969 -55 976 -55 c 0
 986 -55 997 -59 999 -70 c 2
 1021 -150 l 2
 1022 -154 1024 -163 1023 -170 c 0
 1021 -180 1010 -192 999 -196 c 0x42
 955 -214 877 -250 740 -250 c 0x82
 603 -250 537 -214 499 -196 c 0
 490 -192 481 -180 483 -170 c 0x42
100 505 m 0
 102 517 111 527 125 535 c 1
 125 535 290 620 478 620 c 0x1a
 673 620 792 551 792 413 c 0
 792 399 791 385 789 370 c 2
 765 220 l 2
 764 213 763 207 763 201 c 0
 763 173 776 160 805 160 c 0
 840 160 859 179 865 220 c 2
 919 560 l 2
 922 582 943 600 965 600 c 2
 1155 600 l 2
 1175 600 1189 585 1189 566 c 0
 1189 564 1189 562 1189 560 c 2
 1133 210 l 2
 1113 83 1009 -20 777 -20 c 0x26
 569 -20 490 63 490 171 c 0
 490 184 491 197 493 210 c 2
 519 370 l 2
 520 377 520 383 520 389 c 0
 520 424 500 440 450 440 c 0
 434 440 412 439 387 436 c 1
 400 423 409 403 409 378 c 0
 409 372 408 366 407 360 c 2
 374 150 l 1
 404 150 l 2
 418 150 429 139 429 125 c 0
 429 123 429 122 429 120 c 2
 415 30 l 2
 412 14 396 0 380 0 c 2
 200 0 l 2x1a
 129 0 103 32 103 73 c 0
 103 78 103 84 104 90 c 2
 149 370 l 2
 152 390 149 397 141 397 c 1
 136 396 130 395 128 395 c 0
 117 395 113 403 111 415 c 2
 101 480 l 1
 101 480 100 491 100 499 c 0
 100 501 100 503 100 505 c 0
EndSplineSet
Substitution2: "TH Descless" uni0E0D.descless
Substitution2: "'locl' Localized Thai-Sanskrit" uni0E0D.descless
Colour: ffff00
EndChar

StartChar: uni0E13
Encoding: 3603 3603 25
Width: 1150
VWidth: -360
Flags: W
HStem: -10 200<606.5 812> 0 21G<164.5 388 880 1071> 440 180<390.135 514.346> 580 20G<954 1165>
VStem: 489 280<102.5 347.031>
LayerCount: 2
Fore
SplineSet
100 505 m 0x68
 102 517 111 527 125 535 c 1
 125 535 290 620 478 620 c 0
 673 620 792 551 792 413 c 0
 792 399 791 385 789 370 c 2
 773 270 l 2
 771 255 769 243 769 233 c 0
 769 201 780 190 800 190 c 0xa8
 824 190 845 205 866 230 c 1
 919 560 l 2
 922 582 943 600 965 600 c 2
 1155 600 l 2
 1175 600 1189 585 1189 566 c 0
 1189 564 1189 562 1189 560 c 2
 1106 40 l 2
 1103 18 1082 0 1060 0 c 2
 890 0 l 2x58
 870 0 856 15 856 34 c 0
 856 36 856 38 856 40 c 2
 865 92 l 1
 830 48 762 -10 658 -10 c 0x88
 555 -10 489 47 489 158 c 0
 489 174 490 191 493 210 c 2
 519 370 l 2
 520 377 520 383 520 389 c 0
 520 424 500 440 450 440 c 0
 434 440 412 439 387 436 c 1
 400 423 409 403 409 378 c 0
 409 372 408 366 407 360 c 2
 374 150 l 1
 404 150 l 2
 418 150 429 139 429 125 c 0
 429 123 429 122 429 120 c 2
 415 30 l 2
 412 14 396 0 380 0 c 2
 200 0 l 2
 129 0 103 32 103 73 c 0
 103 78 103 84 104 90 c 2
 149 370 l 2
 152 390 149 397 142 397 c 1
 136 396 130 395 128 395 c 0
 117 395 113 403 111 415 c 2
 101 480 l 1
 101 480 100 491 100 499 c 0
 100 501 100 503 100 505 c 0x68
EndSplineSet
Colour: ffff00
EndChar

StartChar: uni0E12
Encoding: 3602 3602 26
Width: 1180
VWidth: -360
Flags: W
HStem: -10 200<823.618 987> -10 190<239.5 434.696> 0 21G<520 711> 420 190<397.927 490.936> 580 20G<624 825 984 1195>
VStem: 73 282<199.233 370.348>
LayerCount: 2
Fore
SplineSet
78 300 m 0x54
 105 471 234 610 407 610 c 0x54
 483 610 541 553 577 485 c 1
 589 560 l 2
 592 582 613 600 635 600 c 2
 815 600 l 2
 835 600 849 585 849 566 c 0
 849 564 849 562 849 560 c 2
 796 230 l 1
 809 205 826 190 850 190 c 0
 876 190 893 209 903 270 c 2
 949 560 l 2
 952 582 973 600 995 600 c 2
 1185 600 l 2
 1205 600 1219 585 1219 566 c 0
 1219 564 1219 562 1219 560 c 2
 1163 210 l 2
 1140 64 1046 -10 928 -10 c 0x8c
 824 -10 776 48 755 92 c 1
 746 40 l 2
 743 18 722 0 700 0 c 2
 530 0 l 2x24
 510 0 496 15 496 34 c 0
 496 36 496 38 496 40 c 2
 543 334 l 1
 528 376 480 420 447 420 c 0
 411 420 371 380 358 300 c 0
 356 289 355 279 355 269 c 0
 355 205 393 180 419 180 c 0
 436 180 445 185 449 185 c 0
 455 185 459 182 457 170 c 2
 436 40 l 2
 434 25 417 11 401 5 c 0
 386 0 358 -10 318 -10 c 0
 161 -10 73 98 73 241 c 0
 73 260 75 280 78 300 c 0x54
EndSplineSet
Colour: ffff00
EndChar

StartChar: uni0E11
Encoding: 3601 3601 27
Width: 785
VWidth: 0
Flags: W
HStem: 0 21G<100 321 490 711> 450 160<230 406>
VStem: 514 294<307.281 504.821>
LayerCount: 2
Fore
SplineSet
93 460 m 2
 113 590 l 2
 114 598 121 607 129 607 c 0
 134 607 137 606 145 600 c 2
 217 550 l 1
 240 570 293 610 367 610 c 0
 445 610 488 564 488 501 c 0
 488 498 488 494 488 491 c 1
 536 553 601 610 677 610 c 0
 771 610 808 558 808 464 c 0
 808 439 805 411 800 380 c 2
 746 40 l 2
 743 18 722 0 700 0 c 2
 500 0 l 2
 480 0 466 15 466 34 c 0
 466 36 466 38 466 40 c 2
 512 330 l 2
 513 337 514 343 514 348 c 0
 514 362 509 370 494 370 c 0
 454 370 411 291 385 220 c 1
 356 40 l 2
 353 18 332 0 310 0 c 2
 110 0 l 2
 90 0 76 15 76 34 c 0
 76 36 76 38 76 40 c 2
 105 220 l 2
 123 333 248 369 257 425 c 0
 259 438 256 450 241 450 c 0
 219 450 199 430 186 415 c 0
 181 409 175 400 163 400 c 0
 157 400 145 410 145 410 c 1
 104 435 l 2
 97 440 91 448 93 460 c 2
EndSplineSet
Colour: ffff00
EndChar

StartChar: uni0E24
Encoding: 3620 3620 28
Width: 775
VWidth: 0
Flags: W
HStem: 0 21G<164.5 388> 440 180<390.135 514.346>
LayerCount: 2
Fore
SplineSet
100 505 m 0
 102 517 111 527 125 535 c 1
 125 535 290 620 478 620 c 0
 673 620 792 551 792 413 c 0
 792 399 791 385 789 370 c 2
 698 -200 l 2
 695 -222 674 -240 652 -240 c 2
 462 -240 l 2
 442 -240 428 -225 428 -206 c 0
 428 -204 428 -202 428 -200 c 2
 519 370 l 2
 520 377 520 383 520 389 c 0
 520 424 500 440 450 440 c 0
 434 440 412 439 387 436 c 1
 400 423 409 403 409 378 c 0
 409 372 408 366 407 360 c 2
 374 150 l 1
 404 150 l 2
 418 150 429 139 429 125 c 0
 429 123 429 122 429 120 c 2
 415 30 l 2
 412 14 396 0 380 0 c 2
 200 0 l 2
 129 0 103 32 103 73 c 0
 103 78 103 84 104 90 c 2
 149 370 l 2
 152 390 149 397 142 397 c 1
 136 396 130 395 128 395 c 0
 117 395 113 403 111 415 c 2
 101 480 l 1
 101 480 100 491 100 499 c 0
 100 501 100 503 100 505 c 0
EndSplineSet
Colour: ffff00
EndChar

StartChar: uni0E26
Encoding: 3622 3622 29
Width: 775
VWidth: 0
Flags: W
HStem: 0 21G<63 290> 440 180<398.715 514.346>
LayerCount: 2
Fore
SplineSet
100 505 m 0
 102 517 111 527 125 535 c 1
 125 535 290 620 478 620 c 0
 673 620 792 551 792 413 c 0
 792 399 791 385 789 370 c 2
 698 -200 l 2
 695 -222 674 -240 652 -240 c 2
 462 -240 l 2
 442 -240 428 -225 428 -206 c 0
 428 -204 428 -202 428 -200 c 2
 519 370 l 2
 520 377 520 383 520 389 c 0
 520 424 500 440 450 440 c 0
 436 440 417 439 396 437 c 1
 409 423 419 404 419 379 c 0
 419 373 418 367 417 360 c 2
 374 90 l 2
 366 42 330 0 250 0 c 2
 70 0 l 2
 56 0 45 11 45 25 c 0
 45 27 45 28 45 30 c 2
 59 120 l 2
 62 136 78 150 94 150 c 2
 124 150 l 1
 159 370 l 2
 162 391 158 399 150 399 c 1
 144 398 132 395 128 395 c 0
 117 395 113 403 111 415 c 2
 101 480 l 1
 101 480 99 497 100 505 c 0
EndSplineSet
Colour: ffff00
EndChar

StartChar: uni0E27
Encoding: 3623 3623 30
Width: 650
VWidth: 0
Flags: W
HStem: -20 200<121.124 327.995> 420 200<197.047 464>
VStem: 389 283<241.553 389.668>
LayerCount: 2
Fore
SplineSet
668 300 m 0
 640 123 481 -20 267 -20 c 0
 144 -20 89 13 73 20 c 0
 56 27 39 40 39 56 c 0
 39 70 48 81 54 90 c 2
 109 180 l 2
 116 192 123 205 137 205 c 0
 153 205 162 193 194 185 c 0
 207 182 225 180 249 180 c 0
 318 180 376 227 388 300 c 0
 389 308 389 316 389 323 c 0
 389 383 349 420 287 420 c 0
 263 420 244 418 231 415 c 0
 197 407 184 395 168 395 c 0
 154 395 150 408 147 420 c 2
 121 510 l 2
 118 519 114 528 116 540 c 0
 119 558 142 572 162 580 c 0
 180 587 245 620 368 620 c 0
 560 620 672 504 672 352 c 0
 672 335 671 318 668 300 c 0
EndSplineSet
Colour: ffff00
EndChar

StartChar: uni0E28
Encoding: 3624 3624 31
Width: 800
VWidth: 0
Flags: W
HStem: 0 21G<70 281 500 711> 165 175<379.207 447.947> 430 190<390.843 518.463>
LayerCount: 2
Fore
SplineSet
46 40 m 2
 99 370 l 2
 125 536 274 620 488 620 c 0
 571 620 628 598 661 578 c 1
 685 604 698 634 701 650 c 0
 704 666 720 680 736 680 c 2
 873 680 l 2
 888 680 898 668 898 654 c 0
 898 593 837 528 769 488 c 1
 787 463 801 432 801 395 c 0
 801 387 800 378 799 370 c 2
 746 40 l 2
 743 18 722 0 700 0 c 2
 510 0 l 2
 490 0 476 15 476 34 c 0
 476 36 476 38 476 40 c 2
 527 360 l 2
 528 365 528 369 528 373 c 0
 528 412 498 430 458 430 c 0
 414 430 375 408 367 360 c 2
 356 290 l 1
 378 317 405 340 434 340 c 0
 445 340 452 338 458 335 c 0
 467 330 470 319 469 310 c 2
 448 175 l 2
 447 167 438 162 431 163 c 0
 425 164 419 165 406 165 c 0
 375 165 346 146 330 125 c 1
 316 40 l 2
 313 18 292 0 270 0 c 2
 80 0 l 2
 60 0 46 15 46 34 c 0
 46 36 46 38 46 40 c 2
EndSplineSet
Substitution2: "TH Tail Swap" uni0E28.swap
Substitution2: "'ss02' TH Tail swap" uni0E28.swap
Colour: ffff00
EndChar

StartChar: uni0E29
Encoding: 3625 3625 32
Width: 830
VWidth: -360
Flags: W
HStem: -20 190<370.801 489.157> 290 140<439.093 521 803 865.002> 580 20G<169 390 599 800>
VStem: 78 284<178.631 374.688>
LayerCount: 2
Fore
SplineSet
81 230 m 2
 134 560 l 2
 137 582 158 600 180 600 c 2
 380 600 l 2
 400 600 414 585 414 566 c 0
 414 564 414 562 414 560 c 2
 363 240 l 2
 362 234 362 228 362 223 c 0
 362 187 384 170 422 170 c 0
 466 170 505 192 513 240 c 2
 521 290 l 1
 451 290 l 2
 436 290 426 301 426 315 c 0
 426 317 426 318 426 320 c 2
 438 400 l 2
 441 416 457 429 473 430 c 1
 543 430 l 1
 564 560 l 2
 567 582 588 600 610 600 c 2
 790 600 l 2
 810 600 824 585 824 566 c 0
 824 564 824 562 824 560 c 2
 803 430 l 1
 853 430 l 1
 867 429 878 419 878 405 c 0
 878 403 878 402 878 400 c 2
 866 320 l 2
 863 304 848 290 831 290 c 2
 791 290 l 1
 781 230 l 2
 755 64 606 -20 392 -20 c 0
 197 -20 78 49 78 187 c 0
 78 201 79 215 81 230 c 2
EndSplineSet
Colour: ffff00
EndChar

StartChar: uni0E2B
Encoding: 3627 3627 33
Width: 740
VWidth: -360
Flags: W
HStem: 0 21G<80 291 465 699.5> 580 20G<174 385 560.5 756.5>
VStem: 441 289<2.67709 180> 451 273<1.04141 274.824>
LayerCount: 2
Fore
SplineSet
56 40 m 2xd0
 139 560 l 2
 142 582 163 600 185 600 c 2
 375 600 l 2
 395 600 409 585 409 566 c 0
 409 564 409 562 409 560 c 2
 388 430 l 1
 443 430 l 1
 514 560 l 2
 529 587 546 600 575 600 c 2
 745 600 l 2
 768 600 781 591 781 578 c 0
 781 571 779 566 774 560 c 2
 672 410 l 1
 717 382 720 327 724 280 c 1xd0
 728 85 l 2
 728 79 730 54 730 39 c 0
 730 35 730 32 730 30 c 0
 728 15 712 0 687 0 c 2
 479 0 l 2
 451 0 441 11 441 36 c 0
 441 37 441 39 441 40 c 2xe0
 450 190 l 2
 451 200 451 208 451 216 c 0
 451 258 439 280 394 280 c 2
 364 280 l 1
 326 40 l 2
 323 18 302 0 280 0 c 2
 90 0 l 2
 70 0 56 15 56 34 c 0
 56 36 56 38 56 40 c 2xd0
EndSplineSet
Colour: ffff00
EndChar

StartChar: uni0E1E
Encoding: 3614 3614 34
Width: 1050
VWidth: 0
Flags: W
HStem: 0 21G<200 438.5 611.5 850> 580 20G<139.5 369.5 560.5 679.5 870.5 1099>
VStem: 107 284<373.125 598.622>
AnchorPoint: "th-vow-below" 840 0 basechar 0
AnchorPoint: "th-vow-above" 1005 660 basechar 0
LayerCount: 2
Fore
SplineSet
155 600 m 2
 355 600 l 2
 384 600 393 587 394 560 c 2
 393 270 l 1
 391 230 l 1
 401 230 l 1
 413 270 l 1
 529 560 l 2
 538 584 546 600 575 600 c 2
 620 600 l 1
 665 600 l 2
 694 600 698 584 699 560 c 2
 723 270 l 1
 721 230 l 1
 731 230 l 1
 743 270 l 1
 834 560 l 2
 843 587 856 600 885 600 c 2
 1085 600 l 2
 1113 600 1127 596 1127 583 c 0
 1127 582 1127 581 1127 580 c 0
 1126 575 1122 565 1119 560 c 2
 886 40 l 2
 877 19 865 0 835 0 c 2
 625 0 l 2
 598 0 590 16 586 40 c 1
 565 250 l 1
 476 40 l 1
 464 16 452 0 425 0 c 2
 215 0 l 2
 185 0 179 19 176 40 c 2
 109 560 l 2
 108 564 107 571 107 576 c 0
 107 595 124 600 155 600 c 2
EndSplineSet
Colour: ffff00
EndChar

StartChar: uni0E1F
Encoding: 3615 3615 35
Width: 1040
VWidth: -360
Flags: W
HStem: 0 21G<200 438.5 611.5 860> 580 20G<139.5 369.5 560.5 679.5> 820 20G<928.5 1137>
VStem: 107 284<373.125 598.622>
AnchorPoint: "th-vow-above" 785 660 basechar 0
LayerCount: 2
Fore
SplineSet
155 600 m 2
 355 600 l 2
 384 600 393 587 394 560 c 2
 393 270 l 1
 391 230 l 1
 401 230 l 1
 413 270 l 1
 529 560 l 2
 538 584 546 600 575 600 c 2
 620 600 l 1
 665 600 l 2
 694 600 698 584 699 560 c 2
 723 270 l 1
 721 230 l 1
 731 230 l 1
 743 270 l 1
 892 800 l 1
 901 827 914 840 943 840 c 2
 1123 840 l 2
 1151 840 1165 836 1165 823 c 0
 1165 822 1165 821 1165 820 c 0
 1164 811 1157 795 1155 790 c 2
 896 40 l 2
 888 18 875 0 845 0 c 2
 625 0 l 2
 598 0 590 16 586 40 c 1
 565 250 l 1
 476 40 l 1
 464 16 452 0 425 0 c 2
 215 0 l 2
 185 0 179 19 176 40 c 2
 109 560 l 2
 108 564 107 571 107 576 c 0
 107 595 124 600 155 600 c 2
EndSplineSet
Colour: ffff00
EndChar

StartChar: uni0E1D
Encoding: 3613 3613 36
Width: 930
VWidth: 0
Flags: W
HStem: 0 21G<194 353 587 841> 420 190<390.472 475.711> 820 20G<762 973>
VStem: 73 272<204.043 371.535>
AnchorPoint: "th-vow-above" 685 660 basechar 0
LayerCount: 2
Fore
SplineSet
78 300 m 0
 105 471 229 610 407 610 c 0
 461 610 501 598 513 590 c 0
 521 585 526 576 524 562 c 0
 523 556 518 545 518 545 c 1
 476 440 l 2
 470 425 453 420 437 420 c 0
 394 420 361 380 348 300 c 0
 346 289 345 279 345 269 c 0
 345 240 352 217 366 203 c 1
 449 310 l 2
 472 339 483 350 500 350 c 2
 525 350 l 1
 550 350 l 2
 567 350 576 339 589 310 c 2
 634 213 l 1
 727 800 l 2
 730 822 751 840 773 840 c 2
 963 840 l 2
 983 840 997 825 997 806 c 0
 997 804 997 802 997 800 c 2
 876 40 l 2
 873 18 852 0 830 0 c 2
 600 0 l 2
 574 0 560 16 549 40 c 2
 494 150 l 1
 403 40 l 2
 384 16 366 0 340 0 c 2
 340 0 259 0 230 0 c 0
 158 0 73 102 73 243 c 0
 73 261 75 280 78 300 c 0
EndSplineSet
Colour: ffff00
EndChar

StartChar: uni0E1C
Encoding: 3612 3612 37
Width: 920
VWidth: 0
Flags: W
HStem: 0 21G<194 353 587 841> 420 190<390.472 475.711> 580 20G<724 935>
VStem: 73 272<204.043 371.535>
LayerCount: 2
Fore
SplineSet
78 300 m 0xb0
 105 471 229 610 407 610 c 0
 461 610 501 598 513 590 c 0
 521 585 526 576 524 562 c 0
 523 556 518 545 518 545 c 1
 476 440 l 2
 470 425 453 420 437 420 c 0xd0
 394 420 361 380 348 300 c 0
 346 289 345 279 345 269 c 0
 345 240 352 217 366 203 c 1
 449 310 l 2
 472 339 483 350 500 350 c 2
 525 350 l 1
 550 350 l 2
 567 350 576 339 589 310 c 2
 634 213 l 1
 689 560 l 2
 692 582 713 600 735 600 c 2
 925 600 l 2
 945 600 959 585 959 566 c 0
 959 564 959 562 959 560 c 2
 876 40 l 2
 873 18 852 0 830 0 c 2
 600 0 l 2
 574 0 560 16 549 40 c 2
 494 150 l 1
 403 40 l 2
 384 16 366 0 340 0 c 2
 340 0 259 0 230 0 c 0
 158 0 73 102 73 243 c 0
 73 261 75 280 78 300 c 0xb0
EndSplineSet
Colour: ffff00
EndChar

StartChar: uni0E25
Encoding: 3621 3621 38
Width: 740
VWidth: 0
Flags: W
HStem: -10 140<183 388.3> 0 21G<460 671> 230 140<236 433.717> 440 180<250.861 566.816>
VStem: 56 272<132.891 219.023> 488 275<312.523 487.601>
LayerCount: 2
Fore
SplineSet
59 180 m 0xbc
 76 288 163 370 309 370 c 0
 406 370 456 335 479 311 c 1
 487 360 l 2
 488 365 488 370 488 375 c 0
 488 425 441 440 370 440 c 0
 321 440 259 427 226 415 c 0
 212 410 187 400 174 400 c 0
 159 400 157 418 154 430 c 2
 136 510 l 1
 136 510 133 522 135 535 c 0
 137 550 143 558 159 565 c 0
 172 570 292 620 468 620 c 0
 660 620 763 553 763 419 c 0
 763 404 762 387 759 370 c 2
 706 40 l 2
 703 18 682 0 660 0 c 2
 470 0 l 2x7c
 450 0 436 15 436 34 c 0
 436 36 436 38 436 40 c 2
 463 208 l 1
 447 222 428 230 396 230 c 0
 364 230 335 215 329 180 c 0
 328 176 328 172 328 169 c 0
 328 139 351 130 371 130 c 0
 387 130 395 135 401 135 c 0
 407 135 411 132 409 120 c 2
 396 40 l 2
 394 25 378 16 362 10 c 0
 331 -1 292 -10 248 -10 c 0
 118 -10 56 55 56 146 c 0
 56 157 57 168 59 180 c 0xbc
EndSplineSet
Colour: ffff00
EndChar

StartChar: uni0E2A
Encoding: 3626 3626 39
Width: 760
VWidth: 0
Flags: W
HStem: -10 140<183 388.3> 0 21G<460 671> 230 140<236 433.717> 440 180<250.861 472.496>
VStem: 56 272<132.891 219.023>
LayerCount: 2
Fore
SplineSet
59 180 m 0xb8
 76 288 163 370 309 370 c 0
 406 370 456 335 479 311 c 1
 487 360 l 2
 488 365 488 370 488 375 c 0
 488 425 441 440 370 440 c 0
 321 440 259 427 226 415 c 0
 212 410 187 400 174 400 c 0
 159 400 157 418 154 430 c 2
 136 510 l 1
 136 510 133 522 135 535 c 0
 137 550 143 558 159 565 c 0
 172 570 292 620 468 620 c 0
 540 620 592 601 624 582 c 1
 646 607 659 635 661 650 c 0
 664 666 680 680 696 680 c 2
 833 680 l 2
 848 680 858 668 858 654 c 0
 858 592 796 527 728 487 c 1
 745 466 761 435 761 395 c 0
 761 387 760 379 759 370 c 2
 706 40 l 2
 703 18 682 0 660 0 c 2
 470 0 l 2x78
 450 0 436 15 436 34 c 0
 436 36 436 38 436 40 c 2
 463 208 l 1
 447 222 428 230 396 230 c 0
 364 230 335 215 329 180 c 0
 328 176 328 172 328 169 c 0
 328 139 351 130 371 130 c 0
 387 130 395 135 401 135 c 0
 407 135 411 132 409 120 c 2
 396 40 l 2
 394 25 378 16 362 10 c 0
 331 -1 292 -10 248 -10 c 0
 118 -10 56 55 56 146 c 0
 56 157 57 168 59 180 c 0xb8
EndSplineSet
Substitution2: "TH Tail Swap" uni0E2A.swap
Substitution2: "'ss02' TH Tail swap" uni0E2A.swap
Colour: ffff00
EndChar

StartChar: uni0E2C
Encoding: 3628 3628 40
Width: 1040
VWidth: -360
Flags: W
HStem: 0 21G<200 438.5 611.5 850> 580 20G<139.5 369.5 560.5 679.5>
VStem: 107 284<373.125 598.622> 797 243<379.02 477.644>
AnchorPoint: "th-vow-below" 840 0 basechar 0
LayerCount: 2
Fore
SplineSet
155 600 m 2
 355 600 l 2
 384 600 393 587 394 560 c 2
 393 270 l 1
 391 230 l 1
 401 230 l 1
 413 270 l 1
 529 560 l 2
 538 584 546 600 575 600 c 2
 620 600 l 1
 665 600 l 2
 694 600 698 584 699 560 c 2
 723 270 l 1
 721 230 l 1
 731 230 l 1
 743 270 l 1
 784 400 l 1
 784 400 792 429 795 445 c 0
 796 450 797 454 797 458 c 0
 797 474 792 485 786 490 c 1
 786 490 781 493 783 503 c 0
 784 508 794 530 794 530 c 1
 820 590 l 2
 824 598 828 600 839 600 c 0
 887 600 942 610 966 680 c 0
 971 694 983 710 1002 710 c 2
 1137 710 l 2
 1152 710 1163 698 1163 684 c 0
 1163 683 1163 681 1163 680 c 0
 1148 584 1041 522 973 499 c 1
 1012 488 1040 461 1040 418 c 0
 1040 412 1039 406 1038 400 c 0
 1033 367 1003 300 1003 300 c 1
 886 40 l 2
 877 19 865 0 835 0 c 2
 625 0 l 2
 598 0 590 16 586 40 c 1
 565 250 l 1
 476 40 l 1
 464 16 452 0 425 0 c 2
 215 0 l 2
 185 0 179 19 176 40 c 2
 109 560 l 2
 108 564 107 571 107 576 c 0
 107 595 124 600 155 600 c 2
EndSplineSet
Substitution2: "TH Tail Swap" uni0E2C.swap
Substitution2: "'ss02' TH Tail swap" uni0E2C.swap
Colour: ffff00
EndChar

StartChar: uni0E22
Encoding: 3618 3618 41
Width: 775
VWidth: -360
Flags: W
HStem: -20 170<334.341 472.657> 260 120<359.305 435.041> 465 145<361.35 464.791> 580 20G<584 795>
LayerCount: 2
Fore
SplineSet
60 190 m 0xd0
 70 250 103 289 150 314 c 1
 116 336 96 368 96 408 c 0
 96 415 97 422 98 430 c 0
 113 524 199 610 347 610 c 0
 391 610 426 601 453 590 c 0
 466 584 479 576 479 563 c 0
 479 562 479 561 479 560 c 2
 466 480 l 2
 464 468 460 465 454 465 c 0xe0
 448 465 440 470 424 470 c 0
 402 470 363 465 357 425 c 0
 357 422 357 419 357 416 c 0
 357 388 381 380 410 380 c 2
 420 380 l 2
 434 380 445 369 445 355 c 0
 445 353 445 352 445 350 c 2
 436 290 l 2
 433 274 417 261 401 260 c 0
 360 257 327 238 322 205 c 0
 322 203 322 201 322 199 c 0
 322 169 359 150 404 150 c 0
 448 150 487 172 495 220 c 2
 549 560 l 2
 552 582 573 600 595 600 c 2
 785 600 l 2
 805 600 819 585 819 566 c 0
 819 564 819 562 819 560 c 2
 766 230 l 2
 740 64 591 -20 377 -20 c 0
 160 -20 58 72 58 168 c 0
 58 175 59 183 60 190 c 0xd0
EndSplineSet
Colour: ffff00
EndChar

StartChar: uni0E10
Encoding: 3600 3600 42
Width: 740
VWidth: 0
Flags: W
HStem: -250 140<71.5271 257.584> -240 180<362.922 388.828 456.918 615.76> -10 350<189.11 348.018> 440 180<225.992 466> 510 168<679.176 804.598>
VStem: 462 271<241.283 407.767>
AnchorPoint: "th-vow-above" 705 660 basechar 0
LayerCount: 2
Fore
SplineSet
17 -167 m 2xa4
 66 -101 l 2
 74 -90 82 -80 92 -80 c 0
 101 -80 109 -89 111 -90 c 0
 116 -93 139 -110 168 -110 c 0xa4
 232 -110 268 -79 279 -70 c 0
 286 -65 292 -60 300 -60 c 2
 355 -60 l 2
 364 -60 368 -63 374 -70 c 2
 447 -146 l 1
 456 -90 l 2
 459 -74 474 -60 490 -60 c 2
 610 -60 l 2
 624 -60 636 -71 636 -85 c 0
 636 -87 636 -88 636 -90 c 2
 617 -210 l 2
 614 -226 598 -240 582 -240 c 2
 462 -240 l 1
 432 -240 l 1
 402 -240 l 2x64
 391 -240 388 -239 379 -230 c 2
 330 -181 l 1
 271 -226 204 -250 140 -250 c 0
 68 -250 28 -219 17 -210 c 0
 11 -205 5 -200 5 -193 c 0
 5 -183 13 -173 17 -167 c 2xa4
115 535 m 0
 117 550 123 558 139 565 c 0
 152 570 262 620 438 620 c 0x34
 494 620 534 608 561 595 c 1
 625 633 721 678 797 678 c 0
 811 678 823 667 823 653 c 0
 823 651 823 650 823 648 c 2
 806 540 l 2
 803 524 787 510 771 510 c 0x2c
 734 510 703 506 678 499 c 1
 704 468 733 415 733 352 c 0
 733 341 733 331 731 320 c 0
 704 149 553 -10 368 -10 c 0
 287 -10 266 -7 218 -3 c 0
 193 -1 182 27 179 40 c 2
 140 190 l 1
 110 190 l 2
 96 190 85 201 85 215 c 0
 85 217 85 218 85 220 c 2
 99 310 l 2
 102 326 118 340 134 340 c 2
 294 340 l 2
 336 340 350 320 356 290 c 2
 380 168 l 1
 416 186 447 233 459 310 c 0
 461 320 462 330 462 339 c 0
 462 405 419 440 340 440 c 0x34
 284 440 230 427 207 420 c 0
 193 416 168 405 155 405 c 0
 140 405 138 423 135 435 c 2
 116 510 l 1x2c
 116 510 113 522 115 535 c 0
EndSplineSet
Substitution2: "TH Descless" uni0E10.descless
Substitution2: "'locl' Localized Thai-Sanskrit" uni0E10.descless
Colour: ffff00
EndChar

StartChar: uni0E23
Encoding: 3619 3619 43
Width: 630
VWidth: 0
Flags: W
HStem: -20 155<178.869 341.402> 465 155<381.821 540.361>
VStem: 93 286<340.5 460.363> 346 276<142.039 256.5>
AnchorPoint: "th-vow-above" 675 660 basechar 0
LayerCount: 2
Fore
SplineSet
620 190 m 0xd0
 600 63 474 -20 307 -20 c 0
 174 -20 107 17 89 25 c 0
 72 32 59 44 59 57 c 0
 59 69 67 80 74 90 c 2
 115 155 l 2
 122 167 132 175 143 175 c 0
 154 175 166 167 180 160 c 0
 211 145 244 135 281 135 c 0
 317 135 346 143 346 168 c 0xd0
 346 185 325 195 302 205 c 0
 281 214 243 230 218 240 c 0
 166 261 93 298 93 383 c 0
 93 391 94 400 95 409 c 0
 118 555 272 620 418 620 c 0
 540 620 628 580 646 572 c 0
 662 565 670 555 670 541 c 0
 670 539 670 537 670 535 c 0
 668 523 659 509 654 500 c 2
 615 440 l 2
 608 428 601 417 586 417 c 0
 572 417 556 433 535 442 c 0
 509 454 470 465 439 465 c 0
 406 465 379 457 379 431 c 0xe0
 379 415 397 405 423 395 c 0
 446 386 481 372 507 360 c 0
 556 337 622 297 622 216 c 0
 622 208 621 199 620 190 c 0xd0
EndSplineSet
Colour: ffff00
EndChar

StartChar: uni0E18
Encoding: 3608 3608 44
Width: 720
VWidth: -360
Flags: W
HStem: -20 150<323.872 450.882> 470 150<394.269 597.45>
VStem: 104 287<359 457.071>
LayerCount: 2
Fore
SplineSet
321 133 m 1
 342 131 361 130 376 130 c 0
 422 130 452 141 456 165 c 0
 456 167 457 170 457 172 c 0
 457 201 425 213 395 220 c 0
 384 223 363 228 337 235 c 1
 321 133 l 1
107 420 m 0
 126 540 262 620 438 620 c 0
 602 620 693 579 701 575 c 0
 724 565 735 555 735 540 c 0
 735 538 735 537 735 535 c 0
 733 523 724 509 719 500 c 2
 686 450 l 2
 679 438 667 425 652 425 c 0
 638 425 622 436 595 445 c 0
 559 457 503 470 444 470 c 0
 418 470 391 467 391 446 c 0
 391 428 411 426 427 420 c 0
 452 411 569 379 599 370 c 0
 669 347 722 305 722 219 c 0
 722 207 721 194 719 180 c 0
 699 55 556 -20 387 -20 c 0
 221 -20 71 28 71 68 c 0
 71 69 71 69 71 70 c 2
 93 210 l 2
 96 232 118 250 140 250 c 2
 281 250 l 1
 254 257 229 265 213 270 c 0
 144 293 104 327 104 391 c 0
 104 400 105 410 107 420 c 0
EndSplineSet
Colour: ffff00
EndChar

StartChar: uni0E0E
Encoding: 3598 3598 45
Width: 775
VWidth: 0
Flags: W
HStem: -190 140<86.4358 380.121> 0 21G<63 290> 440 180<398.715 514.346>
LayerCount: 2
Fore
SplineSet
100 505 m 0
 102 517 111 527 125 535 c 1
 125 535 290 620 478 620 c 0
 673 620 792 551 792 413 c 0
 792 399 791 385 789 370 c 2
 698 -200 l 2
 695 -222 674 -240 652 -240 c 2
 452 -240 l 1
 452 -240 351 -190 210 -190 c 0
 143 -190 91 -214 78 -220 c 0
 75 -222 60 -230 54 -230 c 0
 44 -230 37 -225 36 -215 c 2
 24 -135 l 2
 23 -130 22 -123 22 -118 c 0
 22 -103 33 -97 46 -90 c 0
 59 -83 115 -50 222 -50 c 0
 324 -50 398 -79 444 -104 c 1
 519 370 l 2
 520 377 520 383 520 389 c 0
 520 424 500 440 450 440 c 0
 436 440 417 439 396 437 c 1
 409 423 419 404 419 379 c 0
 419 373 418 367 417 360 c 2
 374 90 l 2
 366 42 330 0 250 0 c 2
 70 0 l 2
 56 0 45 11 45 25 c 0
 45 27 45 28 45 30 c 2
 59 120 l 2
 62 136 78 150 94 150 c 2
 124 150 l 1
 159 370 l 2
 162 391 158 399 150 399 c 1
 144 398 132 395 128 395 c 0
 117 395 113 403 111 415 c 2
 101 480 l 1
 101 480 99 497 100 505 c 0
EndSplineSet
Colour: ffff00
EndChar

StartChar: uni0E0F
Encoding: 3599 3599 46
Width: 775
VWidth: 0
Flags: W
HStem: -250 140<81.5271 267.584> 0 21G<63 290> 440 180<398.715 514.346>
LayerCount: 2
Fore
SplineSet
100 505 m 0
 102 517 111 527 125 535 c 1
 125 535 290 620 478 620 c 0
 673 620 792 551 792 413 c 0
 792 399 791 385 789 370 c 2
 698 -200 l 2
 695 -222 674 -240 652 -240 c 2
 472 -240 l 1
 412 -240 l 2
 401 -240 398 -239 389 -230 c 2
 340 -181 l 1
 281 -226 214 -250 150 -250 c 0
 78 -250 38 -219 27 -210 c 0
 21 -205 15 -200 15 -193 c 0
 15 -183 23 -173 27 -167 c 2
 76 -101 l 2
 84 -90 92 -80 102 -80 c 0
 111 -80 119 -89 121 -90 c 0
 126 -93 149 -110 178 -110 c 0
 242 -110 278 -79 289 -70 c 0
 296 -65 302 -60 310 -60 c 2
 365 -60 l 2
 374 -60 378 -63 384 -70 c 2
 440 -128 l 1
 519 370 l 2
 520 377 520 383 520 389 c 0
 520 424 500 440 450 440 c 0
 436 440 417 439 396 437 c 1
 409 423 419 404 419 379 c 0
 419 373 418 367 417 360 c 2
 374 90 l 2
 366 42 330 0 250 0 c 2
 70 0 l 2
 56 0 45 11 45 25 c 0
 45 27 45 28 45 30 c 2
 59 120 l 2
 62 136 78 150 94 150 c 2
 124 150 l 1
 159 370 l 2
 162 391 158 399 150 399 c 1
 144 398 132 395 128 395 c 0
 117 395 113 403 111 415 c 2
 101 480 l 1
 101 480 99 497 100 505 c 0
EndSplineSet
Colour: ffff00
EndChar

StartChar: uni0E31
Encoding: 3633 3633 47
Width: 0
VWidth: 0
Flags: W
HStem: 690 150<-172 82.8125>
AnchorPoint: "th-mkmk" 0 0 basemark 0
AnchorPoint: "th-vow-above" 35 660 mark 0
LayerCount: 2
Fore
SplineSet
-386 780 m 0
 -380 821 -351 870 -351 870 c 1
 -342 886 -326 900 -306 900 c 2
 -172 900 l 2
 -161 900 -154 893 -154 883 c 0
 -154 879 -155 875 -157 870 c 2
 -172 840 l 1
 73 840 l 2
 87 840 98 829 98 815 c 0
 98 813 98 812 98 810 c 2
 84 720 l 2
 81 704 65 690 49 690 c 2
 -291 690 l 2
 -347 690 -388 716 -388 765 c 0
 -388 770 -387 775 -386 780 c 0
EndSplineSet
Substitution2: "TH Vowel to Left" uni0E31.left
Colour: ffff00
EndChar

StartChar: uni0E34
Encoding: 3636 3636 48
Width: 0
VWidth: 0
Flags: W
HStem: 690 150<-460.812 22.8125>
AnchorPoint: "th-mkmk" 0 0 basemark 0
AnchorPoint: "th-vow-above" 35 660 mark 0
LayerCount: 2
Fore
SplineSet
-476 720 m 2
 -462 810 l 2
 -459 826 -443 840 -427 840 c 2
 13 840 l 2
 27 840 38 829 38 815 c 0
 38 813 38 812 38 810 c 2
 24 720 l 2
 21 704 5 690 -11 690 c 2
 -451 690 l 2
 -465 690 -476 701 -476 715 c 0
 -476 717 -476 718 -476 720 c 2
EndSplineSet
Substitution2: "TH Vowel to Left" uni0E34.left
Colour: ffff00
EndChar

StartChar: uni0E35
Encoding: 3637 3637 49
Width: 0
VWidth: 0
Flags: W
HStem: 690 230<-148.065 23.065> 690 150<-470.812 -173.253>
AnchorPoint: "th-mkmk" 0 0 basemark 0
AnchorPoint: "th-vow-above" 35 660 mark 0
LayerCount: 2
Fore
SplineSet
-486 720 m 2x40
 -472 810 l 2
 -469 826 -453 840 -437 840 c 2
 -237 840 l 2x40
 -181 840 -163 800 -163 800 c 1
 -149 890 l 2
 -146 906 -130 920 -114 920 c 2
 26 920 l 2
 40 920 51 909 51 895 c 0
 51 893 51 892 51 890 c 2
 24 720 l 2
 21 704 5 690 -11 690 c 2x80
 -461 690 l 2
 -475 690 -486 701 -486 715 c 0
 -486 717 -486 718 -486 720 c 2x40
EndSplineSet
Substitution2: "TH Vowel to Left" uni0E35.left
Colour: ffff00
EndChar

StartChar: uni0E36
Encoding: 3638 3638 50
Width: 0
VWidth: 0
Flags: W
HStem: 690 150<-480.812 -233.092> 690 80<-121.637 -48.2904> 850 80<-116.7 -41.768>
VStem: -223 101<798.18 844.876> -41 101<775.124 847.306>
AnchorPoint: "th-mkmk" 0 0 basemark 0
AnchorPoint: "th-vow-above" 35 660 mark 0
LayerCount: 2
Fore
SplineSet
-122 810 m 0x78
 -122 807 -122 805 -122 802 c 0
 -122 781 -108 770 -88 770 c 0
 -65 770 -46 784 -42 810 c 0
 -42 813 -41 815 -41 818 c 0
 -41 839 -55 850 -75 850 c 0
 -98 850 -118 836 -122 810 c 0x78
-496 720 m 2
 -482 810 l 2
 -479 826 -463 840 -447 840 c 2
 -277 840 l 2xb8
 -251 840 -234 819 -223 798 c 1
 -223 802 -223 806 -222 810 c 0
 -211 882 -149 930 -63 930 c 0
 14 930 60 891 60 831 c 0
 60 824 59 817 58 810 c 0
 47 738 -15 690 -101 690 c 2x78
 -471 690 l 2xb8
 -485 690 -496 701 -496 715 c 0
 -496 717 -496 718 -496 720 c 2
EndSplineSet
Substitution2: "TH Vowel to Left" uni0E36.left
Colour: ffff00
EndChar

StartChar: uni0E37
Encoding: 3639 3639 51
Width: 0
VWidth: 0
Flags: W
HStem: 690 230<-288.065 -155.327 -88.065 33.065> 690 150<-480.812 -311.113> 690 100<-155 -105>
AnchorPoint: "th-mkmk" 0 0 basemark 0
AnchorPoint: "th-vow-above" 35 660 mark 0
LayerCount: 2
Fore
SplineSet
-496 720 m 2x40
 -482 810 l 2
 -479 826 -463 840 -447 840 c 2
 -367 840 l 2x40
 -316 840 -303 800 -303 800 c 1
 -289 890 l 2
 -286 906 -270 920 -254 920 c 2
 -164 920 l 2x80
 -150 920 -139 909 -139 895 c 0
 -139 893 -139 892 -139 890 c 2
 -155 790 l 1
 -105 790 l 1x20
 -89 890 l 2
 -86 906 -70 920 -54 920 c 2
 36 920 l 2
 50 920 61 909 61 895 c 0
 61 893 61 892 61 890 c 2
 34 720 l 2
 31 704 15 690 -1 690 c 2x80
 -471 690 l 2
 -485 690 -496 701 -496 715 c 0
 -496 717 -496 718 -496 720 c 2x40
EndSplineSet
Substitution2: "TH Vowel to Left" uni0E37.left
Colour: ffff00
EndChar

StartChar: uni0E4D
Encoding: 3661 3661 52
Width: 0
VWidth: 0
Flags: W
HStem: 670 90<-125.171 -54.0414> 850 90<-121.428 -49.8287>
VStem: -264 136<761.802 843.529> -47 136<766.142 848.819>
LayerCount: 2
Fore
SplineSet
-128 805 m 0
 -129 801 -128 798 -128 795 c 0
 -128 772 -114 760 -95 760 c 0
 -73 760 -53 775 -48 805 c 0
 -47 809 -47 812 -47 815 c 0
 -47 838 -61 850 -80 850 c 0
 -102 850 -123 835 -128 805 c 0
-263 805 m 0
 -250 884 -180 940 -66 940 c 0
 37 940 89 894 89 827 c 0
 89 820 88 813 87 805 c 0
 74 726 5 670 -109 670 c 0
 -212 670 -264 716 -264 783 c 0
 -264 790 -264 797 -263 805 c 0
EndSplineSet
Substitution2: "TH Nikhahit High-Left" uni0E4D.high.left
Substitution2: "TH Vowel to Left" uni0E4D.low.left
Substitution2: "TH Tone High to High-Left" uni0E4D.high.left
Substitution2: "TH Nikhahit High" uni0E4D.high
Colour: ffff00
EndChar

StartChar: uni0E32
Encoding: 3634 3634 53
Width: 540
VWidth: 0
Flags: W
HStem: 0 21G<240 461> 410 200<178.628 418.5>
VStem: 268 287<248.594 495.5>
LayerCount: 2
Fore
SplineSet
89 530 m 0
 91 542 99 549 119 560 c 1
 119 560 212 610 347 610 c 0
 490 610 555 552 555 439 c 0
 555 421 553 401 550 380 c 2
 496 40 l 2
 493 18 472 0 450 0 c 2
 250 0 l 2
 230 0 216 15 216 34 c 0
 216 36 216 38 216 40 c 2
 267 360 l 2
 268 366 268 371 268 376 c 0
 268 401 255 410 225 410 c 0
 199 410 175 404 153 395 c 0
 143 391 132 385 121 385 c 0
 110 385 106 393 104 405 c 2
 90 505 l 1
 90 505 89 516 89 524 c 0
 89 526 89 528 89 530 c 0
EndSplineSet
Colour: ffff00
EndChar

StartChar: uni0E38
Encoding: 3640 3640 54
Width: 0
VWidth: 0
Flags: W
HStem: -280 220<-308.895 -121.579>
VStem: -354 256<-178.906 -99.6>
AnchorPoint: "th-vow-below" -70 0 mark 0
LayerCount: 2
Fore
SplineSet
-344 -90 m 2
 -341 -74 -326 -60 -310 -60 c 2
 -150 -60 l 2
 -118 -60 -98 -79 -98 -108 c 0
 -98 -112 -98 -116 -99 -120 c 2
 -120 -250 l 2
 -123 -266 -138 -280 -154 -280 c 2
 -294 -280 l 2
 -308 -280 -320 -269 -320 -255 c 0
 -320 -253 -320 -252 -320 -250 c 2
 -309 -180 l 1
 -329 -180 l 2
 -343 -180 -354 -169 -354 -155 c 0
 -354 -153 -354 -152 -354 -150 c 2
 -344 -90 l 2
EndSplineSet
Substitution2: "TH Vow Lower" uni0E38.low
Colour: ffff00
EndChar

StartChar: uni0E3A
Encoding: 3642 3642 55
Width: 0
VWidth: 0
Flags: W
HStem: -220 160<-293.082 -111.204>
VStem: -310 216<-142.5 -137.5>
AnchorPoint: "th-vow-below" -70 0 mark 0
LayerCount: 2
Fore
SplineSet
-294 -90 m 2
 -291 -74 -276 -60 -260 -60 c 2
 -120 -60 l 2
 -106 -60 -94 -71 -94 -85 c 0
 -94 -87 -94 -88 -94 -90 c 2
 -110 -190 l 2
 -113 -206 -129 -220 -145 -220 c 2
 -285 -220 l 2
 -299 -220 -310 -209 -310 -195 c 0
 -310 -193 -310 -192 -310 -190 c 2
 -294 -90 l 2
EndSplineSet
Substitution2: "TH Vow Lower" uni0E3A.low
Colour: ffff00
EndChar

StartChar: uni0E39
Encoding: 3641 3641 56
Width: 0
VWidth: 0
Flags: W
HStem: -280 220<-528.059 -350.36 -263.082 -123.141> -280 90<-350 -280>
AnchorPoint: "th-vow-below" -170 0 mark 0
LayerCount: 2
Fore
SplineSet
-564 -90 m 2x80
 -561 -74 -546 -60 -530 -60 c 2
 -390 -60 l 2x80
 -358 -60 -338 -79 -338 -108 c 0
 -338 -112 -338 -116 -339 -120 c 2
 -350 -190 l 1
 -280 -190 l 1x40
 -264 -90 l 2
 -261 -74 -246 -60 -230 -60 c 2
 -110 -60 l 2
 -96 -60 -84 -71 -84 -85 c 0
 -84 -87 -84 -88 -84 -90 c 2
 -105 -220 l 2
 -111 -255 -144 -280 -204 -280 c 2
 -454 -280 l 2
 -509 -280 -536 -259 -536 -229 c 0
 -536 -226 -535 -223 -535 -220 c 2
 -529 -180 l 1
 -549 -180 l 2
 -563 -180 -574 -169 -574 -155 c 0
 -574 -153 -574 -152 -574 -150 c 2
 -564 -90 l 2x80
EndSplineSet
Substitution2: "TH Vow Lower" uni0E39.low
Colour: ffff00
EndChar

StartChar: uni0E49
Encoding: 3657 3657 57
Width: 0
VWidth: 0
Flags: W
HStem: 960 110<-26 125.869> 1080 90<-197.9 -149>
VStem: -232 367<965.255 1039.48>
AnchorPoint: "th-mkmk" 0 0 mark 0
LayerCount: 2
Fore
SplineSet
-232 1000 m 0
 -229 1017 -220 1029 -205 1040 c 2
 -149 1080 l 1
 -189 1080 l 2
 -200 1080 -208 1089 -206 1100 c 2
 -198 1150 l 2
 -196 1161 -186 1170 -175 1170 c 2
 5 1170 l 2
 28 1170 40 1156 40 1140 c 0
 40 1138 40 1137 40 1135 c 0
 38 1121 31 1113 20 1105 c 2
 -26 1070 l 1
 109 1070 l 2
 123 1070 135 1059 135 1045 c 0
 135 1043 135 1042 135 1040 c 2
 127 990 l 2
 124 974 108 960 92 960 c 2
 -198 960 l 2
 -220 960 -232 975 -232 993 c 0
 -232 995 -232 998 -232 1000 c 0
EndSplineSet
Substitution2: "TH Tone High to High-Left" uni0E49.high.left
Substitution2: "TH Tone High to Low-Left" uni0E49.low.left
Substitution2: "TH Tone High to Low" uni0E49.low
Colour: ffff00
EndChar

StartChar: uni0E48
Encoding: 3656 3656 58
Width: 0
VWidth: 0
Flags: W
HStem: 960 210<-98.0824 55.6547>
VStem: -123 204
AnchorPoint: "th-mkmk" 0 0 mark 0
LayerCount: 2
Fore
SplineSet
-123 990 m 2
 -99 1140 l 2
 -96 1156 -81 1170 -65 1170 c 2
 55 1170 l 2
 69 1170 81 1159 81 1145 c 0
 81 1143 81 1142 81 1140 c 2
 57 990 l 2
 54 974 38 960 22 960 c 2
 -98 960 l 2
 -112 960 -123 971 -123 985 c 0
 -123 987 -123 988 -123 990 c 2
EndSplineSet
Substitution2: "TH Tone High to High-Left" uni0E48.high.left
Substitution2: "TH Tone High to Low-Left" uni0E48.low.left
Substitution2: "TH Tone High to Low" uni0E48.low
Colour: ffff00
EndChar

StartChar: uni0E4B
Encoding: 3659 3659 59
Width: 0
VWidth: 0
Flags: W
HStem: 960 210<-88.0824 45.6547> 1020 90<-176.9 -108 66 134.9>
VStem: -185 328
AnchorPoint: "th-mkmk" 0 0 mark 0
LayerCount: 2
Fore
SplineSet
-185 1040 m 2x60
 -177 1090 l 2
 -175 1101 -165 1110 -154 1110 c 2
 -94 1110 l 1x60
 -89 1140 l 2
 -86 1156 -71 1170 -55 1170 c 2
 45 1170 l 2xa0
 59 1170 71 1159 71 1145 c 0
 71 1143 71 1142 71 1140 c 2
 66 1110 l 1
 126 1110 l 2
 137 1110 145 1101 143 1090 c 2
 135 1040 l 2
 133 1029 123 1020 112 1020 c 2
 52 1020 l 1x60
 47 990 l 2
 44 974 28 960 12 960 c 2
 -88 960 l 2xa0
 -102 960 -113 971 -113 985 c 0
 -113 987 -113 988 -113 990 c 2
 -108 1020 l 1
 -168 1020 l 2
 -179 1020 -187 1029 -185 1040 c 2x60
EndSplineSet
Substitution2: "TH Tone High to High-Left" uni0E4B.high.left
Substitution2: "TH Tone High to Low-Left" uni0E4B.low.left
Substitution2: "TH Tone High to Low" uni0E4B.low
Colour: ffff00
EndChar

StartChar: uni0E40
Encoding: 3648 3648 60
Width: 390
VWidth: 0
Flags: W
HStem: -10 610<154.323 332.232>
VStem: 74 345
LayerCount: 2
Fore
SplineSet
76 100 m 2
 149 560 l 2
 152 582 173 600 195 600 c 2
 385 600 l 2
 405 600 419 585 419 566 c 0
 419 564 419 562 419 560 c 2
 333 20 l 2
 331 7 326 2 315 0 c 1
 315 0 255 -10 198 -10 c 0
 102 -10 74 24 74 74 c 0
 74 82 75 91 76 100 c 2
EndSplineSet
Colour: ffff00
EndChar

StartChar: uni0E41
Encoding: 3649 3649 61
Width: 750
VWidth: 0
Flags: W
HStem: 580 20G<184 395 544 755>
LayerCount: 2
Fore
SplineSet
436 100 m 2
 509 560 l 2
 512 582 533 600 555 600 c 2
 745 600 l 2
 765 600 779 585 779 566 c 0
 779 564 779 562 779 560 c 2
 693 20 l 2
 691 7 686 2 675 0 c 1
 675 0 615 -10 558 -10 c 0
 462 -10 434 24 434 74 c 0
 434 82 435 91 436 100 c 2
76 100 m 2
 149 560 l 2
 152 582 173 600 195 600 c 2
 385 600 l 2
 405 600 419 585 419 566 c 0
 419 564 419 562 419 560 c 2
 333 20 l 2
 331 7 326 2 315 0 c 1
 315 0 255 -10 198 -10 c 0
 102 -10 74 24 74 74 c 0
 74 82 75 91 76 100 c 2
EndSplineSet
Colour: ffff00
EndChar

StartChar: uni0E2F
Encoding: 3631 3631 62
Width: 700
VWidth: 0
Flags: W
HStem: 0 21G<390 611> 290 170<201.5 366.991> 580 20G<144 295 504 705>
VStem: 95 224<413.744 584.424>
LayerCount: 2
Fore
SplineSet
98 490 m 1
 109 560 l 2
 112 582 133 600 155 600 c 2
 285 600 l 2
 305 600 319 585 319 566 c 0
 319 564 319 562 319 560 c 2
 316 540 l 2
 315 531 313 523 313 516 c 0
 313 474 336 460 363 460 c 0
 402 460 440 490 465 535 c 1
 469 560 l 2
 472 582 493 600 515 600 c 2
 695 600 l 2
 715 600 729 585 729 566 c 0
 729 564 729 562 729 560 c 2
 646 40 l 2
 643 18 622 0 600 0 c 2
 400 0 l 2
 380 0 366 15 366 34 c 0
 366 36 366 38 366 40 c 2
 415 349 l 1
 379 317 326 290 256 290 c 0
 147 290 95 365 95 454 c 0
 95 466 96 478 98 490 c 1
EndSplineSet
Colour: ffff00
EndChar

StartChar: uni0E30
Encoding: 3632 3632 63
Width: 520
VWidth: 0
Flags: W
HStem: 40 170<303 489.991> 350 170<352 538.991>
LayerCount: 2
Fore
SplineSet
111 450 m 0
 118 493 147 540 147 540 c 1
 156 556 171 570 191 570 c 2
 348 570 l 2
 359 570 367 563 367 553 c 0
 367 549 366 545 364 540 c 2
 352 520 l 1
 532 520 l 2
 546 520 558 509 558 495 c 0
 558 493 558 492 558 490 c 2
 540 380 l 2
 537 364 521 350 505 350 c 2
 205 350 l 2
 150 350 110 385 110 435 c 0
 110 440 110 445 111 450 c 0
62 140 m 0
 69 183 97 230 97 230 c 1
 106 246 122 260 142 260 c 2
 299 260 l 2
 310 260 318 253 318 243 c 0
 318 239 316 235 314 230 c 2
 303 210 l 1
 483 210 l 2
 497 210 509 199 509 185 c 0
 509 183 509 182 509 180 c 2
 491 70 l 2
 488 54 472 40 456 40 c 2
 156 40 l 2
 101 40 61 75 61 125 c 0
 61 130 61 135 62 140 c 0
EndSplineSet
Colour: ffff00
EndChar

StartChar: uni0E4A
Encoding: 3658 3658 64
Width: 0
VWidth: 0
Flags: W
HStem: 960 210<-48.0824 85.5455> 960 90<86 154.9> 1070 110<-178.5 -85.805>
VStem: -290 157<960.015 1065.79> -73 228<960.008 1049.13>
AnchorPoint: "th-mkmk" 0 0 mark 0
LayerCount: 2
Fore
SplineSet
-287 1030 m 0x78
 -273 1119 -214 1180 -143 1180 c 0x78
 -100 1180 -74 1146 -55 1108 c 1
 -49 1140 l 2
 -46 1156 -31 1170 -15 1170 c 2
 75 1170 l 2x98
 89 1170 101 1159 101 1145 c 0
 101 1143 101 1142 101 1140 c 2
 86 1050 l 1
 146 1050 l 2
 157 1050 165 1041 163 1030 c 2
 155 980 l 2
 153 969 143 960 132 960 c 2x58
 -48 960 l 2x98
 -62 960 -73 971 -73 985 c 0
 -73 987 -73 988 -73 990 c 2
 -67 1026 l 1
 -77 1051 -88 1070 -101 1070 c 0
 -121 1070 -130 1036 -133 1020 c 0
 -135 1010 -136 998 -134 990 c 0
 -133 985 -132 979 -133 975 c 0
 -135 965 -148 960 -159 960 c 2
 -263 960 l 2
 -279 960 -290 974 -290 991 c 0
 -290 1003 -289 1017 -287 1030 c 0x78
EndSplineSet
Substitution2: "TH Tone High to High-Left" uni0E4A.high.left
Substitution2: "TH Tone High to Low-Left" uni0E4A.low.left
Substitution2: "TH Tone High to Low" uni0E4A.low
Colour: ffff00
EndChar

StartChar: uni0E47
Encoding: 3655 3655 65
Width: 0
VWidth: 0
Flags: W
HStem: 670 115<-331.5 -189.389> 680 140<-138.987 -11.9953> 865 115<-256.738 40.9824>
VStem: -431 166<788.112 855.203>
AnchorPoint: "th-vow-above" 35 660 mark 0
LayerCount: 2
Fore
SplineSet
-429 825 m 0xb0
 -416 907 -348 980 -230 980 c 2
 25 980 l 2
 39 980 50 969 50 955 c 0
 50 953 50 952 50 950 c 2
 42 895 l 2
 39 879 23 865 7 865 c 2
 -208 865 l 2
 -235 865 -260 852 -264 825 c 0
 -264 823 -265 820 -265 818 c 0
 -265 796 -246 785 -221 785 c 0xb0
 -197 785 -183 794 -174 805 c 0
 -168 813 -161 820 -150 820 c 2
 -38 820 l 2
 -22 820 -15 806 -11 790 c 2
 11 710 l 1
 11 710 16 699 15 695 c 0
 13 685 1 680 -10 680 c 2
 -112 680 l 2x70
 -128 680 -136 694 -140 710 c 1
 -145 742 l 1
 -168 706 -209 670 -279 670 c 0
 -384 670 -431 727 -431 798 c 0
 -431 807 -430 816 -429 825 c 0xb0
EndSplineSet
Substitution2: "TH Vowel to Left" uni0E47.left
Colour: ffff00
EndChar

StartChar: uni0E4C
Encoding: 3660 3660 66
Width: 0
VWidth: 0
Flags: W
HStem: 990 120<-38 101.041>
VStem: -198 309<1024 1082.32>
AnchorPoint: "th-mkmk" 0 0 mark 0
LayerCount: 2
Fore
SplineSet
-197 1030 m 0
 -188 1088 -145 1110 -84 1110 c 2
 86 1110 l 2
 100 1110 111 1099 111 1085 c 0
 111 1083 111 1082 111 1080 c 2
 102 1020 l 2
 99 1004 83 990 67 990 c 2
 -38 990 l 1
 -28 960 l 1
 -28 960 -22 949 -23 945 c 0
 -25 935 -39 930 -50 930 c 2
 -154 930 l 2
 -170 930 -180 944 -186 960 c 0
 -189 969 -198 985 -198 1011 c 0
 -198 1017 -198 1023 -197 1030 c 0
EndSplineSet
Substitution2: "TH Tone High to High-Left" uni0E4C.high.left
Substitution2: "TH Tone High to Low-Left" uni0E4C.low.left
Substitution2: "TH Tone High to Low" uni0E4C.low
Colour: ffff00
EndChar

StartChar: uni0E43
Encoding: 3651 3651 67
Width: 440
VWidth: 0
Flags: W
HStem: 780 150<264.735 426>
VStem: 358 204<704.127 825.5>
LayerCount: 2
Fore
SplineSet
113 777 m 0
 114 785 118 793 121 800 c 0
 153 863 242 930 367 930 c 0
 485 930 562 868 562 783 c 0
 562 776 561 768 560 760 c 0
 542 646 460 628 441 510 c 2
 363 20 l 2
 361 7 356 2 345 0 c 1
 345 0 285 -10 228 -10 c 0
 132 -10 104 24 104 74 c 0
 104 82 105 91 106 100 c 2
 171 510 l 2
 188 615 349 690 357 740 c 0
 358 743 358 747 358 750 c 0
 358 769 347 780 324 780 c 0
 289 780 250 748 230 717 c 0
 226 711 220 705 212 705 c 0
 205 705 190 715 184 718 c 2
 125 755 l 2
 118 759 111 766 113 777 c 0
EndSplineSet
Colour: ffff00
EndChar

StartChar: uni0E44
Encoding: 3652 3652 68
Width: 440
VWidth: 0
Flags: W
HStem: 780 150<348.361 493>
LayerCount: 2
Fore
SplineSet
124 785 m 2
 143 900 l 2
 144 908 148 914 157 915 c 0
 161 915 168 912 174 907 c 2
 262 842 l 1
 291 876 359 930 447 930 c 0
 539 930 586 878 586 807 c 0
 586 798 585 789 584 780 c 0
 568 677 460 628 441 510 c 2
 363 20 l 2
 361 7 356 2 345 0 c 1
 345 0 285 -10 228 -10 c 0
 132 -10 104 24 104 74 c 0
 104 82 105 91 106 100 c 2
 171 510 l 2
 190 629 372 704 379 750 c 0
 379 752 379 755 379 757 c 0
 379 771 372 780 354 780 c 0
 320 780 282 748 257 720 c 0
 252 714 245 700 233 700 c 0
 227 700 212 710 212 710 c 1
 135 760 l 2
 128 765 122 773 124 785 c 2
EndSplineSet
Colour: ffff00
EndChar

StartChar: uni0E42
Encoding: 3650 3650 69
Width: 440
VWidth: 0
Flags: W
HStem: 780 150<342.378 471.852>
LayerCount: 2
Fore
SplineSet
120 760 m 0
 135 856 228 930 357 930 c 0
 486 930 566 877 578 870 c 0
 589 863 593 854 593 843 c 0
 593 841 593 839 593 837 c 0
 592 828 584 820 584 820 c 1
 532 752 l 2
 523 741 519 735 511 735 c 0
 504 735 492 742 484 747 c 0
 475 753 426 780 394 780 c 0
 360 780 339 772 339 746 c 0
 339 705 450 677 450 581 c 0
 450 574 450 567 449 560 c 2
 363 20 l 2
 361 7 356 2 345 0 c 1
 345 0 285 -10 228 -10 c 0
 132 -10 104 24 104 74 c 0
 104 82 105 91 106 100 c 2
 171 510 l 2
 173 522 173 533 173 543 c 0
 173 626 118 660 118 734 c 0
 118 742 119 751 120 760 c 0
EndSplineSet
Colour: ffff00
EndChar

StartChar: uni0E45
Encoding: 3653 3653 70
Width: 540
VWidth: 0
Flags: W
HStem: 410 200<178.628 418.5>
VStem: 268 287<249.688 495.5>
LayerCount: 2
Fore
SplineSet
89 530 m 0
 91 542 99 549 119 560 c 1
 119 560 212 610 347 610 c 0
 490 610 555 552 555 439 c 0
 555 421 553 401 550 380 c 2
 458 -200 l 2
 455 -222 434 -240 412 -240 c 2
 212 -240 l 2
 192 -240 178 -225 178 -206 c 0
 178 -204 178 -202 178 -200 c 2
 267 360 l 2
 268 366 268 371 268 376 c 0
 268 401 255 410 225 410 c 0
 199 410 175 404 153 395 c 0
 143 391 132 385 121 385 c 0
 110 385 106 393 104 405 c 2
 90 505 l 1
 90 505 89 516 89 524 c 0
 89 526 89 528 89 530 c 0
EndSplineSet
Colour: ffff00
EndChar

StartChar: uni0E46
Encoding: 3654 3654 71
Width: 600
VWidth: 0
Flags: W
HStem: -250 173<138.607 240.97> 430 180<302 502.5>
VStem: 352 260<349.377 504>
LayerCount: 2
Fore
SplineSet
99 435 m 2
 122 580 l 2
 123 588 127 594 136 595 c 0
 140 595 147 592 153 587 c 2
 241 516 l 1
 264 544 340 610 452 610 c 0
 553 610 612 543 612 465 c 0
 612 457 611 449 610 440 c 2
 534 -40 l 2
 504 -232 280 -250 155 -250 c 0
 136 -250 131 -243 131 -227 c 0
 131 -225 131 -222 131 -220 c 2
 138 -105 l 1
 141 -87 153 -81 173 -77 c 0
 194 -73 259 -69 268 -10 c 2
 308 240 l 2
 317 298 343 333 350 380 c 0
 351 385 352 390 352 395 c 0
 352 416 342 430 318 430 c 0
 286 430 253 394 231 366 c 0
 226 360 219 345 207 345 c 0
 201 345 186 355 186 355 c 1
 110 410 l 2
 103 415 97 423 99 435 c 2
EndSplineSet
Colour: ffff00
EndChar

StartChar: uni0E0D.descless
Encoding: 60941 60941 72
Width: 1150
VWidth: -360
Flags: W
HStem: -20 180<765.989 851.336> 0 21G<164.5 388> 440 180<390.135 514.346> 580 20G<954 1165>
VStem: 490 273<163.791 353.047>
LayerCount: 2
Fore
SplineSet
100 505 m 0x68
 102 517 111 527 125 535 c 1
 125 535 290 620 478 620 c 0x68
 673 620 792 551 792 413 c 0
 792 399 791 385 789 370 c 2
 765 220 l 2
 764 213 763 207 763 201 c 0
 763 173 776 160 805 160 c 0
 840 160 859 179 865 220 c 2
 919 560 l 2
 922 582 943 600 965 600 c 2
 1155 600 l 2
 1175 600 1189 585 1189 566 c 0
 1189 564 1189 562 1189 560 c 2
 1133 210 l 2
 1113 83 1009 -20 777 -20 c 0x98
 569 -20 490 63 490 171 c 0
 490 184 491 197 493 210 c 2
 519 370 l 2
 520 377 520 383 520 389 c 0
 520 424 500 440 450 440 c 0
 434 440 412 439 387 436 c 1
 400 423 409 403 409 378 c 0
 409 372 408 366 407 360 c 2
 374 150 l 1
 404 150 l 2
 418 150 429 139 429 125 c 0
 429 123 429 122 429 120 c 2
 415 30 l 2
 412 14 396 0 380 0 c 2
 200 0 l 2
 129 0 103 32 103 73 c 0
 103 78 103 84 104 90 c 2
 149 370 l 2
 152 390 149 397 141 397 c 1
 136 396 130 395 128 395 c 0
 117 395 113 403 111 415 c 2
 101 480 l 1
 101 480 100 491 100 499 c 0
 100 501 100 503 100 505 c 0x68
EndSplineSet
Colour: ffff00
EndChar

StartChar: uni0E10.descless
Encoding: 60944 60944 73
Width: 740
VWidth: 0
Flags: W
HStem: -10 350<189.11 348.018> 440 180<225.992 466> 510 168<679.176 804.598>
VStem: 462 271<241.283 407.767>
AnchorPoint: "th-vow-above" 705 660 basechar 0
AnchorPoint: "th-vow-below" 520 0 basechar 0
LayerCount: 2
Fore
SplineSet
115 535 m 0xb0
 117 550 123 558 139 565 c 0
 152 570 262 620 438 620 c 0xd0
 494 620 534 608 561 595 c 1
 625 633 721 678 797 678 c 0
 811 678 823 667 823 653 c 0
 823 651 823 650 823 648 c 2
 806 540 l 2
 803 524 787 510 771 510 c 0xb0
 734 510 703 506 678 499 c 1
 704 468 733 415 733 352 c 0
 733 341 733 331 731 320 c 0
 704 149 553 -10 368 -10 c 0
 287 -10 266 -7 218 -3 c 0
 193 -1 182 27 179 40 c 2
 140 190 l 1
 110 190 l 2
 96 190 85 201 85 215 c 0
 85 217 85 218 85 220 c 2
 99 310 l 2
 102 326 118 340 134 340 c 2
 294 340 l 2
 336 340 350 320 356 290 c 2
 380 168 l 1
 416 186 447 233 459 310 c 0
 461 320 462 330 462 339 c 0
 462 405 419 440 340 440 c 0xd0
 284 440 230 427 207 420 c 0
 193 416 168 405 155 405 c 0
 140 405 138 423 135 435 c 2
 116 510 l 1
 116 510 113 522 115 535 c 0xb0
EndSplineSet
Colour: ffff00
EndChar

StartChar: uni0E3F
Encoding: 3647 3647 74
Width: 820
VWidth: 0
Flags: W
HStem: 350 150<419 514.573>
VStem: 532 296<217.239 331.82> 553 297<539.617 697.5>
LayerCount: 2
Fore
SplineSet
419 500 m 1xa0
 469 500 l 2
 513 500 546 542 552 580 c 0
 553 584 553 587 553 591 c 0
 553 626 528 660 485 660 c 2
 445 660 l 1
 419 500 l 1xa0
369 180 m 1
 419 180 l 2
 471 180 524 214 531 260 c 0
 532 265 532 271 532 276 c 0xc0
 532 316 507 350 445 350 c 2
 395 350 l 1
 369 180 l 1
66 40 m 2
 187 800 l 2
 190 822 211 840 233 840 c 2
 413 840 l 1
 427 930 l 2
 430 946 446 960 462 960 c 2
 612 960 l 2
 626 960 637 949 637 935 c 0
 637 933 637 932 637 930 c 2
 623 837 l 1
 778 820 850 748 850 647 c 0xa0
 850 635 849 623 847 610 c 0
 835 533 789 472 706 434 c 1
 788 400 828 342 828 263 c 0
 828 249 827 235 825 220 c 0
 800 60 637 3 490 0 c 1
 476 -90 l 2
 473 -106 457 -120 441 -120 c 2
 291 -120 l 2
 277 -120 266 -109 266 -95 c 0
 266 -93 266 -92 266 -90 c 2
 280 0 l 1
 100 0 l 2
 80 0 66 15 66 34 c 0
 66 36 66 38 66 40 c 2
EndSplineSet
Colour: ffff00
EndChar

StartChar: uni0E4E
Encoding: 3662 3662 75
Width: 0
VWidth: 0
Flags: W
HStem: 660 85<-233.184 -96.4885> 673 79<-151.256 -97.3108> 830 60<-152.937 -106.096> 960 90<-149.269 -35.4219>
VStem: -329 133<748.205 818.575> -283 129<894.021 954.364>
AnchorPoint: "th-vow-above" -35 660 mark 0
LayerCount: 2
Fore
SplineSet
-327 775 m 0xb8
 -320 818 -296 847 -256 864 c 1
 -273 877 -283 896 -283 920 c 0
 -283 925 -283 930 -282 935 c 0
 -271 1005 -207 1050 -114 1050 c 0
 -57 1050 -19 1026 -1 1002 c 0
 1 999 2 995 2 992 c 0
 2 986 -1 980 -5 977 c 2
 -36 943 l 2
 -40 939 -44 935 -47 935 c 0
 -50 935 -52 938 -57 944 c 0
 -66 952 -78 960 -99 960 c 0
 -133 960 -154 942 -154 921 c 0xb4
 -154 901 -129 890 -101 890 c 0
 -92 890 -91 884 -93 879 c 2
 -106 839 l 2
 -108 833 -113 830 -124 830 c 0
 -148 830 -190 820 -196 785 c 0
 -196 782 -196 780 -196 778 c 0
 -196 756 -178 745 -152 745 c 0xb8
 -136 745 -128 746 -122 748 c 0
 -117 750 -112 752 -106 752 c 0
 -100 752 -99 745 -99 741 c 2
 -94 698 l 2
 -93 695 -94 691 -95 685 c 0
 -96 680 -102 675 -110 673 c 0x78
 -132 667 -158 660 -205 660 c 0
 -271 660 -329 693 -329 757 c 0
 -329 763 -328 769 -327 775 c 0xb8
EndSplineSet
Colour: ffff00
EndChar

StartChar: uni0E4F
Encoding: 3663 3663 76
Width: 760
VWidth: 0
Flags: W
HStem: -20 80<287.643 503.103> 150 300<364.337 490.663> 540 80<356.407 567.731>
VStem: 103 91<152.725 371.944> 661 91<225.249 447.275>
CounterMasks: 1 e0
LayerCount: 2
Fore
SplineSet
278 300 m 0
 291 383 368 450 451 450 c 0
 526 450 579 396 579 324 c 0
 579 316 579 308 578 300 c 0
 565 217 487 150 404 150 c 0
 329 150 276 204 276 276 c 0
 276 284 277 292 278 300 c 0
198 300 m 0
 196 285 194 271 194 257 c 0
 194 145 268 60 390 60 c 0
 527 60 637 167 658 300 c 0
 660 315 661 329 661 343 c 0
 661 455 588 540 466 540 c 0
 329 540 219 433 198 300 c 0
108 300 m 0
 136 477 289 620 478 620 c 0
 647 620 752 506 752 355 c 0
 752 337 751 319 748 300 c 0
 720 123 566 -20 377 -20 c 0
 208 -20 103 94 103 245 c 0
 103 263 105 281 108 300 c 0
EndSplineSet
Colour: ffff00
EndChar

StartChar: uni0E50
Encoding: 3664 3664 77
Width: 780
VWidth: 0
Flags: W
HStem: -20 210<357.261 489.922> 410 210<385.326 517.739>
VStem: 73 262<211.777 358.5> 540 262<240.397 388.223>
LayerCount: 2
Fore
SplineSet
338 300 m 0
 337 291 335 283 335 275 c 0
 335 225 363 190 420 190 c 0
 486 190 528 237 538 300 c 0
 539 309 540 317 540 325 c 0
 540 375 512 410 455 410 c 0
 389 410 348 363 338 300 c 0
78 300 m 0
 106 477 268 620 488 620 c 0
 686 620 802 504 802 351 c 0
 802 334 801 317 798 300 c 0
 770 123 607 -20 387 -20 c 0
 189 -20 73 96 73 249 c 0
 73 266 75 283 78 300 c 0
EndSplineSet
Colour: ffff00
EndChar

StartChar: uni0E51
Encoding: 3665 3665 78
Width: 780
VWidth: 0
Flags: W
HStem: 410 210<378.901 517.739>
VStem: 74 266<198.5 372.519> 540 262<217.19 386.144>
LayerCount: 2
Fore
SplineSet
78 300 m 0
 106 477 268 620 488 620 c 0
 686 620 802 504 802 351 c 0
 802 334 801 317 798 300 c 0
 767 107 645 2 504 -71 c 0
 496 -75 488 -80 478 -80 c 0
 466 -80 456 -73 450 -63 c 2
 391 37 l 2
 387 44 384 52 385 60 c 0
 387 72 394 83 406 91 c 0
 460 127 519 179 538 300 c 0
 539 309 540 317 540 325 c 0
 540 375 512 410 455 410 c 0
 389 410 348 367 341 320 c 0
 340 316 340 312 340 309 c 0
 340 283 357 270 383 270 c 0
 395 270 404 275 412 275 c 0
 422 275 426 268 425 250 c 2
 421 151 l 1
 419 136 407 123 391 116 c 0
 361 102 317 90 264 90 c 0
 161 90 74 140 74 257 c 0
 74 270 76 285 78 300 c 0
EndSplineSet
Colour: ffff00
EndChar

StartChar: uni0E52
Encoding: 3666 3666 79
Width: 870
VWidth: 0
Flags: W
HStem: 0 180<349 619> 430 180<601 798>
VStem: 650 250<276.25 501>
LayerCount: 2
Fore
SplineSet
66 40 m 2
 172 710 l 2
 175 732 197 750 219 750 c 2
 399 750 l 2
 419 750 433 735 433 716 c 0
 433 714 432 712 432 710 c 2
 349 180 l 1
 619 180 l 1
 649 370 l 2
 650 377 650 384 650 390 c 0
 650 413 642 430 618 430 c 0
 584 430 553 398 531 370 c 0
 526 364 520 355 508 355 c 0
 502 355 490 365 490 365 c 1
 438 410 l 2
 431 415 425 423 427 435 c 2
 450 579 l 2
 451 587 456 594 465 595 c 0
 469 595 474 590 480 584 c 2
 540 520 l 1
 570 554 637 610 747 610 c 0
 849 610 900 544 900 458 c 0
 900 446 899 433 897 420 c 2
 836 40 l 2
 833 18 812 0 790 0 c 2
 100 0 l 2
 80 0 66 15 66 34 c 0
 66 36 66 38 66 40 c 2
EndSplineSet
Colour: ffff00
EndChar

StartChar: uni0E53
Encoding: 3667 3667 80
Width: 840
VWidth: 0
Flags: W
HStem: -10 190<351.75 421.32> 0 21G<560 761> 590 10G<300.5 405.5 642 855>
VStem: 72 261<198.005 349.271>
LayerCount: 2
Fore
SplineSet
78 300 m 0xb0
 105 470 224 610 377 610 c 0
 434 610 447 570 447 570 c 1
 502 452 l 1
 501 450 l 1
 592 560 l 2
 611 584 629 600 655 600 c 2
 845 600 l 2
 865 600 879 585 879 566 c 0
 879 564 879 562 879 560 c 2
 796 40 l 2
 793 18 772 0 750 0 c 2
 570 0 l 2x70
 550 0 536 15 536 34 c 0
 536 36 536 38 536 40 c 2
 590 380 l 1
 546 320 l 2
 523 291 511 280 494 280 c 2
 474 280 l 1
 451 280 l 2
 434 280 426 291 413 320 c 2
 383 380 l 1
 360 361 341 324 334 280 c 0
 333 275 333 269 333 264 c 0
 333 221 361 180 399 180 c 0
 415 180 429 175 431 160 c 2
 441 55 l 1
 441 55 442 44 441 38 c 0
 439 24 432 15 422 10 c 0
 408 2 362 -10 308 -10 c 0
 153 -10 72 96 72 237 c 0
 72 257 75 278 78 300 c 0xb0
EndSplineSet
Colour: ffff00
EndChar

StartChar: uni0E54
Encoding: 3668 3668 81
Width: 760
VWidth: 0
Flags: W
HStem: 0 180<353.657 455.194 629 691.18> 440 180<398.659 574.58>
VStem: 74 260<196.646 366.244>
LayerCount: 2
Fore
SplineSet
78 300 m 0
 106 477 248 620 468 620 c 0
 556 620 609 652 628 710 c 0
 635 732 653 750 675 750 c 2
 824 750 l 2
 844 750 858 735 858 716 c 0
 858 714 857 712 857 710 c 0
 832 550 669 440 480 440 c 0
 395 440 351 380 338 300 c 0
 336 286 334 274 334 263 c 0
 334 205 364 180 419 180 c 2
 449 180 l 1
 455 218 474 250 493 270 c 0
 509 286 528 300 548 300 c 2
 673 300 l 2
 689 300 691 294 690 287 c 0
 689 280 682 274 678 270 c 0
 658 247 634 213 629 180 c 1
 679 180 l 2
 699 180 713 165 713 146 c 0
 713 144 712 142 712 140 c 2
 696 40 l 2
 693 18 672 0 650 0 c 2
 390 0 l 2
 191 0 74 101 74 251 c 0
 74 267 75 283 78 300 c 0
EndSplineSet
Colour: ffff00
EndChar

StartChar: uni0E55
Encoding: 3669 3669 82
Width: 760
VWidth: 0
Flags: W
HStem: 0 180<353.657 455.194 629 691.18> 440 140<406.472 486.494> 670 90<411.486 492.545>
VStem: 74 260<196.646 366.144> 297 106<582.215 659.553> 495 106<613.705 667.938>
LayerCount: 2
Fore
SplineSet
404 625 m 0xec
 404 623 403 620 403 618 c 0
 403 596 419 580 442 580 c 0
 467 580 490 600 494 625 c 0
 494 627 495 630 495 632 c 0
 495 654 479 670 456 670 c 0
 431 670 408 650 404 625 c 0xec
78 300 m 0
 99 432 183 523 305 561 c 1
 300 573 297 588 297 603 c 0xec
 297 610 298 617 299 625 c 0
 311 702 382 760 470 760 c 0
 550 760 601 713 601 647 c 0
 601 640 600 632 599 625 c 0
 598 621 598 617 597 613 c 1
 629 635 648 667 660 710 c 0
 666 732 685 750 707 750 c 2
 824 750 l 2
 844 750 858 735 858 716 c 0
 858 714 857 712 857 710 c 1
 814 554 682 440 480 440 c 0
 395 440 351 380 338 300 c 0
 336 286 334 274 334 263 c 0
 334 205 364 180 419 180 c 2
 449 180 l 1
 455 218 474 250 493 270 c 0
 509 286 528 300 548 300 c 2
 673 300 l 2
 689 300 691 294 690 287 c 0
 689 280 682 274 678 270 c 0
 658 247 634 213 629 180 c 1
 679 180 l 2
 699 180 713 165 713 146 c 0
 713 144 712 142 712 140 c 2
 696 40 l 2
 693 18 672 0 650 0 c 2
 390 0 l 2
 191 0 74 101 74 251 c 0xf4
 74 267 75 283 78 300 c 0
EndSplineSet
Colour: ffff00
EndChar

StartChar: uni0E56
Encoding: 3670 3670 83
Width: 760
VWidth: 0
Flags: W
HStem: -20 180<347.978 460.078> 440 180<382.552 493.95>
VStem: 67 270<106 244.476> 521 261<227.79 412.037>
LayerCount: 2
Fore
SplineSet
127 710 m 0
 130 732 152 750 174 750 c 2
 322 750 l 2
 344 750 354 732 355 710 c 0
 356 652 383 620 488 620 c 0
 683 620 782 507 782 358 c 0
 782 339 781 320 778 300 c 0
 750 123 587 -20 367 -20 c 0
 189 -20 67 54 67 158 c 0
 67 165 68 173 69 180 c 0
 80 250 125 300 208 300 c 2
 318 300 l 2
 331 300 346 295 346 276 c 0
 346 274 346 272 346 270 c 0
 345 266 340 249 339 244 c 0
 338 237 337 230 337 224 c 0
 337 187 355 160 395 160 c 0
 461 160 505 217 518 300 c 0
 520 313 521 324 521 336 c 0
 521 397 491 440 420 440 c 0
 213 440 123 519 123 653 c 0
 123 671 124 690 127 710 c 0
EndSplineSet
Colour: ffff00
EndChar

StartChar: uni0E57
Encoding: 3671 3671 84
Width: 1105
VWidth: 0
Flags: W
HStem: -10 190<351.75 421.32> 0 21G<560 840> 590 10G<300.5 405.5 642 825 954 1125>
VStem: 72 261<198.005 349.271>
LayerCount: 2
Fore
SplineSet
78 300 m 0xb0
 105 470 224 610 377 610 c 0
 434 610 447 570 447 570 c 1
 502 452 l 1
 501 450 l 1
 592 560 l 2
 611 584 629 600 655 600 c 2
 815 600 l 2
 835 600 849 585 849 566 c 0
 849 564 849 562 849 560 c 2
 789 183 l 1
 837 193 867 230 878 300 c 2
 919 560 l 2
 922 582 943 600 965 600 c 2
 1115 600 l 2
 1135 600 1149 585 1149 566 c 0
 1149 564 1149 562 1149 560 c 2
 1108 300 l 2
 1080 123 950 0 730 0 c 2
 570 0 l 2x70
 550 0 536 15 536 34 c 0
 536 36 536 38 536 40 c 2
 590 380 l 1
 546 320 l 2
 523 291 511 280 494 280 c 2
 474 280 l 1
 451 280 l 2
 434 280 426 291 413 320 c 2
 383 380 l 1
 360 361 341 324 334 280 c 0
 333 275 333 269 333 264 c 0
 333 221 361 180 399 180 c 0
 415 180 429 175 431 160 c 2
 441 55 l 1
 441 55 442 44 441 38 c 0
 439 24 432 15 422 10 c 0
 408 2 362 -10 308 -10 c 0
 153 -10 72 96 72 237 c 0
 72 257 75 278 78 300 c 0xb0
EndSplineSet
Colour: ffff00
EndChar

StartChar: uni0E58
Encoding: 3672 3672 85
Width: 820
VWidth: 0
Flags: W
HStem: -20 21G<258 316 538 599.5> 440 180<398.659 607.913>
VStem: 73 241<184.314 357.741> 599 232<185.906 275.301>
LayerCount: 2
Fore
SplineSet
78 300 m 0
 106 477 248 620 468 620 c 0
 608 620 638 652 657 710 c 0
 664 732 682 750 704 750 c 2
 874 750 l 2
 894 750 908 735 908 716 c 0
 908 714 907 712 907 710 c 0
 878 529 753 440 480 440 c 0
 395 440 331 380 318 300 c 0
 316 286 314 272 314 259 c 0
 314 224 323 197 342 180 c 1
 430 280 l 1
 430 280 445 300 463 300 c 2
 478 300 l 1
 493 300 l 2
 511 300 518 280 518 280 c 1
 572 185 l 1
 586 201 595 221 599 244 c 0
 600 249 599 266 600 270 c 0
 604 294 624 300 638 300 c 2
 728 300 l 2
 800 300 831 262 831 207 c 0
 831 198 830 189 829 180 c 0
 810 58 652 -20 547 -20 c 0
 529 -20 518 0 518 0 c 1
 449 120 l 1
 342 0 l 1
 342 0 325 -20 307 -20 c 0
 209 -20 73 78 73 247 c 0
 73 264 75 282 78 300 c 0
EndSplineSet
Colour: ffff00
EndChar

StartChar: uni0E59
Encoding: 3673 3673 86
Width: 880
VWidth: 0
Flags: W
HStem: 0 21G<530.5 692.5> 590 20G<359.5 511>
VStem: 70 262<175.286 356.495>
LayerCount: 2
Fore
SplineSet
74 280 m 0
 103 464 252 610 467 610 c 0
 555 610 595 600 595 600 c 1
 623 600 632 570 633 557 c 1
 646 482 l 1
 698 501 726 541 735 600 c 2
 752 710 l 2
 755 732 777 750 799 750 c 2
 949 750 l 2
 969 750 983 735 983 716 c 0
 983 714 982 712 982 710 c 2
 965 600 l 2
 942 452 840 335 678 300 c 1
 722 45 l 2
 723 40 725 29 724 25 c 0
 722 10 705 0 680 0 c 2
 545 0 l 2
 516 0 504 13 501 40 c 2
 448 430 l 1
 400 430 349 370 336 290 c 0
 333 273 332 258 332 245 c 0
 332 195 350 170 377 170 c 0
 393 170 408 165 410 150 c 2
 421 55 l 1
 421 55 422 44 421 38 c 0
 419 24 412 15 402 10 c 0
 388 2 342 -10 288 -10 c 0
 157 -10 70 87 70 225 c 0
 70 243 71 261 74 280 c 0
EndSplineSet
Colour: ffff00
EndChar

StartChar: uni0E5A
Encoding: 3674 3674 87
Width: 900
VWidth: 0
Flags: W
HStem: 0 21G<383 548 653 818> 290 170<201.5 366.991> 580 20G<144 295 497 642 747 912>
VStem: 95 224<413.744 584.424>
LayerCount: 2
Fore
SplineSet
635 30 m 2
 720 570 l 2
 723 586 739 600 755 600 c 2
 905 600 l 2
 919 600 930 589 930 575 c 0
 930 573 930 572 930 570 c 2
 845 30 l 2
 842 14 826 0 810 0 c 2
 660 0 l 2
 646 0 635 11 635 25 c 0
 635 27 635 28 635 30 c 2
98 490 m 1
 109 560 l 2
 112 582 133 600 155 600 c 2
 285 600 l 2
 305 600 319 585 319 566 c 0
 319 564 319 562 319 560 c 2
 316 540 l 2
 315 531 313 523 313 516 c 0
 313 474 336 460 363 460 c 0
 402 460 440 490 465 535 c 1
 470 570 l 2
 473 586 489 600 505 600 c 2
 635 600 l 2
 649 600 660 589 660 575 c 0
 660 573 660 572 660 570 c 2
 575 30 l 2
 572 14 556 0 540 0 c 2
 390 0 l 2
 376 0 365 11 365 25 c 0
 365 27 365 28 365 30 c 2
 415 349 l 1
 379 317 326 290 256 290 c 0
 147 290 95 365 95 454 c 0
 95 466 96 478 98 490 c 1
EndSplineSet
Colour: ffff00
EndChar

StartChar: uni0E5B
Encoding: 3675 3675 88
Width: 1110
VWidth: 0
Flags: W
HStem: -20 80<257.643 477.165> 150 300<334.337 460.663> 260 80<1032 1125.09> 540 80<326.407 542.474>
VStem: 73 91<152.725 371.944> 702 86<453.021 539.993>
LayerCount: 2
Fore
SplineSet
248 300 m 0xdc
 261 383 338 450 421 450 c 0
 496 450 549 396 549 324 c 0
 549 316 549 308 548 300 c 0
 535 217 457 150 374 150 c 0
 299 150 246 204 246 276 c 0
 246 284 247 292 248 300 c 0xdc
78 300 m 0
 106 477 259 620 448 620 c 0
 536 620 594 592 641 545 c 0
 644 541 647 536 646 530 c 0
 645 525 644 519 640 515 c 2
 609 485 l 2
 604 480 601 480 596 480 c 0
 591 480 586 482 582 485 c 0
 547 519 499 540 436 540 c 0
 299 540 189 433 168 300 c 0
 166 285 164 271 164 257 c 0
 164 145 238 60 360 60 c 0
 511 60 601 158 648 300 c 0
 670 366 690 448 702 520 c 0
 704 531 715 540 726 540 c 2
 771 540 l 2
 782 540 786 532 788 520 c 2
 826 217 l 1
 927 430 l 2
 933 442 940 450 951 450 c 2
 993 450 l 2xdc
 1004 450 1009 442 1011 430 c 2
 1032 340 l 1
 1114 340 l 2
 1125 340 1133 331 1131 320 c 2
 1124 280 l 2
 1122 269 1112 260 1101 260 c 2
 994 260 l 2xbc
 983 260 978 268 976 280 c 2
 960 349 l 1
 853 110 l 2
 847 98 840 90 829 90 c 2
 779 90 l 2
 768 90 763 98 761 110 c 2
 734 322 l 1
 732 314 730 307 728 300 c 0
 670 108 548 -20 347 -20 c 0
 178 -20 73 94 73 245 c 0
 73 263 75 281 78 300 c 0
EndSplineSet
Colour: ffff00
EndChar

StartChar: o
Encoding: 111 111 91
Width: 760
VWidth: 0
Flags: W
HStem: -20 210<355.533 474.614> 410 210<380.634 499.467>
VStem: 73 262<206.534 359.603> 520 262<240.397 393.466>
LayerCount: 2
Fore
SplineSet
338 300 m 0
 337 291 335 282 335 274 c 0
 335 224 361 190 410 190 c 0
 467 190 508 237 518 300 c 0
 519 309 520 318 520 326 c 0
 520 376 494 410 445 410 c 0
 388 410 348 363 338 300 c 0
78 300 m 0
 106 477 264 620 478 620 c 0
 670 620 782 504 782 352 c 0
 782 335 781 318 778 300 c 0
 750 123 591 -20 377 -20 c 0
 185 -20 73 96 73 248 c 0
 73 265 75 282 78 300 c 0
EndSplineSet
Colour: ffff00
EndChar

StartChar: c
Encoding: 99 99 92
Width: 650
VWidth: 0
Flags: W
HStem: -20 200<281 547.953> 420 200<417.517 623.876>
VStem: 73 283<211.15 358.447>
LayerCount: 2
Fore
SplineSet
78 300 m 0
 106 477 264 620 478 620 c 0
 601 620 656 587 672 580 c 0
 689 573 706 560 706 544 c 0
 706 530 697 519 691 510 c 2
 637 420 l 2
 630 408 622 395 608 395 c 0
 592 395 583 407 551 415 c 0
 538 418 521 420 497 420 c 0
 428 420 370 373 358 300 c 0
 357 292 356 284 356 277 c 0
 356 217 397 180 459 180 c 0
 483 180 501 182 514 185 c 0
 548 193 561 205 577 205 c 0
 591 205 596 192 599 180 c 2
 624 90 l 2
 627 81 632 72 630 60 c 0
 627 42 603 28 583 20 c 0
 565 13 500 -20 377 -20 c 0
 185 -20 73 96 73 248 c 0
 73 265 75 282 78 300 c 0
EndSplineSet
Colour: ffff00
EndChar

StartChar: l
Encoding: 108 108 93
Width: 400
VWidth: 0
Flags: W
HStem: -10 850<193.55 342.232>
VStem: 74 393
LayerCount: 2
Fore
SplineSet
76 100 m 2
 187 800 l 2
 190 822 211 840 233 840 c 2
 433 840 l 2
 453 840 467 825 467 806 c 0
 467 804 467 802 467 800 c 2
 343 20 l 2
 341 7 336 2 325 0 c 1
 325 0 260 -10 198 -10 c 0
 102 -10 74 24 74 74 c 0
 74 82 75 91 76 100 c 2
EndSplineSet
Colour: ffff00
EndChar

StartChar: u
Encoding: 117 117 94
Width: 775
VWidth: 0
Flags: W
HStem: -10 210<206 424.5> 0 21G<495 696> 580 20G<169 390 569 790>
VStem: 76 290<113 358.438>
LayerCount: 2
Fore
SplineSet
814 560 m 2xb0
 731 40 l 2
 728 18 707 0 685 0 c 2
 505 0 l 2x70
 485 0 471 15 471 34 c 0
 471 36 471 38 471 40 c 2
 481 102 l 1
 446 56 376 -10 263 -10 c 0
 149 -10 76 55 76 171 c 0
 76 186 77 203 80 220 c 2
 134 560 l 2
 137 582 158 600 180 600 c 2
 380 600 l 2
 400 600 414 585 414 566 c 0
 414 564 414 562 414 560 c 2
 369 280 l 2
 367 267 366 255 366 246 c 0
 366 211 380 200 407 200 c 0
 442 200 468 226 487 267 c 1
 534 560 l 2
 537 582 558 600 580 600 c 2
 780 600 l 2
 800 600 814 585 814 566 c 0
 814 564 814 562 814 560 c 2xb0
EndSplineSet
Colour: ffff00
EndChar

StartChar: a
Encoding: 97 97 95
Width: 740
VWidth: 0
Flags: W
HStem: -10 140<183 397> 0 21G<480 671> 230 140<236 433.717> 440 180<250.861 566.816>
VStem: 56 272<136.118 219.023> 488 275<312.523 487.601>
LayerCount: 2
Fore
SplineSet
329 180 m 0xbc
 328 177 328 174 328 171 c 0
 328 143 352 130 381 130 c 0
 413 130 434 138 454 152 c 1
 463 208 l 1
 447 222 428 230 396 230 c 0
 364 230 335 215 329 180 c 0xbc
59 180 m 0
 76 288 163 370 309 370 c 0
 406 370 456 335 479 311 c 1
 487 360 l 2
 488 365 488 370 488 375 c 0
 488 425 441 440 370 440 c 0
 321 440 259 427 226 415 c 0
 212 410 187 400 174 400 c 0
 159 400 157 418 154 430 c 2
 136 510 l 1
 136 510 133 522 135 535 c 0
 137 550 143 558 159 565 c 0
 172 570 292 620 468 620 c 0
 660 620 763 553 763 419 c 0
 763 404 762 387 759 370 c 2
 706 40 l 2
 703 18 682 0 660 0 c 2
 490 0 l 2x7c
 470 0 456 15 456 34 c 0
 456 36 456 38 456 40 c 2
 461 70 l 1
 461 70 394 -10 248 -10 c 0
 118 -10 56 55 56 146 c 0
 56 157 57 168 59 180 c 0
EndSplineSet
Substitution2: "'aalt' Latin Access All Alternates" a.alt
Substitution2: "'ss20' Latin a & g alt" a.alt
Substitution2: "'ss19' Latin a alt" a.alt
Colour: ffff00
EndChar

StartChar: d
Encoding: 100 100 96
Width: 800
VWidth: 0
Flags: W
HStem: -10 190<239.5 448> 0 21G<520 711> 420 190<405.897 513.726> 820 20G<632 843>
VStem: 73 282<200.075 364.123>
LayerCount: 2
Fore
SplineSet
358 300 m 0xb8
 356 289 355 279 355 269 c 0
 355 210 388 180 429 180 c 0
 467 180 490 198 506 228 c 1
 529 372 l 1
 523 402 505 420 467 420 c 0
 419 420 371 380 358 300 c 0xb8
78 300 m 0
 105 471 239 610 417 610 c 0
 484 610 527 583 556 544 c 1
 597 800 l 2
 600 822 621 840 643 840 c 2
 833 840 l 2
 853 840 867 825 867 806 c 0
 867 804 867 802 867 800 c 2
 746 40 l 2
 743 18 722 0 700 0 c 2
 530 0 l 2x78
 510 0 496 15 496 34 c 0
 496 36 496 38 496 40 c 2
 503 82 l 1
 460 29 399 -10 318 -10 c 0
 161 -10 73 98 73 241 c 0
 73 260 75 280 78 300 c 0
EndSplineSet
Colour: ffff00
EndChar

StartChar: b
Encoding: 98 98 97
Width: 800
VWidth: 0
Flags: W
HStem: -10 190<380.201 489.604> 0 21G<90 281> 420 190<448 655.5> 820 20G<222 433>
LayerCount: 2
Fore
SplineSet
366 228 m 1xb0
 372 198 391 180 429 180 c 0
 477 180 525 220 538 300 c 0
 540 311 540 321 540 331 c 0
 540 390 508 420 467 420 c 0
 429 420 405 402 389 372 c 1
 366 228 l 1xb0
66 40 m 2
 187 800 l 2
 190 822 211 840 233 840 c 2
 423 840 l 2
 443 840 457 825 457 806 c 0
 457 804 457 802 457 800 c 2
 416 544 l 1
 457 583 510 610 577 610 c 0
 734 610 822 502 822 359 c 0
 822 340 821 320 818 300 c 0
 791 129 656 -10 478 -10 c 0xb0
 397 -10 350 29 323 82 c 1
 316 40 l 2
 313 18 292 0 270 0 c 2
 100 0 l 2x70
 80 0 66 15 66 34 c 0
 66 36 66 38 66 40 c 2
EndSplineSet
Colour: ffff00
EndChar

StartChar: e
Encoding: 101 101 98
Width: 730
VWidth: 0
Flags: W
HStem: -20 180<358.506 543.996> 240 110<339 516.999> 440 180<380.925 502.438>
VStem: 517 238<350.234 427.826>
LayerCount: 2
Fore
SplineSet
339 350 m 1
 515 350 l 1
 516 357 517 363 517 370 c 0
 517 411 495 440 450 440 c 0
 399 440 360 409 339 350 c 1
78 300 m 0
 106 477 264 620 478 620 c 0
 634 620 755 538 755 377 c 0
 755 359 754 340 751 320 c 0
 744 275 729 240 698 240 c 2
 328 240 l 1
 338 189 377 160 445 160 c 0
 494 160 524 167 537 170 c 0
 571 178 584 190 600 190 c 0
 614 190 618 177 621 165 c 2
 641 100 l 2
 644 91 648 82 646 70 c 0
 643 52 620 41 600 30 c 0
 581 20 507 -20 377 -20 c 0
 185 -20 73 96 73 248 c 0
 73 265 75 282 78 300 c 0
EndSplineSet
Colour: ffff00
EndChar

StartChar: q
Encoding: 113 113 99
Width: 800
VWidth: 0
Flags: W
HStem: -10 190<239.5 448> 420 190<405.897 514.574> 580 20G<614 805>
VStem: 73 282<200.075 364.123>
LayerCount: 2
Fore
SplineSet
358 300 m 0xd0
 356 289 355 279 355 269 c 0
 355 210 388 180 429 180 c 0
 467 180 490 198 506 228 c 1
 529 372 l 1
 523 402 505 420 467 420 c 0
 419 420 371 380 358 300 c 0xd0
78 300 m 0
 105 471 239 610 417 610 c 0xd0
 498 610 545 571 572 518 c 1
 579 560 l 2
 582 582 603 600 625 600 c 2
 795 600 l 2xb0
 815 600 829 585 829 566 c 0
 829 564 829 562 829 560 c 2
 708 -200 l 2
 705 -222 684 -240 662 -240 c 2
 472 -240 l 2
 452 -240 438 -225 438 -206 c 0
 438 -204 438 -202 438 -200 c 2
 479 56 l 1
 438 17 385 -10 318 -10 c 0
 161 -10 73 98 73 241 c 0
 73 260 75 280 78 300 c 0
EndSplineSet
Colour: ffff00
EndChar

StartChar: p
Encoding: 112 112 100
Width: 800
VWidth: 0
Flags: W
HStem: -10 190<381.466 489.604> 420 190<448 655.5> 580 20G<184 375>
LayerCount: 2
Fore
SplineSet
366 228 m 1xc0
 372 198 391 180 429 180 c 0
 477 180 525 220 538 300 c 0
 540 311 540 321 540 331 c 0
 540 390 508 420 467 420 c 0
 429 420 405 402 389 372 c 1
 366 228 l 1xc0
28 -200 m 2
 149 560 l 2
 152 582 173 600 195 600 c 2
 365 600 l 2xa0
 385 600 399 585 399 566 c 0
 399 564 399 562 399 560 c 2
 392 518 l 1
 435 571 496 610 577 610 c 0
 734 610 822 502 822 359 c 0
 822 340 821 320 818 300 c 0
 791 129 656 -10 478 -10 c 0
 411 -10 368 17 339 56 c 1
 298 -200 l 2
 295 -222 274 -240 252 -240 c 2
 62 -240 l 2
 42 -240 28 -225 28 -206 c 0
 28 -204 28 -202 28 -200 c 2
EndSplineSet
Colour: ffff00
EndChar

StartChar: n
Encoding: 110 110 101
Width: 775
VWidth: 0
Flags: W
HStem: 0 21G<80 301 480 701> 400 210<445.5 664> 580 20G<174 375>
VStem: 504 290<241.562 487>
LayerCount: 2
Fore
SplineSet
56 40 m 2xd0
 139 560 l 2
 142 582 163 600 185 600 c 2
 365 600 l 2xb0
 385 600 399 585 399 566 c 0
 399 564 399 562 399 560 c 2
 389 498 l 1
 424 544 494 610 607 610 c 0
 721 610 794 545 794 429 c 0
 794 414 793 397 790 380 c 2
 736 40 l 2
 733 18 712 0 690 0 c 2
 490 0 l 2
 470 0 456 15 456 34 c 0
 456 36 456 38 456 40 c 2
 501 320 l 2
 503 333 504 345 504 354 c 0
 504 389 490 400 463 400 c 0
 428 400 402 374 383 333 c 1
 336 40 l 2
 333 18 312 0 290 0 c 2
 90 0 l 2
 70 0 56 15 56 34 c 0
 56 36 56 38 56 40 c 2xd0
EndSplineSet
Colour: ffff00
EndChar

StartChar: h
Encoding: 104 104 102
Width: 785
VWidth: 0
Flags: W
HStem: 0 21G<90 311 490 711> 400 210<455.5 674> 820 20G<222 433>
VStem: 514 290<241.562 487>
LayerCount: 2
Fore
SplineSet
66 40 m 2
 187 800 l 2
 190 822 211 840 233 840 c 2
 423 840 l 2
 443 840 457 825 457 806 c 0
 457 804 457 802 457 800 c 2
 411 513 l 1
 449 558 516 610 617 610 c 0
 731 610 804 545 804 429 c 0
 804 414 803 397 800 380 c 2
 746 40 l 2
 743 18 722 0 700 0 c 2
 500 0 l 2
 480 0 466 15 466 34 c 0
 466 36 466 38 466 40 c 2
 511 320 l 2
 513 333 514 345 514 354 c 0
 514 389 500 400 473 400 c 0
 438 400 412 374 393 333 c 1
 346 40 l 2
 343 18 322 0 300 0 c 2
 100 0 l 2
 80 0 66 15 66 34 c 0
 66 36 66 38 66 40 c 2
EndSplineSet
Colour: ffff00
EndChar

StartChar: s
Encoding: 115 115 103
Width: 630
VWidth: 0
Flags: W
HStem: -20 155<184.639 343.179> 465 155<383.598 546.131>
VStem: 103 276<343.5 457.961> 346 286<139.637 259.5>
LayerCount: 2
Fore
SplineSet
105 410 m 0xe0
 125 537 251 620 418 620 c 0
 551 620 618 583 636 575 c 0
 653 568 666 556 666 543 c 0
 666 531 658 520 651 510 c 2
 610 445 l 2
 603 433 593 425 582 425 c 0
 571 425 559 433 545 440 c 0
 514 455 481 465 444 465 c 0
 408 465 379 457 379 432 c 0xe0
 379 415 400 405 423 395 c 0
 444 386 482 370 507 360 c 0
 559 339 632 302 632 217 c 0
 632 209 631 200 630 191 c 0
 607 45 453 -20 307 -20 c 0
 185 -20 97 20 79 28 c 0
 63 35 55 45 55 59 c 0
 55 61 55 63 55 65 c 0
 57 77 66 91 71 100 c 2
 110 160 l 2
 117 172 124 183 139 183 c 0
 153 183 169 167 190 158 c 0
 216 146 255 135 286 135 c 0
 319 135 346 143 346 169 c 0xd0
 346 185 328 195 302 205 c 0
 279 214 244 228 218 240 c 0
 169 263 103 303 103 384 c 0
 103 392 104 401 105 410 c 0xe0
EndSplineSet
Colour: ffff00
EndChar

StartChar: i
Encoding: 105 105 104
Width: 400
VWidth: 0
Flags: W
HStem: 0 21G<90 311> 580 20G<184 405> 660 180<209.24 428.082>
VStem: 66 382
LayerCount: 2
Fore
SplineSet
189 690 m 2
 208 810 l 2
 211 826 227 840 243 840 c 2
 423 840 l 2
 437 840 448 829 448 815 c 0
 448 813 448 812 448 810 c 2
 429 690 l 2
 426 674 411 660 395 660 c 2
 215 660 l 2
 201 660 189 671 189 685 c 0
 189 687 189 688 189 690 c 2
66 40 m 2
 149 560 l 2
 152 582 173 600 195 600 c 2
 395 600 l 2
 415 600 429 585 429 566 c 0
 429 564 429 562 429 560 c 2
 346 40 l 2
 343 18 322 0 300 0 c 2
 100 0 l 2
 80 0 66 15 66 34 c 0
 66 36 66 38 66 40 c 2
EndSplineSet
Colour: ffff00
EndChar

StartChar: z
Encoding: 122 122 105
Width: 680
VWidth: 0
Flags: W
HStem: 0 160<395 653.796> 440 160<141.204 380>
LayerCount: 2
Fore
SplineSet
35 30 m 2
 48 115 l 2
 52 142 77 161 87 170 c 2
 380 440 l 1
 150 440 l 2
 136 440 124 451 124 465 c 0
 124 467 124 468 124 470 c 2
 140 570 l 2
 143 586 159 600 175 600 c 2
 695 600 l 2
 708 600 721 592 721 576 c 0
 721 574 720 572 720 570 c 2
 706 480 l 2
 702 453 677 434 667 425 c 2
 395 160 l 1
 645 160 l 2
 659 160 671 149 671 135 c 0
 671 133 671 132 671 130 c 2
 655 30 l 2
 652 14 636 0 620 0 c 2
 60 0 l 2
 47 0 34 8 34 24 c 0
 34 26 35 28 35 30 c 2
EndSplineSet
Colour: ffff00
EndChar

StartChar: g
Encoding: 103 103 106
Width: 680
VWidth: 0
Flags: W
HStem: -280 150<71.9602 322.212> 160 150<332.871 411.445> 450 150<673 764.812> 470 150<351.838 429.742>
VStem: 68 185<-5 146.5> 89 240<313.185 451.085> 324 299<-112.781 11> 434 241<328.915 449.324>
LayerCount: 2
Fore
SplineSet
332 390 m 0xd5
 331 381 329 372 329 363 c 0
 329 333 340 310 369 310 c 0
 407 310 425 348 432 390 c 0
 433 399 434 408 434 417 c 0
 434 447 423 470 394 470 c 0
 356 470 339 432 332 390 c 0xd5
92 390 m 0
 114 528 238 620 418 620 c 0xd4
 499 620 564 601 608 568 c 1
 633 590 l 2
 639 595 646 600 655 600 c 2
 755 600 l 2
 769 600 780 589 780 575 c 0
 780 573 780 572 780 570 c 2
 766 480 l 2
 763 464 747 450 731 450 c 2
 673 450 l 1
 674 442 675 434 675 426 c 0xe5
 675 414 674 402 672 390 c 0
 650 252 525 160 345 160 c 0
 316 160 290 162 266 167 c 1
 258 158 253 152 253 141 c 0
 253 124 271 120 309 120 c 2
 409 120 l 2
 551 120 623 55 623 -33 c 0
 623 -42 621 -51 620 -60 c 0
 597 -203 472 -280 276 -280 c 0
 127 -280 86 -267 45 -255 c 0
 28 -250 10 -240 10 -224 c 0
 10 -211 19 -195 19 -195 c 1
 59 -120 l 2
 63 -111 70 -100 84 -100 c 0
 104 -100 110 -110 146 -120 c 0
 167 -126 206 -130 229 -130 c 0
 294 -130 324 -123 324 -101 c 0
 324 -88 312 -80 287 -80 c 2
 222 -80 l 2
 143 -80 68 -46 68 36 c 0xea
 68 43 69 52 70 60 c 0
 80 120 119 168 172 202 c 1
 118 235 89 287 89 352 c 0
 89 364 90 377 92 390 c 0
EndSplineSet
Substitution2: "'aalt' Latin Access All Alternates" g.alt
Substitution2: "'ss20' Latin a & g alt" g.alt
Substitution2: "'ss18' Latin g alt" g.alt
Colour: ffff00
EndChar

StartChar: f
Encoding: 102 102 107
Width: 540
VWidth: 0
Flags: W
HStem: 0 21G<130 341> 440 160<121.204 170 455 573.082> 690 180<474.496 625.935>
LayerCount: 2
Fore
SplineSet
104 470 m 2
 120 570 l 2
 123 586 139 600 155 600 c 2
 205 600 l 1
 213 650 l 2
 237 803 359 870 488 870 c 0
 581 870 638 841 664 825 c 0
 674 819 677 813 677 804 c 0
 677 802 676 800 676 798 c 0
 675 792 672 784 669 780 c 2
 609 690 l 2
 602 680 593 674 578 680 c 0
 567 685 548 690 529 690 c 0
 499 690 467 677 460 630 c 2
 455 600 l 1
 565 600 l 2
 579 600 590 589 590 575 c 0
 590 573 590 572 590 570 c 2
 574 470 l 2
 571 454 556 440 540 440 c 2
 440 440 l 1
 376 40 l 2
 373 18 352 0 330 0 c 2
 140 0 l 2
 120 0 106 15 106 34 c 0
 106 36 106 38 106 40 c 2
 170 440 l 1
 130 440 l 2
 116 440 104 451 104 465 c 0
 104 467 104 468 104 470 c 2
EndSplineSet
Colour: ffff00
EndChar

StartChar: t
Encoding: 116 116 108
Width: 530
VWidth: 0
Flags: W
HStem: -20 190<241 449.269> 440 160<111.204 160 445 563.082>
VStem: 117 279<87 334.375>
LayerCount: 2
Fore
SplineSet
94 470 m 2
 110 570 l 2
 113 586 129 600 145 600 c 2
 195 600 l 1
 217 740 l 2
 220 762 242 780 264 780 c 2
 434 780 l 2
 454 780 468 765 468 746 c 0
 468 744 467 742 467 740 c 2
 445 600 l 1
 555 600 l 2
 569 600 580 589 580 575 c 0
 580 573 580 572 580 570 c 2
 564 470 l 2
 561 454 546 440 530 440 c 2
 430 440 l 1
 398 240 l 2
 397 233 396 226 396 220 c 0
 396 184 416 170 437 170 c 0
 454 170 467 174 479 180 c 0
 489 185 499 195 506 195 c 0
 514 195 515 187 517 179 c 2
 534 87 l 2
 535 79 536 71 535 65 c 0
 533 55 521 45 511 39 c 0
 464 9 407 -20 297 -20 c 0
 185 -20 117 30 117 144 c 0
 117 161 119 180 122 200 c 2
 160 440 l 1
 120 440 l 2
 106 440 94 451 94 465 c 0
 94 467 94 468 94 470 c 2
EndSplineSet
Colour: ffff00
EndChar

StartChar: r
Encoding: 114 114 109
Width: 520
VWidth: 0
Flags: W
HStem: 0 21G<90 311> 399 206<482.917 567.781>
LayerCount: 2
Fore
SplineSet
66 40 m 2
 149 560 l 2
 152 582 173 600 195 600 c 2
 375 600 l 2
 395 600 409 585 409 566 c 0
 409 564 409 562 409 560 c 2
 400 503 l 1
 440 556 499 605 571 605 c 0
 586 605 592 600 592 587 c 0
 592 585 592 583 592 580 c 2
 567 420 l 2
 565 406 561 399 553 399 c 0
 543 399 538 405 514 405 c 0
 460 405 421 379 393 335 c 1
 346 40 l 2
 343 18 322 0 300 0 c 2
 100 0 l 2
 80 0 66 15 66 34 c 0
 66 36 66 38 66 40 c 2
EndSplineSet
Colour: ffff00
EndChar

StartChar: m
Encoding: 109 109 110
Width: 1105
VWidth: 0
Flags: W
HStem: 0 21G<80 291 450 661 820 1031> 410 200<430 629 800 1008.5> 580 20G<174 375>
VStem: 846 280<253.125 497.5>
LayerCount: 2
Fore
SplineSet
56 40 m 2xd0
 139 560 l 2
 142 582 163 600 185 600 c 2
 365 600 l 2xb0
 385 600 399 585 399 566 c 0
 399 564 399 562 399 560 c 2
 391 513 l 1
 429 558 494 610 587 610 c 0
 671 610 731 573 750 499 c 1
 785 545 854 610 957 610 c 0
 1060 610 1126 553 1126 442 c 0
 1126 426 1125 409 1122 390 c 2
 1066 40 l 2
 1063 18 1042 0 1020 0 c 2
 830 0 l 2
 810 0 796 15 796 34 c 0
 796 36 796 38 796 40 c 2
 842 330 l 2
 844 345 846 357 846 367 c 0
 846 399 835 410 815 410 c 0
 785 410 766 385 745 349 c 1
 696 40 l 2
 693 18 672 0 650 0 c 2
 460 0 l 2
 440 0 426 15 426 34 c 0
 426 36 426 38 426 40 c 2
 472 330 l 2
 474 345 476 357 476 367 c 0
 476 399 465 410 445 410 c 0
 415 410 396 385 375 349 c 1
 326 40 l 2
 323 18 302 0 280 0 c 2
 90 0 l 2
 70 0 56 15 56 34 c 0
 56 36 56 38 56 40 c 2xd0
EndSplineSet
Colour: ffff00
EndChar

StartChar: j
Encoding: 106 106 111
Width: 400
VWidth: 0
Flags: W
HStem: 580 20G<184 405> 660 180<209.24 428.082>
LayerCount: 2
Fore
SplineSet
189 690 m 2
 208 810 l 2
 211 826 227 840 243 840 c 2
 423 840 l 2
 437 840 448 829 448 815 c 0
 448 813 448 812 448 810 c 2
 429 690 l 2
 426 674 411 660 395 660 c 2
 215 660 l 2
 201 660 189 671 189 685 c 0
 189 687 189 688 189 690 c 2
25 -220 m 2
 149 560 l 2
 152 582 173 600 195 600 c 2
 395 600 l 2
 415 600 429 585 429 566 c 0
 429 564 429 562 429 560 c 2
 318 -140 l 2
 308 -204 272 -250 160 -250 c 0
 98 -250 37 -240 37 -240 c 1
 28 -238 25 -235 25 -227 c 0
 25 -225 25 -222 25 -220 c 2
EndSplineSet
Colour: ffff00
EndChar

StartChar: k
Encoding: 107 107 112
Width: 770
VWidth: 0
Flags: W
HStem: 0 21G<90 301 490.5 727.5> 580 20G<578.5 799.5> 820 20G<222 433>
LayerCount: 2
Fore
SplineSet
66 40 m 2
 187 800 l 2
 190 822 211 840 233 840 c 2
 423 840 l 2
 443 840 457 825 457 806 c 0
 457 804 457 802 457 800 c 2
 392 390 l 1
 432 390 l 1
 532 560 l 2
 547 587 564 600 593 600 c 2
 788 600 l 2
 811 600 824 591 824 578 c 0
 824 571 822 566 817 560 c 2
 639 310 l 1
 756 40 l 2
 758 35 760 29 759 25 c 0
 757 10 740 0 715 0 c 2
 505 0 l 2
 476 0 464 13 456 40 c 2
 403 210 l 1
 363 210 l 1
 336 40 l 2
 333 18 312 0 290 0 c 2
 100 0 l 2
 80 0 66 15 66 34 c 0
 66 36 66 38 66 40 c 2
EndSplineSet
Colour: ffff00
EndChar

StartChar: exclam
Encoding: 33 33 113
Width: 400
VWidth: 0
Flags: W
HStem: 0 200<108.052 323.948> 820 20G<222 443>
VStem: 85 380
LayerCount: 2
Fore
SplineSet
85 30 m 2
 107 170 l 2
 110 186 126 200 142 200 c 2
 322 200 l 2
 336 200 347 189 347 175 c 0
 347 173 347 172 347 170 c 2
 325 30 l 2
 322 14 306 0 290 0 c 2
 110 0 l 2
 96 0 85 11 85 25 c 0
 85 27 85 28 85 30 c 2
189 800 m 1
 192 822 211 840 233 840 c 2
 433 840 l 2
 453 840 465 826 465 807 c 0
 465 805 465 802 465 800 c 1
 361 310 l 1
 358 288 338 270 316 270 c 2
 170 270 l 2
 150 270 137 284 137 303 c 0
 137 305 137 308 137 310 c 1
 189 800 l 1
EndSplineSet
Colour: ffff00
EndChar

StartChar: quotedbl
Encoding: 34 34 114
Width: 580
VWidth: 0
Flags: W
HStem: 480 360<173.031 304.065 443.031 574.065>
LayerCount: 2
Fore
SplineSet
442 810 m 1
 445 826 461 840 477 840 c 2
 639 840 l 2
 653 840 664 829 664 815 c 0
 664 813 664 812 664 810 c 1
 575 510 l 1
 572 494 556 480 540 480 c 2
 462 480 l 2
 448 480 437 491 437 505 c 0
 437 507 437 508 437 510 c 1
 442 810 l 1
172 810 m 1
 175 826 191 840 207 840 c 2
 369 840 l 2
 383 840 394 829 394 815 c 0
 394 813 394 812 394 810 c 1
 305 510 l 1
 302 494 286 480 270 480 c 2
 192 480 l 2
 178 480 167 491 167 505 c 0
 167 507 167 508 167 510 c 1
 172 810 l 1
EndSplineSet
Colour: ffff00
EndChar

StartChar: numbersign
Encoding: 35 35 115
Width: 960
VWidth: 0
Flags: W
HStem: 0 21G<113 280.5 473 640.5> 180 180<83.2402 164 447 524 807 902.082> 480 180<190.935 286 570 646 930 1010.07> 820 20G<452.5 620 812.5 980>
LayerCount: 2
Fore
SplineSet
447 360 m 1
 597 360 l 1
 646 480 l 1
 496 480 l 1
 447 360 l 1
63 210 m 2
 82 330 l 2
 85 346 101 360 117 360 c 2
 237 360 l 1
 286 480 l 1
 196 480 l 2
 182 480 171 491 171 505 c 0
 171 507 171 508 171 510 c 2
 190 630 l 2
 193 646 209 660 225 660 c 2
 360 660 l 1
 420 810 l 2
 427 826 442 840 463 840 c 2
 613 840 l 2
 627 840 634 828 632 817 c 0
 632 815 631 812 630 810 c 2
 570 660 l 1
 720 660 l 1
 780 810 l 2
 787 826 802 840 823 840 c 2
 973 840 l 2
 987 840 994 828 992 817 c 0
 992 815 991 812 990 810 c 2
 930 660 l 1
 1005 660 l 2
 1019 660 1030 649 1030 635 c 0
 1030 633 1030 632 1030 630 c 2
 1011 510 l 2
 1008 494 992 480 976 480 c 2
 856 480 l 1
 807 360 l 1
 897 360 l 2
 911 360 922 349 922 335 c 0
 922 333 922 332 922 330 c 2
 903 210 l 2
 900 194 885 180 869 180 c 2
 734 180 l 1
 673 30 l 2
 666 14 651 0 630 0 c 2
 480 0 l 2
 466 0 459 12 461 23 c 0
 461 25 462 28 463 30 c 2
 524 180 l 1
 374 180 l 1
 313 30 l 2
 306 14 291 0 270 0 c 2
 120 0 l 2
 106 0 99 12 101 23 c 0
 101 25 102 28 103 30 c 2
 164 180 l 1
 89 180 l 2
 75 180 63 191 63 205 c 0
 63 207 63 208 63 210 c 2
EndSplineSet
Colour: ffff00
EndChar

StartChar: dollar
Encoding: 36 36 116
Width: 760
VWidth: 0
Flags: W
HStem: -120 310<282.624 451.291> 650 310<461.307 619.228>
LayerCount: 2
Fore
SplineSet
65 110 m 2
 164 245 l 2
 173 258 186 265 197 265 c 0
 207 265 215 262 225 255 c 0
 272 221 312 190 370 190 c 0
 414 190 451 197 456 230 c 0
 456 232 457 234 457 236 c 0
 457 261 431 271 414 280 c 0
 379 299 318 328 276 355 c 0
 217 393 140 448 140 553 c 0
 140 565 141 577 143 590 c 0
 166 738 284 814 409 844 c 1
 422 930 l 2
 425 946 441 960 457 960 c 2
 607 960 l 2
 621 960 632 949 632 935 c 0
 632 933 632 932 632 930 c 2
 620 854 l 1
 713 838 780 797 799 785 c 0
 811 778 820 769 820 758 c 0
 820 757 820 756 820 755 c 0
 818 745 814 739 808 730 c 2
 727 615 l 2
 718 602 705 595 694 595 c 0
 687 595 676 597 670 600 c 0
 630 626 587 650 533 650 c 0
 495 650 462 644 457 610 c 0
 457 608 456 607 456 605 c 0
 456 583 480 571 499 560 c 0
 549 532 565 524 609 500 c 0
 675 464 772 414 772 286 c 0
 772 272 771 256 768 240 c 0
 745 93 624 19 484 -8 c 1
 471 -90 l 2
 468 -106 452 -120 436 -120 c 2
 286 -120 l 2
 272 -120 261 -109 261 -95 c 0
 261 -93 261 -92 261 -90 c 2
 272 -16 l 1
 162 -2 97 39 74 55 c 0
 63 62 53 71 53 82 c 0
 53 94 58 101 65 110 c 2
EndSplineSet
Colour: ffff00
EndChar

StartChar: percent
Encoding: 37 37 117
Width: 1100
VWidth: 0
Flags: W
HStem: -20 150<828.452 914.24> 0 21G<150 288.5> 310 150<845.76 931.547> 380 150<301.453 387.24> 710 150<318.76 404.548> 820 20G<944.5 1082.5>
VStem: 125 166<535.589 680.13> 415 167<559.619 704.494> 651 167<135.506 280.381> 942 166<159.87 304.411>
LayerCount: 2
Fore
SplineSet
820 220 m 0xa3c0
 819 212 818 204 818 196 c 0
 818 158 834 130 866 130 c 0
 904 130 932 170 940 220 c 0
 941 228 942 236 942 244 c 0
 942 282 926 310 894 310 c 0
 856 310 828 270 820 220 c 0xa3c0
655 220 m 0
 676 353 784 460 918 460 c 0
 1037 460 1108 376 1108 264 c 0
 1108 250 1107 235 1105 220 c 0
 1084 87 976 -20 842 -20 c 0
 723 -20 651 64 651 176 c 0
 651 190 653 205 655 220 c 0
293 620 m 0
 292 612 291 604 291 596 c 0
 291 558 307 530 339 530 c 0
 377 530 405 570 413 620 c 0
 414 628 415 636 415 644 c 0
 415 682 399 710 367 710 c 0x1bc0
 329 710 301 670 293 620 c 0
137 13 m 0
 138 21 150 30 150 30 c 1
 903 810 l 2
 916 824 933 840 956 840 c 2
 1076 840 l 2
 1089 840 1096 836 1096 829 c 0
 1096 820 1083 810 1083 810 c 2
 330 30 l 2
 317 16 300 0 277 0 c 2
 157 0 l 2x47c0
 143 0 136 5 137 13 c 0
128 620 m 0
 149 753 257 860 391 860 c 0
 510 860 582 776 582 664 c 0
 582 650 580 635 578 620 c 0
 557 487 449 380 315 380 c 0x1bc0
 196 380 125 464 125 576 c 0
 125 590 126 605 128 620 c 0
EndSplineSet
Colour: ffff00
EndChar

StartChar: ampersand
Encoding: 38 38 118
Width: 870
VWidth: 0
Flags: W
HStem: -20 190<275 499.508> 690 170<470.009 559.377>
VStem: 71 266<111.5 286.783> 244 202<524.184 668.342> 568 193<562.031 684.256>
LayerCount: 2
Fore
SplineSet
447 610 m 1xd8
 446 604 446 599 446 594 c 0
 446 559 462 533 481 514 c 1
 521 536 561 572 567 610 c 0
 568 618 568 625 568 632 c 0
 568 667 552 690 519 690 c 0
 479 690 454 656 447 610 c 1xd8
338 240 m 0
 337 236 337 233 337 229 c 0xe8
 337 194 366 170 417 170 c 0
 446 170 477 181 511 199 c 1
 400 315 l 1
 372 300 344 277 338 240 c 0
73 210 m 0
 95 348 199 414 281 452 c 1
 261 483 244 523 244 573 c 0xd8
 244 585 245 597 247 610 c 0
 273 775 414 860 546 860 c 0
 664 860 761 792 761 659 c 0
 761 644 760 627 757 610 c 0
 743 521 669 449 593 402 c 1
 670 323 l 1
 707 361 736 396 736 396 c 1
 742 405 754 410 764 410 c 0
 769 410 774 409 778 406 c 2
 868 347 l 2
 875 343 878 334 878 326 c 0
 878 317 876 311 871 305 c 2
 871 305 833 258 786 207 c 1
 842 150 l 2
 848 144 851 136 850 127 c 0
 849 118 842 111 837 105 c 2
 741 4 l 2
 735 -3 727 -5 719 -5 c 0
 712 -5 700 -2 695 3 c 2
 633 69 l 1
 551 17 449 -20 347 -20 c 0
 203 -20 71 46 71 177 c 0
 71 188 71 198 73 210 c 0
EndSplineSet
Colour: ffff00
EndChar

StartChar: quotesingle
Encoding: 39 39 119
Width: 320
VWidth: 0
Flags: W
HStem: 480 360<173.031 314.065>
VStem: 167 237<781.685 836.612>
LayerCount: 2
Fore
SplineSet
172 810 m 1
 175 826 191 840 207 840 c 2
 379 840 l 2
 393 840 404 829 404 815 c 0
 404 813 404 812 404 810 c 1
 315 510 l 1
 312 494 296 480 280 480 c 2
 192 480 l 2
 178 480 167 491 167 505 c 0
 167 507 167 508 167 510 c 1
 172 810 l 1
EndSplineSet
Colour: ffff00
EndChar

StartChar: parenleft
Encoding: 40 40 120
Width: 480
VWidth: 0
Flags: W
VStem: 78 252<127.156 437.062>
LayerCount: 2
Fore
SplineSet
87 360 m 0
 130 634 312 800 454 876 c 0
 460 879 467 882 473 882 c 0
 482 882 490 878 495 871 c 2
 563 762 l 2
 565 758 566 753 566 748 c 0
 566 746 566 745 566 743 c 0
 565 735 559 726 551 720 c 0
 472 664 365 539 337 360 c 0
 332 331 330 303 330 277 c 0
 330 142 386 47 437 0 c 0
 443 -6 445 -15 444 -23 c 0
 443 -30 440 -36 435 -42 c 2
 333 -151 l 2
 326 -158 316 -162 307 -162 c 0
 301 -162 296 -159 290 -156 c 0
 188 -90 78 42 78 254 c 0
 78 287 81 323 87 360 c 0
EndSplineSet
Colour: ffff00
EndChar

StartChar: parenright
Encoding: 41 41 121
Width: 480
VWidth: 0
Flags: W
VStem: 264 252<282.938 592.844>
LayerCount: 2
Fore
SplineSet
507 360 m 0
 464 86 282 -80 140 -156 c 0
 134 -159 127 -162 121 -162 c 0
 112 -162 104 -158 99 -151 c 2
 31 -42 l 2
 29 -38 28 -33 28 -28 c 0
 28 -26 28 -25 28 -23 c 0
 29 -15 35 -6 43 0 c 0
 122 56 229 181 257 360 c 0
 262 389 264 417 264 443 c 0
 264 578 208 673 157 720 c 0
 151 726 149 735 150 743 c 0
 151 750 154 756 159 762 c 2
 261 871 l 2
 268 878 278 882 287 882 c 0
 293 882 298 879 304 876 c 0
 406 810 516 678 516 466 c 0
 516 433 513 397 507 360 c 0
EndSplineSet
Colour: ffff00
EndChar

StartChar: asterisk
Encoding: 42 42 122
Width: 660
VWidth: 0
Flags: W
HStem: 820 20G<381.5 544.5>
LayerCount: 2
Fore
SplineSet
143 583 m 2
 212 725 l 2
 217 735 224 743 234 743 c 0
 242 743 246 740 250 738 c 2
 370 660 l 1
 360 810 l 1
 360 810 360 815 361 820 c 0
 363 833 375 840 388 840 c 2
 538 840 l 2
 551 840 561 833 559 820 c 0
 558 815 556 810 556 810 c 1
 500 660 l 1
 644 738 l 2
 648 740 654 743 662 743 c 0
 672 743 677 735 678 725 c 2
 701 583 l 2
 701 581 702 578 702 576 c 0
 702 574 701 572 701 570 c 0
 699 559 686 554 675 552 c 2
 520 536 l 1
 619 434 l 2
 624 428 627 423 626 415 c 0
 624 405 619 401 612 396 c 2
 476 308 l 2
 470 304 464 302 458 302 c 0
 450 302 445 311 442 319 c 2
 403 460 l 1
 320 319 l 2
 315 311 306 302 298 302 c 0
 292 302 286 304 282 308 c 2
 174 396 l 2
 169 401 164 405 166 415 c 0
 167 423 172 428 179 434 c 2
 310 536 l 1
 159 552 l 2
 149 554 139 559 139 568 c 0
 139 573 141 578 143 583 c 2
EndSplineSet
Colour: ffff00
EndChar

StartChar: plus
Encoding: 43 43 123
Width: 640
VWidth: 0
Flags: W
HStem: 270 180<117.918 243 511 636.76> 580 20G<317 512>
LayerCount: 2
Fore
SplineSet
98 300 m 2
 117 420 l 2
 120 436 135 450 151 450 c 2
 271 450 l 1
 290 570 l 2
 293 586 309 600 325 600 c 2
 505 600 l 2
 519 600 530 589 530 575 c 0
 530 573 530 572 530 570 c 2
 511 450 l 1
 631 450 l 2
 645 450 657 439 657 425 c 0
 657 423 657 422 657 420 c 2
 638 300 l 2
 635 284 619 270 603 270 c 2
 483 270 l 1
 464 150 l 2
 461 134 445 120 429 120 c 2
 249 120 l 2
 235 120 224 131 224 145 c 0
 224 147 224 148 224 150 c 2
 243 270 l 1
 123 270 l 2
 109 270 98 281 98 295 c 0
 98 297 98 298 98 300 c 2
EndSplineSet
Colour: ffff00
EndChar

StartChar: comma
Encoding: 44 44 124
Width: 360
VWidth: 0
Flags: W
HStem: -200 92<26.0534 102.621>
VStem: 24 303
LayerCount: 2
Fore
SplineSet
24 -125 m 0
 26 -114 36 -110 44 -108 c 0
 75 -102 129 -86 150 0 c 1
 90 0 l 2
 76 0 65 11 65 25 c 0
 65 27 65 28 65 30 c 2
 87 170 l 2
 90 186 106 200 122 200 c 2
 302 200 l 2
 316 200 327 189 327 175 c 0
 327 173 327 172 327 170 c 2
 305 30 l 2
 281 -124 152 -200 48 -200 c 0
 37 -200 27 -194 26 -180 c 2
 24 -131 l 1
 24 -131 24 -128 24 -125 c 0
EndSplineSet
Colour: ffff00
EndChar

StartChar: hyphen
Encoding: 45 45 125
Width: 640
VWidth: 0
Flags: W
HStem: 270 180<117.918 636.76>
LayerCount: 2
Fore
SplineSet
98 300 m 2
 117 420 l 2
 120 436 135 450 151 450 c 2
 631 450 l 2
 645 450 657 439 657 425 c 0
 657 423 657 422 657 420 c 2
 638 300 l 2
 635 284 619 270 603 270 c 2
 123 270 l 2
 109 270 98 281 98 295 c 0
 98 297 98 298 98 300 c 2
EndSplineSet
Colour: ffff00
EndChar

StartChar: period
Encoding: 46 46 126
Width: 360
VWidth: 0
Flags: W
HStem: 0 200<88.0518 303.948>
VStem: 65 262
LayerCount: 2
Fore
SplineSet
65 30 m 2
 87 170 l 2
 90 186 106 200 122 200 c 2
 302 200 l 2
 316 200 327 189 327 175 c 0
 327 173 327 172 327 170 c 2
 305 30 l 2
 302 14 286 0 270 0 c 2
 90 0 l 2
 76 0 65 11 65 25 c 0
 65 27 65 28 65 30 c 2
EndSplineSet
Colour: ffff00
EndChar

StartChar: slash
Encoding: 47 47 127
Width: 600
VWidth: 0
Flags: W
HStem: 0 21G<52.5 219.5> 820 20G<513.5 680.5>
LayerCount: 2
Fore
SplineSet
47 30 m 1
 476 810 l 2
 485 826 502 840 525 840 c 2
 674 840 l 2
 687 840 694 837 694 830 c 0
 694 829 694 829 694 828 c 0
 693 820 686 810 686 810 c 1
 257 30 l 2
 248 14 231 0 208 0 c 2
 59 0 l 2
 46 0 39 3 39 10 c 0
 39 18 47 30 47 30 c 1
EndSplineSet
Colour: ffff00
EndChar

StartChar: zero
Encoding: 48 48 128
Width: 860
VWidth: 0
Flags: W
HStem: -20 240<406.761 529.791> 620 240<463.372 586.239>
VStem: 90 290<250.995 497.339> 613 290<340.348 589.005>
LayerCount: 2
Fore
SplineSet
387 420 m 0
 383 394 380 370 380 348 c 0
 380 268 408 220 465 220 c 0
 537 220 588 298 607 420 c 0
 611 446 613 470 613 492 c 0
 613 572 585 620 528 620 c 0
 456 620 406 542 387 420 c 0
97 420 m 0
 135 658 316 860 566 860 c 0
 785 860 903 704 903 505 c 0
 903 477 902 449 897 420 c 0
 859 182 677 -20 427 -20 c 0
 208 -20 90 136 90 335 c 0
 90 363 92 391 97 420 c 0
EndSplineSet
Colour: ffff00
EndChar

StartChar: one
Encoding: 49 49 129
Width: 600
VWidth: 0
Flags: W
HStem: 0 21G<270 491> 820 20G<426.5 623>
LayerCount: 2
Fore
SplineSet
157 710 m 2
 337 800 l 1
 389 828 410 840 443 840 c 2
 613 840 l 2
 633 840 647 825 647 806 c 0
 647 804 647 802 647 800 c 2
 526 40 l 2
 523 18 502 0 480 0 c 2
 280 0 l 2
 260 0 246 15 246 34 c 0
 246 36 246 38 246 40 c 2
 335 600 l 1
 235 538 l 1
 235 538 207 520 192 520 c 0
 182 520 175 529 171 540 c 2
 132 655 l 2
 130 660 127 667 127 673 c 0
 127 690 143 703 157 710 c 2
EndSplineSet
Colour: ffff00
EndChar

StartChar: two
Encoding: 50 50 130
Width: 800
VWidth: 0
Flags: W
HStem: 0 210<473 761.059> 640 220<364.328 629.046>
VStem: 541 287<524.718 690>
LayerCount: 2
Fore
SplineSet
66 40 m 2
 85 160 l 2
 91 197 113 217 137 235 c 2
 421 450 l 2
 464 482 532 521 540 570 c 0
 541 574 541 578 541 582 c 0
 541 619 510 640 450 640 c 0
 380 640 323 598 297 582 c 0
 289 577 279 575 271 575 c 0
 256 575 245 584 239 595 c 2
 181 690 l 2
 177 697 176 703 178 715 c 0
 180 727 192 742 204 750 c 0
 261 791 368 860 526 860 c 0
 728 860 828 748 828 632 c 0
 828 621 827 611 825 600 c 0
 807 485 738 434 669 370 c 1
 473 210 l 1
 753 210 l 2
 773 210 787 195 787 176 c 0
 787 174 787 172 787 170 c 2
 766 40 l 2
 763 18 742 0 720 0 c 2
 100 0 l 2
 80 0 66 15 66 34 c 0
 66 36 66 38 66 40 c 2
EndSplineSet
Colour: ffff00
EndChar

StartChar: three
Encoding: 51 51 131
Width: 770
VWidth: 0
Flags: W
HStem: -20 210<256.933 466.86> 330 180<299.029 478.469> 660 200<343.657 609.447>
VStem: 492 288<214.558 313.814> 524 284<537.62 643.712>
LayerCount: 2
Fore
SplineSet
55 115 m 2xf0
 156 225 l 2
 166 236 179 245 194 245 c 0
 202 245 212 243 218 238 c 0
 239 223 295 190 380 190 c 0
 455 190 485 220 491 260 c 0
 492 263 492 267 492 270 c 0xf0
 492 305 461 330 402 330 c 2
 312 330 l 2
 292 330 278 345 278 364 c 0
 278 366 279 368 279 370 c 2
 294 470 l 2
 297 492 319 510 341 510 c 2
 431 510 l 2
 489 510 516 548 523 590 c 0
 524 593 524 597 524 600 c 0
 524 637 490 660 445 660 c 0
 375 660 312 623 286 607 c 0
 278 602 273 600 265 600 c 0
 250 600 240 610 233 620 c 2
 175 695 l 2
 170 701 167 708 169 720 c 0
 171 732 183 747 195 755 c 0
 252 796 350 860 506 860 c 0
 707 860 808 757 808 636 c 0xe8
 808 624 807 612 805 600 c 0
 794 531 756 471 691 427 c 1
 749 392 780 338 780 270 c 0
 780 257 778 244 776 230 c 0
 751 73 584 -20 367 -20 c 0
 188 -20 117 25 65 60 c 0
 52 68 44 76 44 86 c 0
 44 99 49 108 55 115 c 2xf0
EndSplineSet
Colour: ffff00
EndChar

StartChar: four
Encoding: 52 52 132
Width: 800
VWidth: 0
Flags: W
HStem: 0 21G<440 661> 120 180<288 429 738 800.18> 820 20G<571.5 793>
LayerCount: 2
Fore
SplineSet
288 300 m 1
 458 300 l 1
 496 540 l 1
 288 300 l 1
55 160 m 2
 75 285 l 2
 78 307 106 333 126 355 c 2
 517 800 l 2
 538 823 555 840 588 840 c 2
 783 840 l 2
 803 840 817 825 817 806 c 0
 817 804 817 802 817 800 c 2
 738 300 l 1
 788 300 l 2
 808 300 822 285 822 266 c 0
 822 264 821 262 821 260 c 2
 805 160 l 2
 802 138 781 120 759 120 c 2
 709 120 l 1
 696 40 l 2
 693 18 672 0 650 0 c 2
 450 0 l 2
 430 0 416 15 416 34 c 0
 416 36 416 38 416 40 c 2
 429 120 l 1
 89 120 l 2
 69 120 55 135 55 154 c 0
 55 156 55 158 55 160 c 2
EndSplineSet
Colour: ffff00
EndChar

StartChar: five
Encoding: 53 53 133
Width: 780
VWidth: 0
Flags: W
HStem: -20 210<266.775 476.718> 300 540<238.359 374.633> 330 210<409.188 622.5> 630 210<425 791.059>
VStem: 502 297<214.729 393>
LayerCount: 2
Fore
SplineSet
65 115 m 2xb8
 166 225 l 2
 176 236 189 245 204 245 c 0
 212 245 222 243 228 238 c 0
 249 223 304 190 389 190 c 0
 464 190 495 220 501 260 c 0
 502 263 502 267 502 270 c 0
 502 305 471 330 412 330 c 0xb8
 382 330 359 323 345 317 c 0
 333 312 315 300 298 300 c 0
 281 300 252 312 252 312 c 1
 155 348 l 2
 137 354 126 365 126 383 c 0
 126 386 126 389 127 392 c 0
 129 406 141 445 141 445 c 1
 234 805 l 2
 238 820 256 840 283 840 c 2xc8
 783 840 l 2
 803 840 817 825 817 806 c 0
 817 804 817 802 817 800 c 2
 796 670 l 2
 793 648 772 630 750 630 c 2
 425 630 l 1
 392 506 l 1
 431 526 482 540 546 540 c 0
 699 540 799 456 799 330 c 0
 799 317 798 304 796 290 c 0
 762 78 594 -20 377 -20 c 0
 198 -20 127 25 75 60 c 0
 62 68 54 76 54 86 c 0
 54 99 59 108 65 115 c 2xb8
EndSplineSet
Colour: ffff00
EndChar

StartChar: six
Encoding: 54 54 134
Width: 810
VWidth: 0
Flags: W
HStem: -20 210<379.778 506.067> 370 180<456.96 657.5> 615 21G<703 714.5> 660 200<466.219 663.787>
VStem: 546 285<231.799 352.761>
LayerCount: 2
Fore
SplineSet
364 280 m 0
 363 275 363 270 363 265 c 0
 363 223 392 190 440 190 c 0
 493 190 536 232 544 280 c 0
 545 285 546 290 546 295 c 0
 546 337 517 370 469 370 c 0
 409 370 372 328 364 280 c 0
84 280 m 2
 119 500 l 2
 154 719 315 860 556 860 c 0
 697 860 769 818 814 785 c 0
 823 779 830 767 830 758 c 0
 830 745 824 737 819 730 c 2
 746 635 l 2
 737 623 722 615 707 615 c 0
 699 615 690 617 684 622 c 0
 663 637 613 660 555 660 c 0
 486 660 409 619 396 540 c 2
 387 486 l 1
 439 523 508 550 597 550 c 0
 718 550 831 485 831 346 c 0
 831 332 831 316 828 300 c 0
 795 91 624 -20 407 -20 c 0
 209 -20 81 88 81 237 c 0
 81 251 82 265 84 280 c 2
EndSplineSet
Colour: ffff00
EndChar

StartChar: seven
Encoding: 55 55 135
Width: 720
VWidth: 0
Flags: W
HStem: 0 21G<152.5 391.5> 630 210<171.941 490>
LayerCount: 2
Fore
SplineSet
146 670 m 2
 167 800 l 2
 170 822 191 840 213 840 c 2
 783 840 l 2
 803 840 817 825 817 806 c 0
 817 804 817 802 817 800 c 2
 796 670 l 2
 792 647 762 602 739 565 c 1
 433 40 l 1
 421 14 406 0 377 0 c 2
 164 0 l 2
 141 0 128 9 128 22 c 0
 128 29 130 34 135 40 c 2
 490 630 l 1
 180 630 l 2
 160 630 146 645 146 664 c 0
 146 666 146 668 146 670 c 2
EndSplineSet
Colour: ffff00
EndChar

StartChar: eight
Encoding: 56 56 136
Width: 800
VWidth: 0
Flags: W
HStem: -20 180<367.29 489.823> 350 160<434.844 514.84> 690 170<457.695 554.927>
VStem: 62 286<177.691 293.249> 155 268<519.678 657.249> 531 277<198.091 334.763> 567 274<549.514 679.313>
LayerCount: 2
Fore
SplineSet
425 600 m 0xea
 424 592 423 584 423 577 c 0
 423 536 444 510 481 510 c 0
 525 510 556 546 565 600 c 0
 566 607 567 614 567 621 c 0
 567 663 544 690 509 690 c 0
 468 690 434 654 425 600 c 0xea
350 250 m 0
 349 245 348 240 348 235 c 0
 348 192 378 160 425 160 c 0
 478 160 522 200 530 250 c 0
 531 257 531 265 531 272 c 0xf4
 531 314 510 350 455 350 c 0
 390 350 358 300 350 250 c 0
65 220 m 0
 81 319 145 392 249 433 c 1
 186 468 155 521 155 585 c 0
 155 596 156 608 158 620 c 0
 179 755 331 860 536 860 c 0
 725 860 841 771 841 651 c 0xea
 841 641 840 630 838 620 c 0
 825 540 775 474 689 433 c 1
 768 398 808 339 808 260 c 0
 808 247 807 234 805 220 c 0
 780 63 614 -20 397 -20 c 0
 197 -20 62 51 62 185 c 0
 62 196 63 208 65 220 c 0
EndSplineSet
Colour: ffff00
EndChar

StartChar: nine
Encoding: 57 57 137
Width: 810
VWidth: 0
Flags: W
HStem: -20 200<282.165 477.281> 290 180<285.5 486.04> 650 210<436.966 563.222>
VStem: 112 286<487.239 608.201>
LayerCount: 2
Fore
SplineSet
579 560 m 0
 580 565 580 570 580 575 c 0
 580 617 551 650 503 650 c 0
 450 650 407 608 399 560 c 0
 398 555 398 550 398 545 c 0
 398 503 426 470 474 470 c 0
 534 470 571 512 579 560 c 0
859 560 m 2
 824 340 l 2
 789 121 628 -20 387 -20 c 0
 246 -20 174 22 129 55 c 0
 120 61 113 73 113 82 c 0
 113 95 119 103 124 110 c 2
 197 205 l 2
 206 217 221 225 236 225 c 0
 244 225 254 223 260 218 c 0
 281 203 331 180 389 180 c 0
 458 180 535 221 548 300 c 2
 556 354 l 1
 504 317 435 290 346 290 c 0
 225 290 112 355 112 494 c 0
 112 508 113 524 116 540 c 0
 149 749 319 860 536 860 c 0
 734 860 862 752 862 603 c 0
 862 589 861 575 859 560 c 2
EndSplineSet
Colour: ffff00
EndChar

StartChar: colon
Encoding: 58 58 138
Width: 360
VWidth: 0
Flags: W
HStem: 0 200<88.0518 303.948> 400 200<151.052 366.948>
VStem: 65 325
LayerCount: 2
Fore
SplineSet
128 430 m 2
 150 570 l 2
 153 586 169 600 185 600 c 2
 365 600 l 2
 379 600 390 589 390 575 c 0
 390 573 390 572 390 570 c 2
 368 430 l 2
 365 414 349 400 333 400 c 2
 153 400 l 2
 139 400 128 411 128 425 c 0
 128 427 128 428 128 430 c 2
65 30 m 2
 87 170 l 2
 90 186 106 200 122 200 c 2
 302 200 l 2
 316 200 327 189 327 175 c 0
 327 173 327 172 327 170 c 2
 305 30 l 2
 302 14 286 0 270 0 c 2
 90 0 l 2
 76 0 65 11 65 25 c 0
 65 27 65 28 65 30 c 2
EndSplineSet
Colour: ffff00
EndChar

StartChar: semicolon
Encoding: 59 59 139
Width: 360
VWidth: 0
Flags: W
HStem: -200 92<26.0534 102.621> 400 200<151.052 366.948>
VStem: 24 366
LayerCount: 2
Fore
SplineSet
128 430 m 2
 150 570 l 2
 153 586 169 600 185 600 c 2
 365 600 l 2
 379 600 390 589 390 575 c 0
 390 573 390 572 390 570 c 2
 368 430 l 2
 365 414 349 400 333 400 c 2
 153 400 l 2
 139 400 128 411 128 425 c 0
 128 427 128 428 128 430 c 2
24 -125 m 0
 26 -114 36 -110 44 -108 c 0
 75 -102 129 -86 150 0 c 1
 90 0 l 2
 76 0 65 11 65 25 c 0
 65 27 65 28 65 30 c 2
 87 170 l 2
 90 186 106 200 122 200 c 2
 302 200 l 2
 316 200 327 189 327 175 c 0
 327 173 327 172 327 170 c 2
 305 30 l 2
 281 -124 152 -200 48 -200 c 0
 37 -200 27 -194 26 -180 c 2
 24 -131 l 1
 24 -131 24 -128 24 -125 c 0
EndSplineSet
Colour: ffff00
EndChar

StartChar: less
Encoding: 60 60 140
Width: 570
VWidth: 0
Flags: W
LayerCount: 2
Fore
SplineSet
62 263 m 2
 77 360 l 1
 92 457 l 2
 95 473 112 481 127 487 c 2
 617 677 l 1
 617 677 628 682 636 682 c 0
 642 682 645 677 645 668 c 0
 645 666 645 663 645 660 c 2
 621 514 l 2
 617 491 601 476 584 470 c 2
 257 360 l 1
 550 250 l 2
 563 245 573 232 573 214 c 0
 573 211 573 209 573 206 c 2
 550 60 l 2
 548 46 542 38 534 38 c 0
 526 38 517 43 517 43 c 1
 87 233 l 2
 75 238 62 246 62 259 c 0
 62 260 62 262 62 263 c 2
EndSplineSet
Colour: ffff00
EndChar

StartChar: equal
Encoding: 61 61 141
Width: 640
VWidth: 0
Flags: W
HStem: 120 180<93.935 613.065> 420 180<141.24 660.082>
LayerCount: 2
Fore
SplineSet
121 450 m 2
 140 570 l 2
 143 586 159 600 175 600 c 2
 655 600 l 2
 669 600 680 589 680 575 c 0
 680 573 680 572 680 570 c 2
 661 450 l 2
 658 434 643 420 627 420 c 2
 147 420 l 2
 133 420 121 431 121 445 c 0
 121 447 121 448 121 450 c 2
74 150 m 2
 93 270 l 2
 96 286 112 300 128 300 c 2
 608 300 l 2
 622 300 633 289 633 275 c 0
 633 273 633 272 633 270 c 2
 614 150 l 2
 611 134 595 120 579 120 c 2
 99 120 l 2
 85 120 74 131 74 145 c 0
 74 147 74 148 74 150 c 2
EndSplineSet
Colour: ffff00
EndChar

StartChar: greater
Encoding: 62 62 142
Width: 570
VWidth: 0
Flags: W
LayerCount: 2
Fore
SplineSet
622 457 m 2
 607 360 l 1
 592 263 l 2
 589 247 572 239 557 233 c 2
 67 43 l 1
 67 43 56 38 48 38 c 0
 42 38 39 43 39 52 c 0
 39 54 40 57 40 60 c 2
 63 206 l 2
 67 229 83 244 100 250 c 2
 427 360 l 1
 134 470 l 2
 121 475 111 488 111 506 c 0
 111 509 111 511 111 514 c 2
 135 660 l 2
 137 674 142 682 150 682 c 0
 158 682 167 677 167 677 c 1
 597 487 l 2
 609 482 622 474 622 461 c 0
 622 460 622 458 622 457 c 2
EndSplineSet
Colour: ffff00
EndChar

StartChar: question
Encoding: 63 63 143
Width: 690
VWidth: 0
Flags: W
HStem: 0 200<258.052 473.948> 270 187<300.132 395.262> 620 240<316.691 557.5>
VStem: 470 278<532.202 705.5>
LayerCount: 2
Fore
SplineSet
235 30 m 2
 257 170 l 2
 260 186 276 200 292 200 c 2
 472 200 l 2
 486 200 497 189 497 175 c 0
 497 173 497 172 497 170 c 2
 475 30 l 2
 472 14 456 0 440 0 c 2
 260 0 l 2
 246 0 235 11 235 25 c 0
 235 27 235 28 235 30 c 2
137 725 m 0
 139 738 149 746 160 755 c 0
 217 798 335 860 476 860 c 0
 639 860 748 771 748 640 c 0
 748 627 747 614 745 600 c 0
 721 448 554 375 522 362 c 1
 511 310 l 1
 508 288 487 270 465 270 c 2
 321 270 l 2
 301 270 287 285 287 304 c 0
 287 306 287 308 287 310 c 1
 300 435 l 2
 302 447 312 453 327 457 c 0
 397 476 462 516 469 560 c 0
 470 564 470 567 470 570 c 0
 470 599 448 620 408 620 c 0
 361 620 301 591 262 564 c 0
 254 559 246 555 238 555 c 0
 225 555 215 562 209 573 c 2
 141 700 l 2
 138 705 136 712 136 719 c 0
 136 721 137 723 137 725 c 0
EndSplineSet
Colour: ffff00
EndChar

StartChar: at
Encoding: 64 64 144
Width: 1100
VWidth: 0
Flags: W
HStem: -180 80<391.678 704.843> -145 73<635.549 751.459> 92 152<434.5 589.577> 92 108<791.5 962.342> 436 152<560.663 660.354> 780 80<526.288 815.753>
VStem: 77 91<131.909 416.508> 300 226<255.253 398.185> 1039 91<271.81 552.609>
LayerCount: 2
Fore
SplineSet
528 340 m 0x2f80
 527 331 526 324 526 316 c 0
 526 268 552 244 585 244 c 0
 616 244 635 259 647 283 c 1
 648 289 649 294 650 300 c 2
 665 398 l 1
 660 421 646 436 615 436 c 0
 577 436 538 404 528 340 c 0x2f80
84 340 m 0
 129 622 389 860 686 860 c 0
 953 860 1130 667 1130 423 c 0
 1130 396 1128 368 1124 340 c 0
 1105 218 1022 92 829 92 c 0x9f80
 754 92 688 124 661 187 c 1
 625 135 572 92 497 92 c 0x2f80
 372 92 300 178 300 293 c 0
 300 308 301 324 304 340 c 0
 326 477 433 588 575 588 c 0
 634 588 671 562 693 525 c 1
 697 550 l 2
 700 566 716 580 732 580 c 2
 870 580 l 2
 884 580 895 569 895 555 c 0
 895 553 895 552 895 550 c 2
 856 300 l 2
 855 291 853 282 853 274 c 0
 853 227 878 200 922 200 c 0
 975 200 1020 249 1034 340 c 0
 1038 363 1039 386 1039 409 c 0
 1039 612 896 780 674 780 c 0
 427 780 211 572 174 340 c 0
 170 317 168 294 168 271 c 0
 168 68 312 -100 534 -100 c 0x9f80
 622 -100 672 -89 718 -75 c 0
 723 -74 728 -72 734 -72 c 0
 744 -72 748 -79 750 -90 c 2
 754 -112 l 2
 755 -115 756 -120 755 -125 c 0
 753 -137 745 -142 734 -145 c 0x4f80
 694 -157 636 -180 521 -180 c 0x8f80
 254 -180 77 13 77 257 c 0
 77 284 80 312 84 340 c 0
EndSplineSet
Colour: ffff00
EndChar

StartChar: A
Encoding: 65 65 145
Width: 980
VWidth: 0
Flags: W
HStem: 0 21G<48.5 289.5 690.5 932.5> 120 180<454 622> 820 20G<480.5 765.5>
LayerCount: 2
Fore
SplineSet
454 300 m 1
 622 300 l 1
 586 540 l 1
 585 570 l 1
 580 570 l 1
 575 570 l 1
 566 540 l 1
 454 300 l 1
31 40 m 1
 442 800 l 1
 447 813 468 840 493 840 c 2
 623 840 l 1
 753 840 l 2
 778 840 791 813 792 800 c 1
 961 40 l 1
 963 36 964 32 964 28 c 0
 964 27 964 26 964 25 c 0
 962 10 945 0 920 0 c 2
 705 0 l 2
 676 0 665 14 661 40 c 2
 649 120 l 1
 369 120 l 1
 331 40 l 2
 319 14 304 0 275 0 c 2
 60 0 l 2
 37 0 24 9 24 22 c 0
 24 29 26 34 31 40 c 1
EndSplineSet
Colour: ffff00
EndChar

StartChar: B
Encoding: 66 66 146
Width: 880
VWidth: 0
Flags: W
HStem: 0 180<369 554.113> 350 150<419 574.573> 660 180<445 598.252>
VStem: 592 296<217.239 331.82> 613 297<539.617 704.5>
LayerCount: 2
Fore
SplineSet
419 500 m 1xe8
 529 500 l 2
 573 500 606 542 612 580 c 0
 613 584 613 587 613 591 c 0
 613 626 588 660 545 660 c 2
 445 660 l 1
 419 500 l 1xe8
369 180 m 1
 479 180 l 2
 531 180 584 214 591 260 c 0
 592 265 592 271 592 276 c 0xf0
 592 316 567 350 505 350 c 2
 395 350 l 1
 369 180 l 1
66 40 m 2
 187 800 l 2
 190 822 211 840 233 840 c 2
 613 840 l 2
 816 840 910 762 910 647 c 0xe8
 910 635 909 623 907 610 c 0
 895 533 849 472 766 434 c 1
 848 400 888 342 888 263 c 0
 888 249 887 235 885 220 c 0
 859 56 690 0 540 0 c 2
 100 0 l 2
 80 0 66 15 66 34 c 0
 66 36 66 38 66 40 c 2
EndSplineSet
Colour: ffff00
EndChar

StartChar: C
Encoding: 67 67 147
Width: 840
VWidth: 0
Flags: W
HStem: -20 240<471.105 672.701> 620 240<525.184 748.623>
VStem: 91 307<288.956 489.621>
LayerCount: 2
Fore
SplineSet
97 420 m 0
 135 658 338 860 636 860 c 0
 801 860 898 792 909 785 c 0
 921 777 930 768 930 758 c 0
 930 746 925 739 918 730 c 2
 825 600 l 2
 816 587 803 580 792 580 c 0
 785 580 774 582 768 585 c 0
 758 589 716 620 638 620 c 0
 511 620 421 542 402 420 c 0
 400 406 398 393 398 380 c 0
 398 281 463 220 575 220 c 0
 653 220 703 251 715 255 c 0
 721 258 734 260 741 260 c 0
 752 260 763 253 768 240 c 2
 819 110 l 2
 823 101 825 95 823 85 c 0
 821 73 810 64 794 55 c 0
 781 48 662 -20 497 -20 c 0
 231 -20 91 141 91 345 c 0
 91 369 93 395 97 420 c 0
EndSplineSet
Colour: ffff00
EndChar

StartChar: D
Encoding: 68 68 148
Width: 900
VWidth: 0
Flags: W
HStem: 0 210<373 522.896> 630 210<440 582.714>
VStem: 650 293<345.333 560.495>
LayerCount: 2
Fore
SplineSet
373 210 m 1
 423 210 l 2
 541 210 628 301 647 420 c 0
 649 435 650 449 650 463 c 0
 650 560 593 630 490 630 c 2
 440 630 l 1
 373 210 l 1
66 40 m 2
 187 800 l 2
 190 822 211 840 233 840 c 2
 533 840 l 2
 807 840 943 695 943 496 c 0
 943 471 941 446 937 420 c 0
 899 182 708 0 400 0 c 2
 100 0 l 2
 80 0 66 15 66 34 c 0
 66 36 66 38 66 40 c 2
EndSplineSet
Colour: ffff00
EndChar

StartChar: E
Encoding: 69 69 149
Width: 790
VWidth: 0
Flags: W
HStem: 0 210<373 751.059> 310 200<421 749.905> 630 210<440 841.059>
LayerCount: 2
Fore
SplineSet
66 40 m 2
 187 800 l 2
 190 822 211 840 233 840 c 2
 833 840 l 2
 853 840 867 825 867 806 c 0
 867 804 867 802 867 800 c 2
 846 670 l 2
 843 648 822 630 800 630 c 2
 440 630 l 1
 421 510 l 1
 741 510 l 2
 761 510 775 495 775 476 c 0
 775 474 774 472 774 470 c 2
 755 350 l 2
 752 328 731 310 709 310 c 2
 389 310 l 1
 373 210 l 1
 743 210 l 2
 763 210 777 195 777 176 c 0
 777 174 777 172 777 170 c 2
 756 40 l 2
 753 18 732 0 710 0 c 2
 100 0 l 2
 80 0 66 15 66 34 c 0
 66 36 66 38 66 40 c 2
EndSplineSet
Colour: ffff00
EndChar

StartChar: F
Encoding: 70 70 150
Width: 740
VWidth: 0
Flags: W
HStem: 0 21G<90 321> 270 200<424 724.625> 630 210<450 821.059>
LayerCount: 2
Fore
SplineSet
66 40 m 2
 187 800 l 2
 190 822 211 840 233 840 c 2
 813 840 l 2
 833 840 847 825 847 806 c 0
 847 804 847 802 847 800 c 2
 826 670 l 2
 823 648 802 630 780 630 c 2
 450 630 l 1
 424 470 l 1
 714 470 l 2
 734 470 749 455 749 436 c 0
 749 434 748 432 748 430 c 2
 729 310 l 2
 726 288 705 270 683 270 c 2
 393 270 l 1
 356 40 l 2
 353 18 332 0 310 0 c 2
 100 0 l 2
 80 0 66 15 66 34 c 0
 66 36 66 38 66 40 c 2
EndSplineSet
Colour: ffff00
EndChar

StartChar: G
Encoding: 71 71 151
Width: 920
VWidth: 0
Flags: W
HStem: -20 210<468.666 649.467> 290 180<553.029 666> 620 240<524.501 770.818>
VStem: 91 301<267.578 487.232>
LayerCount: 2
Fore
SplineSet
97 420 m 0
 135 658 338 860 636 860 c 0
 821 860 919 792 929 785 c 0
 941 777 950 768 950 758 c 0
 950 746 945 739 938 730 c 2
 845 600 l 2
 836 587 823 580 812 580 c 0
 805 580 794 582 788 585 c 0
 781 589 730 620 638 620 c 0
 511 620 416 542 397 420 c 0
 394 401 392 384 392 367 c 0
 392 253 459 190 570 190 c 0
 600 190 628 195 652 202 c 1
 666 290 l 1
 566 290 l 2
 546 290 532 305 532 324 c 0
 532 326 532 328 532 330 c 2
 548 430 l 2
 551 452 572 470 594 470 c 2
 894 470 l 2
 931 470 947 462 947 432 c 0
 947 426 946 418 945 410 c 2
 904 150 l 2
 893 82 708 -20 497 -20 c 0
 231 -20 91 141 91 345 c 0
 91 369 93 395 97 420 c 0
EndSplineSet
Colour: ffff00
EndChar

StartChar: H
Encoding: 72 72 152
Width: 920
VWidth: 0
Flags: W
HStem: 0 21G<90 311 610 831> 290 220<421 626> 820 20G<222 443 742 963>
LayerCount: 2
Fore
SplineSet
66 40 m 2
 187 800 l 2
 190 822 211 840 233 840 c 2
 433 840 l 2
 453 840 467 825 467 806 c 0
 467 804 467 802 467 800 c 2
 421 510 l 1
 661 510 l 1
 707 800 l 2
 710 822 731 840 753 840 c 2
 953 840 l 2
 973 840 987 825 987 806 c 0
 987 804 987 802 987 800 c 2
 866 40 l 2
 863 18 842 0 820 0 c 2
 620 0 l 2
 600 0 586 15 586 34 c 0
 586 36 586 38 586 40 c 2
 626 290 l 1
 386 290 l 1
 346 40 l 2
 343 18 322 0 300 0 c 2
 100 0 l 2
 80 0 66 15 66 34 c 0
 66 36 66 38 66 40 c 2
EndSplineSet
Colour: ffff00
EndChar

StartChar: I
Encoding: 73 73 153
Width: 400
VWidth: 0
Flags: W
HStem: 0 21G<90 311> 820 20G<222 443>
LayerCount: 2
Fore
SplineSet
66 40 m 2
 187 800 l 2
 190 822 211 840 233 840 c 2
 433 840 l 2
 453 840 467 825 467 806 c 0
 467 804 467 802 467 800 c 2
 346 40 l 2
 343 18 322 0 300 0 c 2
 100 0 l 2
 80 0 66 15 66 34 c 0
 66 36 66 38 66 40 c 2
EndSplineSet
Colour: ffff00
EndChar

StartChar: J
Encoding: 74 74 154
Width: 580
VWidth: 0
Flags: W
HStem: -10 210<121.729 268.408> 820 20G<402 623>
LayerCount: 2
Fore
SplineSet
13 85 m 0
 14 91 17 97 21 102 c 2
 116 214 l 2
 122 222 133 226 142 226 c 0
 149 226 155 225 160 221 c 0
 177 210 200 200 222 200 c 0
 247 200 274 213 281 260 c 2
 367 800 l 2
 370 822 391 840 413 840 c 2
 613 840 l 2
 633 840 647 825 647 806 c 0
 647 804 647 802 647 800 c 2
 558 240 l 2
 531 67 387 -10 248 -10 c 0
 138 -10 60 30 23 60 c 0
 16 65 13 72 13 80 c 0
 13 82 13 83 13 85 c 0
EndSplineSet
Colour: ffff00
EndChar

StartChar: K
Encoding: 75 75 155
Width: 890
VWidth: 0
Flags: W
HStem: 0 21G<90 311 585.5 842.5> 820 20G<222 443 703.5 944.5>
LayerCount: 2
Fore
SplineSet
66 40 m 2
 187 800 l 2
 190 822 211 840 233 840 c 2
 433 840 l 2
 453 840 467 825 467 806 c 0
 467 804 467 802 467 800 c 2
 424 530 l 1
 464 530 l 1
 657 800 l 2
 677 827 689 840 718 840 c 2
 933 840 l 2
 956 840 969 831 969 818 c 0
 969 811 967 806 962 800 c 2
 680 440 l 1
 871 40 l 2
 873 35 875 29 874 25 c 0
 872 10 855 0 830 0 c 2
 600 0 l 2
 571 0 563 13 551 40 c 2
 431 320 l 1
 391 320 l 1
 346 40 l 2
 343 18 322 0 300 0 c 2
 100 0 l 2
 80 0 66 15 66 34 c 0
 66 36 66 38 66 40 c 2
EndSplineSet
Colour: ffff00
EndChar

StartChar: L
Encoding: 76 76 156
Width: 660
VWidth: 0
Flags: W
HStem: 0 210<373 641.059> 820 20G<222 443>
LayerCount: 2
Fore
SplineSet
66 40 m 2
 187 800 l 2
 190 822 211 840 233 840 c 2
 433 840 l 2
 453 840 467 825 467 806 c 0
 467 804 467 802 467 800 c 2
 373 210 l 1
 633 210 l 2
 653 210 667 195 667 176 c 0
 667 174 667 172 667 170 c 2
 646 40 l 2
 643 18 622 0 600 0 c 2
 100 0 l 2
 80 0 66 15 66 34 c 0
 66 36 66 38 66 40 c 2
EndSplineSet
Colour: ffff00
EndChar

StartChar: M
Encoding: 77 77 157
Width: 1080
VWidth: 0
Flags: W
HStem: 0 21G<90 311 770 991> 820 20G<222 481 865 1123>
LayerCount: 2
Fore
SplineSet
66 40 m 2
 187 800 l 2
 190 822 211 840 233 840 c 2
 468 840 l 2
 494 840 506 824 517 800 c 1
 621 510 l 1
 817 800 l 1
 836 824 852 840 878 840 c 2
 1113 840 l 2
 1133 840 1147 825 1147 806 c 0
 1147 804 1147 802 1147 800 c 2
 1026 40 l 2
 1023 18 1002 0 980 0 c 2
 780 0 l 2
 760 0 746 15 746 34 c 0
 746 36 746 38 746 40 c 2
 813 460 l 1
 645 220 l 1
 630 197 616 180 599 180 c 2
 569 180 l 1
 539 180 l 2
 522 180 512 197 505 220 c 1
 413 460 l 1
 346 40 l 2
 343 18 322 0 300 0 c 2
 100 0 l 2
 80 0 66 15 66 34 c 0
 66 36 66 38 66 40 c 2
EndSplineSet
Colour: ffff00
EndChar

StartChar: N
Encoding: 78 78 158
Width: 920
VWidth: 0
Flags: W
HStem: 0 21G<90 311 597 831> 820 20G<222 456 742 963>
LayerCount: 2
Fore
SplineSet
66 40 m 2
 187 800 l 2
 190 822 211 840 233 840 c 2
 443 840 l 2
 469 840 481 824 492 800 c 1
 647 420 l 1
 707 800 l 2
 710 822 731 840 753 840 c 2
 953 840 l 2
 973 840 987 825 987 806 c 0
 987 804 987 802 987 800 c 2
 866 40 l 2
 863 18 842 0 820 0 c 2
 610 0 l 2
 584 0 572 16 561 40 c 2
 402 390 l 1
 346 40 l 2
 343 18 322 0 300 0 c 2
 100 0 l 2
 80 0 66 15 66 34 c 0
 66 36 66 38 66 40 c 2
EndSplineSet
Colour: ffff00
EndChar

StartChar: O
Encoding: 79 79 159
Width: 1000
VWidth: 0
Flags: W
HStem: -20 240<447.772 630.542> 620 240<502.628 685.234>
VStem: 91 297<285.246 489.621> 745 298<345.013 554.754>
LayerCount: 2
Fore
SplineSet
392 420 m 0
 390 405 388 391 388 377 c 0
 388 280 447 220 535 220 c 0
 635 220 723 298 742 420 c 0
 744 435 745 449 745 463 c 0
 745 560 686 620 598 620 c 0
 498 620 411 542 392 420 c 0
97 420 m 0
 135 658 338 860 636 860 c 0
 902 860 1043 699 1043 495 c 0
 1043 471 1041 445 1037 420 c 0
 999 182 795 -20 497 -20 c 0
 231 -20 91 141 91 345 c 0
 91 369 93 395 97 420 c 0
EndSplineSet
Colour: ffff00
EndChar

StartChar: P
Encoding: 80 80 160
Width: 870
VWidth: 0
Flags: W
HStem: 0 21G<90 311> 240 200<410 610.534> 640 200<441 633.125>
VStem: 657 282<486.325 614.665>
LayerCount: 2
Fore
SplineSet
410 440 m 1
 520 440 l 2
 601 440 647 483 656 540 c 0
 657 546 657 552 657 557 c 0
 657 605 620 640 551 640 c 2
 441 640 l 1
 410 440 l 1
66 40 m 2
 187 800 l 2
 190 822 211 840 233 840 c 2
 633 840 l 2
 834 840 939 730 939 588 c 0
 939 572 939 556 936 540 c 0
 910 376 769 240 538 240 c 2
 378 240 l 1
 346 40 l 2
 343 18 322 0 300 0 c 2
 100 0 l 2
 80 0 66 15 66 34 c 0
 66 36 66 38 66 40 c 2
EndSplineSet
Colour: ffff00
EndChar

StartChar: Q
Encoding: 81 81 161
Width: 1010
VWidth: 0
Flags: W
HStem: -20 240<447.772 578.51> 620 240<502.628 685.234>
VStem: 91 297<285.246 489.621> 745 298<347.637 554.754>
LayerCount: 2
Fore
SplineSet
392 420 m 0
 390 405 388 391 388 377 c 0
 388 280 447 220 535 220 c 0
 550 220 565 222 579 225 c 1
 523 294 l 2
 518 300 516 308 517 315 c 0
 518 323 522 331 529 337 c 2
 619 415 l 2
 625 420 632 423 640 423 c 0
 647 423 655 420 661 414 c 2
 720 346 l 1
 730 369 738 393 742 420 c 0
 744 435 745 449 745 463 c 0
 745 560 686 620 598 620 c 0
 498 620 411 542 392 420 c 0
97 420 m 0
 135 658 338 860 636 860 c 0
 902 860 1043 699 1043 495 c 0
 1043 471 1041 445 1037 420 c 0
 1021 316 971 219 897 142 c 1
 943 90 l 2
 948 85 950 77 949 69 c 0
 948 61 944 53 937 48 c 2
 836 -38 l 2
 829 -44 822 -47 814 -47 c 0
 807 -47 799 -44 794 -38 c 2
 738 30 l 1
 668 -2 587 -20 497 -20 c 0
 231 -20 91 141 91 345 c 0
 91 369 93 395 97 420 c 0
EndSplineSet
Colour: ffff00
EndChar

StartChar: R
Encoding: 82 82 162
Width: 900
VWidth: 0
Flags: W
HStem: 0 21G<90 311 595.5 852.5> 640 200<441 633.125>
VStem: 657 282<485.681 614.665>
LayerCount: 2
Fore
SplineSet
410 440 m 1
 520 440 l 2
 601 440 647 483 656 540 c 0
 657 546 657 552 657 557 c 0
 657 605 620 640 551 640 c 2
 441 640 l 1
 410 440 l 1
66 40 m 2
 187 800 l 2
 190 822 211 840 233 840 c 2
 633 840 l 2
 834 840 939 730 939 588 c 0
 939 572 939 556 936 540 c 0
 919 433 853 338 745 285 c 1
 881 40 l 2
 883 35 885 29 884 25 c 0
 882 10 865 0 840 0 c 2
 610 0 l 2
 581 0 573 13 561 40 c 2
 468 240 l 1
 378 240 l 1
 346 40 l 2
 343 18 322 0 300 0 c 2
 100 0 l 2
 80 0 66 15 66 34 c 0
 66 36 66 38 66 40 c 2
EndSplineSet
Colour: ffff00
EndChar

StartChar: S
Encoding: 83 83 163
Width: 820
VWidth: 0
Flags: W
HStem: -20 210<299.152 509.353> 650 210<463.359 675.849>
LayerCount: 2
Fore
SplineSet
66 115 m 2
 158 240 l 2
 167 253 180 260 191 260 c 0
 198 260 209 258 215 255 c 0
 278 218 363 190 430 190 c 0
 474 190 511 197 516 230 c 0
 516 232 517 235 517 237 c 0
 517 262 493 274 474 280 c 0
 419 297 328 328 276 355 c 0
 214 387 140 442 140 547 c 0
 140 559 141 572 143 585 c 0
 174 778 360 860 556 860 c 0
 694 860 805 811 859 780 c 0
 871 774 879 764 879 753 c 0
 879 752 879 751 879 750 c 0
 877 740 873 734 867 725 c 2
 787 615 l 2
 778 602 765 595 754 595 c 0
 747 595 736 597 730 600 c 0
 669 634 590 650 533 650 c 0
 495 650 462 644 457 610 c 0
 457 608 456 606 456 604 c 0
 456 582 478 566 499 560 c 0
 574 536 615 523 669 500 c 0
 739 471 833 424 833 297 c 0
 833 282 833 267 830 250 c 0
 800 61 603 -20 407 -20 c 0
 253 -20 133 28 75 60 c 0
 63 66 54 76 54 87 c 0
 54 99 59 106 66 115 c 2
EndSplineSet
Colour: ffff00
EndChar

StartChar: T
Encoding: 84 84 164
Width: 740
VWidth: 0
Flags: W
HStem: 0 21G<260 481> 630 210<151.941 330 610 821.059>
LayerCount: 2
Fore
SplineSet
126 670 m 2
 147 800 l 2
 150 822 171 840 193 840 c 2
 813 840 l 2
 833 840 847 825 847 806 c 0
 847 804 847 802 847 800 c 2
 826 670 l 2
 823 648 802 630 780 630 c 2
 610 630 l 1
 516 40 l 2
 513 18 492 0 470 0 c 2
 270 0 l 2
 250 0 236 15 236 34 c 0
 236 36 236 38 236 40 c 2
 330 630 l 1
 160 630 l 2
 140 630 126 645 126 664 c 0
 126 666 126 668 126 670 c 2
EndSplineSet
Colour: ffff00
EndChar

StartChar: U
Encoding: 85 85 165
Width: 920
VWidth: 0
Flags: W
HStem: -20 210<415.424 574.253> 820 20G<222 443 742 963>
VStem: 100 287<217.314 417.656>
LayerCount: 2
Fore
SplineSet
104 280 m 2
 187 800 l 2
 190 822 211 840 233 840 c 2
 433 840 l 2
 453 840 467 825 467 806 c 0
 467 804 467 802 467 800 c 2
 389 310 l 2
 388 301 387 293 387 285 c 0
 387 223 429 190 490 190 c 0
 559 190 617 232 629 310 c 2
 707 800 l 2
 710 822 731 840 753 840 c 2
 953 840 l 2
 973 840 987 825 987 806 c 0
 987 804 987 802 987 800 c 2
 904 280 l 2
 874 92 697 -20 457 -20 c 0
 238 -20 100 73 100 232 c 0
 100 247 101 263 104 280 c 2
EndSplineSet
Colour: ffff00
EndChar

StartChar: V
Encoding: 86 86 166
Width: 980
VWidth: 0
Flags: W
HStem: 0 21G<347.5 632.5> 820 20G<180.5 422.5 823.5 1064.5>
VStem: 149 303<744.737 837.406>
LayerCount: 2
Fore
SplineSet
193 840 m 2
 408 840 l 2
 437 840 448 826 452 800 c 2
 528 300 l 1
 528 270 l 1
 533 270 l 1
 538 270 l 1
 548 300 l 1
 782 800 l 2
 794 826 809 840 838 840 c 2
 1053 840 l 2
 1076 840 1089 831 1089 818 c 0
 1089 817 1089 816 1089 815 c 0
 1088 811 1086 805 1082 800 c 1
 671 40 l 1
 666 27 645 0 620 0 c 2
 490 0 l 1
 360 0 l 2
 335 0 322 27 321 40 c 1
 152 800 l 1
 150 804 149 808 149 812 c 0
 149 829 168 840 193 840 c 2
EndSplineSet
Colour: ffff00
EndChar

StartChar: W
Encoding: 87 87 167
Width: 1370
VWidth: 0
Flags: W
HStem: 0 21G<297.5 564.5 805.5 1072.5> 820 20G<180 437.5 738.5 897.5 1198.5 1454.5>
LayerCount: 2
Fore
SplineSet
193 840 m 2
 423 840 l 2
 452 840 466 824 467 800 c 2
 494 340 l 1
 494 310 l 1
 504 310 l 1
 514 340 l 1
 707 800 l 1
 716 824 724 840 753 840 c 2
 818 840 l 1
 883 840 l 2
 912 840 916 824 917 800 c 1
 964 340 l 1
 964 310 l 1
 974 310 l 1
 984 340 l 1
 1157 800 l 2
 1166 824 1184 840 1213 840 c 2
 1443 840 l 2
 1466 840 1479 831 1479 818 c 0
 1479 817 1479 816 1479 815 c 0
 1478 811 1476 804 1474 800 c 2
 1111 40 l 1
 1106 27 1085 0 1060 0 c 2
 820 0 l 2
 791 0 778 13 776 40 c 2
 752 420 l 1
 606 40 l 2
 596 13 579 0 550 0 c 2
 310 0 l 2
 285 0 272 27 271 40 c 1
 150 800 l 2
 150 803 149 808 149 812 c 0
 149 830 167 840 193 840 c 2
EndSplineSet
Colour: ffff00
EndChar

StartChar: X
Encoding: 88 88 168
Width: 940
VWidth: 0
Flags: W
HStem: 0 21G<48.5 319.5 620.5 892.5> 820 20G<210.5 462.5 743.5 994.5>
LayerCount: 2
Fore
SplineSet
31 40 m 2
 338 430 l 1
 182 800 l 2
 180 805 178 811 179 815 c 0
 181 830 198 840 223 840 c 2
 448 840 l 2
 477 840 485 827 497 800 c 1
 562 580 l 1
 697 800 l 1
 717 827 729 840 758 840 c 2
 983 840 l 2
 1006 840 1019 831 1019 818 c 0
 1019 817 1019 816 1019 815 c 0
 1018 811 1016 805 1012 800 c 2
 738 430 l 1
 921 40 l 2
 923 35 925 29 924 25 c 0
 922 10 905 0 880 0 c 2
 635 0 l 2
 606 0 598 13 586 40 c 1
 510 250 l 1
 366 40 l 1
 346 13 334 0 305 0 c 2
 60 0 l 2
 37 0 24 9 24 22 c 0
 24 29 26 34 31 40 c 2
EndSplineSet
Colour: ffff00
EndChar

StartChar: Y
Encoding: 89 89 169
Width: 940
VWidth: 0
Flags: W
HStem: 0 21G<360 581> 820 20G<190.5 442.5 763.5 1014.5>
LayerCount: 2
Fore
SplineSet
203 840 m 2
 428 840 l 2
 457 840 465 827 477 800 c 1
 556 540 l 1
 717 800 l 1
 737 827 749 840 778 840 c 2
 1003 840 l 2
 1026 840 1039 831 1039 818 c 0
 1039 817 1039 816 1039 815 c 0
 1038 811 1036 805 1032 800 c 2
 654 280 l 1
 616 40 l 2
 613 18 592 0 570 0 c 2
 370 0 l 2
 350 0 336 15 336 34 c 0
 336 36 336 38 336 40 c 2
 374 280 l 1
 162 800 l 2
 160 804 159 808 159 812 c 0
 159 829 178 840 203 840 c 2
EndSplineSet
Colour: ffff00
EndChar

StartChar: Z
Encoding: 90 90 170
Width: 830
VWidth: 0
Flags: W
HStem: 0 210<443 801.059> 630 210<191.941 520>
LayerCount: 2
Fore
SplineSet
36 40 m 2
 55 155 l 2
 59 183 83 202 106 225 c 2
 520 630 l 1
 200 630 l 2
 180 630 166 645 166 664 c 0
 166 666 166 668 166 670 c 2
 187 800 l 2
 190 822 211 840 233 840 c 2
 863 840 l 2
 883 840 897 825 897 806 c 0
 897 804 897 802 897 800 c 2
 876 670 l 2
 872 642 848 623 825 600 c 2
 443 210 l 1
 793 210 l 2
 813 210 827 195 827 176 c 0
 827 174 827 172 827 170 c 2
 806 40 l 2
 803 18 782 0 760 0 c 2
 70 0 l 2
 50 0 36 15 36 34 c 0
 36 36 36 38 36 40 c 2
EndSplineSet
Colour: ffff00
EndChar

StartChar: bracketleft
Encoding: 91 91 171
Width: 480
VWidth: 0
Flags: W
HStem: -150 170<293 419.912> 700 170<401 554.912>
LayerCount: 2
Fore
SplineSet
33 -110 m 2
 181 830 l 2
 184 852 206 870 228 870 c 2
 548 870 l 2
 562 870 573 859 573 845 c 0
 573 843 573 842 573 840 c 2
 556 730 l 2
 553 714 537 700 521 700 c 2
 401 700 l 1
 293 20 l 1
 413 20 l 2
 427 20 438 9 438 -5 c 0
 438 -7 438 -8 438 -10 c 2
 421 -120 l 2
 418 -136 402 -150 386 -150 c 2
 66 -150 l 2
 46 -150 32 -135 32 -116 c 0
 32 -114 33 -112 33 -110 c 2
EndSplineSet
Colour: ffff00
EndChar

StartChar: backslash
Encoding: 92 92 172
Width: 600
VWidth: 0
Flags: W
HStem: 0 21G<380.5 548> 820 20G<184 352.5>
VStem: 168 397
LayerCount: 2
Fore
SplineSet
192 840 m 2
 341 840 l 2
 364 840 377 826 380 810 c 2
 563 30 l 1
 563 30 565 23 565 16 c 0
 565 15 565 13 565 12 c 0
 564 4 555 0 541 0 c 2
 392 0 l 2
 369 0 356 14 353 30 c 2
 170 810 l 1
 170 810 168 817 168 824 c 0
 168 836 176 840 192 840 c 2
EndSplineSet
Colour: ffff00
EndChar

StartChar: bracketright
Encoding: 93 93 173
Width: 480
VWidth: 0
Flags: W
HStem: -150 170<39.0877 193> 700 170<174.088 301>
LayerCount: 2
Fore
SplineSet
561 830 m 2
 413 -110 l 2
 410 -132 388 -150 366 -150 c 2
 46 -150 l 2
 32 -150 21 -139 21 -125 c 0
 21 -123 21 -122 21 -120 c 2
 38 -10 l 2
 41 6 57 20 73 20 c 2
 193 20 l 1
 301 700 l 1
 181 700 l 2
 167 700 156 711 156 725 c 0
 156 727 156 728 156 730 c 2
 173 840 l 2
 176 856 192 870 208 870 c 2
 528 870 l 2
 548 870 562 855 562 836 c 0
 562 834 561 832 561 830 c 2
EndSplineSet
Colour: ffff00
EndChar

StartChar: asciicircum
Encoding: 94 94 174
Width: 600
VWidth: 0
Flags: W
HStem: 600 240<487.634 539.766>
LayerCount: 2
Fore
SplineSet
132 645 m 1
 313 810 l 2
 333 828 348 840 373 840 c 2
 433 840 l 1
 493 840 l 2
 518 840 529 828 543 810 c 2
 672 645 l 1
 675 639 679 635 679 626 c 0
 679 624 678 622 678 620 c 0
 677 612 669 600 655 600 c 2
 537 600 l 2
 517 600 504 612 485 628 c 2
 409 690 l 1
 313 628 l 2
 288 612 273 600 253 600 c 2
 135 600 l 2
 123 600 118 609 118 617 c 0
 118 631 126 638 132 645 c 1
EndSplineSet
Colour: ffff00
EndChar

StartChar: underscore
Encoding: 95 95 175
Width: 700
VWidth: 0
Flags: W
HStem: -180 180<45.935 625.065>
LayerCount: 2
Fore
SplineSet
45 -30 m 2
 48 -14 64 0 80 0 c 2
 620 0 l 2
 634 0 645 -11 645 -25 c 0
 645 -27 645 -28 645 -30 c 2
 626 -150 l 2
 623 -166 607 -180 591 -180 c 2
 51 -180 l 2
 37 -180 26 -169 26 -155 c 0
 26 -153 26 -152 26 -150 c 2
 45 -30 l 2
EndSplineSet
Colour: ffff00
EndChar

StartChar: grave
Encoding: 96 96 176
Width: 450
VWidth: 0
Flags: W
HStem: 600 240<328.332 381.598>
VStem: 130 379
LayerCount: 2
Fore
SplineSet
153 840 m 2
 338 840 l 2
 361 840 374 826 384 810 c 2
 502 645 l 2
 505 639 509 635 509 626 c 0
 509 624 508 622 508 620 c 0
 507 612 499 600 485 600 c 2
 375 600 l 2
 355 600 343 612 324 630 c 2
 149 785 l 1
 149 785 130 799 130 816 c 0
 130 827 138 840 153 840 c 2
EndSplineSet
Colour: ffff00
EndChar

StartChar: v
Encoding: 118 118 177
Width: 780
VWidth: 0
Flags: W
HStem: 0 21G<247.5 532.5> 580 20G<142.5 369.5 600.5 826.5>
VStem: 111 288<454.375 597.765>
LayerCount: 2
Fore
SplineSet
155 600 m 2
 355 600 l 2
 384 600 396 587 399 560 c 2
 420 250 l 1
 420 220 l 1
 425 220 l 1
 430 220 l 1
 440 250 l 1
 559 560 l 2
 570 587 586 600 615 600 c 2
 815 600 l 2
 838 600 851 591 851 578 c 0
 851 577 851 576 851 575 c 0
 850 571 848 565 844 560 c 1
 571 40 l 1
 566 27 545 0 520 0 c 2
 390 0 l 1
 260 0 l 2
 235 0 222 27 221 40 c 1
 114 560 l 1
 112 564 111 568 111 572 c 0
 111 589 130 600 155 600 c 2
EndSplineSet
Colour: ffff00
EndChar

StartChar: w
Encoding: 119 119 178
Width: 1050
VWidth: 0
Flags: W
HStem: 0 21G<200 438.5 611.5 850> 580 20G<139.5 369.5 560.5 679.5 870.5 1099>
VStem: 107 284<373.125 598.622>
LayerCount: 2
Fore
SplineSet
155 600 m 2
 355 600 l 2
 384 600 393 587 394 560 c 2
 393 270 l 1
 391 230 l 1
 401 230 l 1
 413 270 l 1
 529 560 l 2
 538 584 546 600 575 600 c 2
 620 600 l 1
 665 600 l 2
 694 600 698 584 699 560 c 2
 723 270 l 1
 721 230 l 1
 731 230 l 1
 743 270 l 1
 834 560 l 2
 843 587 856 600 885 600 c 2
 1085 600 l 2
 1113 600 1127 596 1127 583 c 0
 1127 582 1127 581 1127 580 c 0
 1126 575 1122 565 1119 560 c 2
 886 40 l 2
 877 19 865 0 835 0 c 2
 625 0 l 2
 598 0 590 16 586 40 c 1
 565 250 l 1
 476 40 l 1
 464 16 452 0 425 0 c 2
 215 0 l 2
 185 0 179 19 176 40 c 2
 109 560 l 2
 108 564 107 571 107 576 c 0
 107 595 124 600 155 600 c 2
EndSplineSet
Colour: ffff00
EndChar

StartChar: x
Encoding: 120 120 179
Width: 760
VWidth: 0
Flags: W
HStem: 0 21G<48.5 284.5 475.5 712.5> 580 20G<162.5 384.5 565.5 786.5>
LayerCount: 2
Fore
SplineSet
31 40 m 2
 249 310 l 1
 134 560 l 2
 132 565 130 571 131 575 c 0
 133 590 150 600 175 600 c 2
 370 600 l 2
 399 600 407 587 414 560 c 2
 447 420 l 1
 524 560 l 2
 539 587 551 600 580 600 c 2
 775 600 l 2
 798 600 811 591 811 578 c 0
 811 577 811 576 811 575 c 0
 810 571 808 565 804 560 c 2
 609 310 l 1
 741 40 l 2
 743 35 745 29 744 25 c 0
 742 10 725 0 700 0 c 2
 490 0 l 2
 461 0 454 13 446 40 c 2
 409 180 l 1
 326 40 l 2
 310 13 299 0 270 0 c 2
 60 0 l 2
 37 0 24 9 24 22 c 0
 24 29 26 34 31 40 c 2
EndSplineSet
Colour: ffff00
EndChar

StartChar: y
Encoding: 121 121 180
Width: 780
VWidth: 0
Flags: W
HStem: -260 170<90.2222 267.271> 580 20G<142.5 369.5 600.5 826.5>
LayerCount: 2
Fore
SplineSet
111 575 m 0
 113 590 130 600 155 600 c 2
 355 600 l 2
 384 600 396 587 399 560 c 2
 420 250 l 1
 420 220 l 1
 425 220 l 1
 430 220 l 1
 440 250 l 1
 559 560 l 2
 570 587 586 600 615 600 c 2
 815 600 l 2
 838 600 851 591 851 578 c 0
 851 571 849 566 844 560 c 1
 550 0 l 1
 459 -210 328 -260 209 -260 c 0
 143 -260 93 -247 67 -240 c 0
 49 -235 22 -222 22 -207 c 0
 22 -194 32 -184 37 -175 c 2
 84 -90 l 2
 91 -78 99 -65 110 -65 c 0
 130 -65 149 -90 196 -90 c 0
 261 -90 284 -54 309 -3 c 1
 258 9 221 41 204 120 c 1
 114 560 l 1
 112 565 110 571 111 575 c 0
EndSplineSet
Colour: ffff00
EndChar

StartChar: braceleft
Encoding: 123 123 181
Width: 480
VWidth: 0
Flags: W
HStem: 700 170<468.448 564.912>
VStem: 118 251<-67.5 99.5469> 151 245<58.1677 288.085>
LayerCount: 2
Fore
SplineSet
65 345 m 2xa0
 67 360 l 1
 69 375 l 2
 72 391 89 399 104 405 c 0
 118 410 191 445 206 540 c 2
 234 720 l 2
 249 816 324 870 418 870 c 2
 558 870 l 2
 572 870 583 859 583 845 c 0
 583 843 583 842 583 840 c 2
 566 730 l 2
 563 714 547 700 531 700 c 2
 511 700 l 2
 475 700 468 685 461 640 c 2
 441 510 l 2
 423 395 337 360 337 360 c 1
 337 360 396 332 396 245 c 0xa0
 396 234 395 223 393 210 c 2
 373 80 l 2
 371 67 369 56 369 48 c 0xc0
 369 27 377 20 403 20 c 2
 423 20 l 2
 437 20 448 9 448 -5 c 0
 448 -7 448 -8 448 -10 c 2
 431 -120 l 2
 428 -136 412 -150 396 -150 c 2xa0
 256 -150 l 2
 172 -150 118 -106 118 -29 c 0xc0
 118 -20 118 -10 120 0 c 2
 149 180 l 2
 151 190 151 200 151 209 c 0
 151 283 101 311 90 315 c 0
 78 320 65 328 65 341 c 0
 65 342 65 344 65 345 c 2xa0
EndSplineSet
Colour: ffff00
EndChar

StartChar: bar
Encoding: 124 124 182
Width: 360
VWidth: 0
Flags: W
VStem: 56 362
LayerCount: 2
Fore
SplineSet
56 -120 m 2
 208 840 l 2
 211 856 227 870 243 870 c 2
 393 870 l 2
 407 870 418 859 418 845 c 0
 418 843 418 842 418 840 c 2
 266 -120 l 2
 263 -136 247 -150 231 -150 c 2
 81 -150 l 2
 67 -150 56 -139 56 -125 c 0
 56 -123 56 -122 56 -120 c 2
EndSplineSet
Colour: ffff00
EndChar

StartChar: braceright
Encoding: 125 125 183
Width: 480
VWidth: 0
Flags: W
HStem: -150 170<29.0877 125.552>
VStem: 198 245<431.915 661.832> 225 251<618.422 787.5>
LayerCount: 2
Fore
SplineSet
529 375 m 2xc0
 527 360 l 1
 525 345 l 2
 522 329 505 321 490 315 c 0
 476 310 404 275 389 180 c 2
 360 0 l 2
 345 -96 270 -150 176 -150 c 2
 36 -150 l 2
 22 -150 11 -139 11 -125 c 0
 11 -123 11 -122 11 -120 c 2
 28 -10 l 2
 31 6 47 20 63 20 c 2
 83 20 l 2
 119 20 126 35 133 80 c 2
 153 210 l 2
 171 325 257 360 257 360 c 1
 257 360 198 388 198 475 c 0xc0
 198 486 199 497 201 510 c 2
 221 640 l 2
 223 653 225 664 225 672 c 0xa0
 225 693 217 700 191 700 c 2
 171 700 l 2
 157 700 146 711 146 725 c 0
 146 727 146 728 146 730 c 2
 163 840 l 2
 166 856 182 870 198 870 c 2xc0
 338 870 l 2
 422 870 476 826 476 749 c 0xa0
 476 740 476 730 474 720 c 2
 446 540 l 2
 444 530 443 520 443 511 c 0
 443 437 493 409 504 405 c 0
 516 400 529 392 529 379 c 0
 529 378 529 376 529 375 c 2xc0
EndSplineSet
Colour: ffff00
EndChar

StartChar: asciitilde
Encoding: 126 126 184
Width: 650
VWidth: 0
Flags: W
HStem: 240 180<409.205 541.781> 300 180<222.306 354.804>
LayerCount: 2
Fore
SplineSet
95 316 m 0x40
 102 362 164 480 296 480 c 0x40
 343 480 368 465 401 450 c 0
 439 432 464 420 497 420 c 0
 525 420 542 443 555 460 c 0
 561 468 568 475 577 475 c 0
 588 475 594 470 594 470 c 1
 659 433 l 2
 668 428 670 420 670 412 c 0
 670 409 669 407 669 404 c 0
 662 358 600 240 468 240 c 0x80
 421 240 396 255 363 270 c 0
 325 288 301 300 268 300 c 0
 240 300 222 277 209 260 c 0
 203 252 196 245 187 245 c 0
 176 245 170 250 170 250 c 1
 105 287 l 2
 96 292 94 300 94 308 c 0
 94 311 95 313 95 316 c 0x40
EndSplineSet
Colour: ffff00
EndChar

StartChar: Euro
Encoding: 8364 8364 185
Width: 810
VWidth: 0
Flags: W
HStem: -20 240<495.366 676.577> 275 120<79.1053 145.154 470 647.062> 445 120<105.938 150 515 673.895> 620 240<550.654 752.102>
LayerCount: 2
Fore
SplineSet
68 305 m 2
 78 365 l 2
 81 381 97 395 113 395 c 2
 143 395 l 1
 144 403 146 412 147 420 c 0
 148 428 149 437 150 445 c 1
 120 445 l 2
 106 445 95 456 95 470 c 0
 95 472 95 473 95 475 c 2
 105 535 l 2
 108 551 123 565 139 565 c 2
 187 565 l 1
 259 735 411 860 646 860 c 0
 809 860 883 795 893 788 c 0
 903 781 913 772 913 761 c 0
 913 749 908 742 901 733 c 2
 809 603 l 2
 800 590 790 580 779 580 c 0
 772 580 764 587 758 590 c 0
 751 594 721 620 648 620 c 0
 589 620 546 600 515 565 c 1
 659 565 l 2
 673 565 685 554 685 540 c 0
 685 538 685 537 685 535 c 2
 675 475 l 2
 672 459 656 445 640 445 c 2
 461 445 l 1
 459 437 458 429 457 420 c 0
 456 411 454 403 454 395 c 1
 633 395 l 2
 647 395 658 384 658 370 c 0
 658 368 658 367 658 365 c 2
 648 305 l 2
 645 289 630 275 614 275 c 2
 470 275 l 1
 489 240 526 220 585 220 c 0
 658 220 696 246 705 250 c 0
 711 253 721 260 728 260 c 0
 739 260 746 250 751 237 c 2
 802 107 l 2
 806 98 808 92 806 82 c 0
 804 70 789 60 776 52 c 0
 764 45 670 -20 507 -20 c 0
 272 -20 160 105 142 275 c 1
 94 275 l 2
 80 275 68 286 68 300 c 0
 68 302 68 303 68 305 c 2
EndSplineSet
Colour: ffff00
EndChar

StartChar: quoteleft
Encoding: 8216 8216 186
Width: 360
VWidth: 0
Flags: W
HStem: 768 92<365.98 437.947>
VStem: 138 302
LayerCount: 2
Fore
SplineSet
440 785 m 0
 438 774 429 770 421 768 c 0
 390 762 336 746 315 660 c 1
 375 660 l 2
 389 660 400 649 400 635 c 0
 400 633 400 632 400 630 c 2
 378 490 l 2
 375 474 359 460 343 460 c 2
 163 460 l 2
 149 460 138 471 138 485 c 0
 138 487 138 488 138 490 c 2
 160 630 l 2
 184 784 312 860 416 860 c 0
 427 860 437 854 438 840 c 2
 440 791 l 1
 440 791 440 788 440 785 c 0
EndSplineSet
Colour: ff00ff
EndChar

StartChar: quoteright
Encoding: 8217 8217 187
Width: 360
VWidth: 0
Flags: W
HStem: 440 92<128.053 200.02> 820 20G<215 410>
VStem: 126 302
LayerCount: 2
Fore
SplineSet
126 515 m 0
 128 526 137 530 145 532 c 0
 176 538 230 554 251 640 c 1
 191 640 l 2
 177 640 166 651 166 665 c 0
 166 667 166 668 166 670 c 2
 188 810 l 2
 191 826 207 840 223 840 c 2
 403 840 l 2
 417 840 428 829 428 815 c 0
 428 813 428 812 428 810 c 2
 406 670 l 2
 382 516 254 440 150 440 c 0
 139 440 129 446 128 460 c 2
 126 509 l 1
 126 509 126 512 126 515 c 0
EndSplineSet
Colour: ff00ff
EndChar

StartChar: quotedblleft
Encoding: 8220 8220 188
Width: 660
VWidth: 0
Flags: W
HStem: 460 200<315 376.948 615 676.948> 768 92<365.98 437.947 665.98 737.947>
LayerCount: 2
Fore
SplineSet
740 785 m 0
 738 774 729 770 721 768 c 0
 690 762 636 746 615 660 c 1
 675 660 l 2
 689 660 700 649 700 635 c 0
 700 633 700 632 700 630 c 2
 678 490 l 2
 675 474 659 460 643 460 c 2
 463 460 l 2
 449 460 438 471 438 485 c 0
 438 487 438 488 438 490 c 2
 460 630 l 2
 484 784 612 860 716 860 c 0
 727 860 737 854 738 840 c 2
 740 791 l 1
 740 791 740 788 740 785 c 0
440 785 m 0
 438 774 429 770 421 768 c 0
 390 762 336 746 315 660 c 1
 375 660 l 2
 389 660 400 649 400 635 c 0
 400 633 400 632 400 630 c 2
 378 490 l 2
 375 474 359 460 343 460 c 2
 163 460 l 2
 149 460 138 471 138 485 c 0
 138 487 138 488 138 490 c 2
 160 630 l 2
 184 784 312 860 416 860 c 0
 427 860 437 854 438 840 c 2
 440 791 l 1
 440 791 440 788 440 785 c 0
EndSplineSet
Colour: ff00ff
EndChar

StartChar: quotedblright
Encoding: 8221 8221 189
Width: 660
VWidth: 0
Flags: W
HStem: 440 92<128.053 200.02 428.053 500.02> 640 200<189.052 251 489.052 551>
LayerCount: 2
Fore
SplineSet
426 515 m 0
 428 526 437 530 445 532 c 0
 476 538 530 554 551 640 c 1
 491 640 l 2
 477 640 466 651 466 665 c 0
 466 667 466 668 466 670 c 2
 488 810 l 2
 491 826 507 840 523 840 c 2
 703 840 l 2
 717 840 728 829 728 815 c 0
 728 813 728 812 728 810 c 2
 706 670 l 2
 682 516 554 440 450 440 c 0
 439 440 429 446 428 460 c 2
 426 509 l 1
 426 509 426 512 426 515 c 0
126 515 m 0
 128 526 137 530 145 532 c 0
 176 538 230 554 251 640 c 1
 191 640 l 2
 177 640 166 651 166 665 c 0
 166 667 166 668 166 670 c 2
 188 810 l 2
 191 826 207 840 223 840 c 2
 403 840 l 2
 417 840 428 829 428 815 c 0
 428 813 428 812 428 810 c 2
 406 670 l 2
 382 516 254 440 150 440 c 0
 139 440 129 446 128 460 c 2
 126 509 l 1
 126 509 126 512 126 515 c 0
EndSplineSet
Colour: ff00ff
EndChar

StartChar: bullet
Encoding: 8226 8226 190
Width: 400
VWidth: 0
Flags: W
HStem: 210 300<193.337 320.663>
VStem: 105 304<298.202 421.798>
LayerCount: 2
Fore
SplineSet
107 360 m 0
 120 443 198 510 281 510 c 0
 356 510 409 456 409 384 c 0
 409 376 408 368 407 360 c 0
 394 277 316 210 233 210 c 0
 158 210 105 264 105 336 c 0
 105 344 106 352 107 360 c 0
EndSplineSet
Colour: ffff00
EndChar

StartChar: endash
Encoding: 8211 8211 191
Width: 770
VWidth: 0
Flags: W
HStem: 270 180<117.918 776.76>
LayerCount: 2
Fore
SplineSet
98 300 m 2
 117 420 l 2
 120 436 135 450 151 450 c 2
 771 450 l 2
 785 450 797 439 797 425 c 0
 797 423 797 422 797 420 c 2
 778 300 l 2
 775 284 759 270 743 270 c 2
 123 270 l 2
 109 270 98 281 98 295 c 0
 98 297 98 298 98 300 c 2
EndSplineSet
Colour: ffff00
EndChar

StartChar: emdash
Encoding: 8212 8212 192
Width: 1100
VWidth: 0
Flags: W
HStem: 270 180<117.918 1106.76>
LayerCount: 2
Fore
SplineSet
98 300 m 2
 117 420 l 2
 120 436 135 450 151 450 c 2
 1101 450 l 2
 1115 450 1127 439 1127 425 c 0
 1127 423 1127 422 1127 420 c 2
 1108 300 l 2
 1105 284 1089 270 1073 270 c 2
 123 270 l 2
 109 270 98 281 98 295 c 0
 98 297 98 298 98 300 c 2
EndSplineSet
Colour: ffff00
EndChar

StartChar: ellipsis
Encoding: 8230 8230 193
Width: 1020
VWidth: 0
Flags: W
HStem: 0 200<88.0518 303.948 418.052 633.948 748.052 963.948>
LayerCount: 2
Fore
SplineSet
725 30 m 2
 747 170 l 2
 750 186 766 200 782 200 c 2
 962 200 l 2
 976 200 987 189 987 175 c 0
 987 173 987 172 987 170 c 2
 965 30 l 2
 962 14 946 0 930 0 c 2
 750 0 l 2
 736 0 725 11 725 25 c 0
 725 27 725 28 725 30 c 2
395 30 m 2
 417 170 l 2
 420 186 436 200 452 200 c 2
 632 200 l 2
 646 200 657 189 657 175 c 0
 657 173 657 172 657 170 c 2
 635 30 l 2
 632 14 616 0 600 0 c 2
 420 0 l 2
 406 0 395 11 395 25 c 0
 395 27 395 28 395 30 c 2
65 30 m 2
 87 170 l 2
 90 186 106 200 122 200 c 2
 302 200 l 2
 316 200 327 189 327 175 c 0
 327 173 327 172 327 170 c 2
 305 30 l 2
 302 14 286 0 270 0 c 2
 90 0 l 2
 76 0 65 11 65 25 c 0
 65 27 65 28 65 30 c 2
EndSplineSet
Colour: ffff00
EndChar

StartChar: uni0E33.alt
Encoding: 60979 60979 195
Width: 540
VWidth: 0
Flags: W
HStem: 0 21G<240 461> 410 200<178.628 418.5> 670 90<-445.171 -374.041> 850 90<-441.428 -369.829>
VStem: -584 136<761.802 843.529> -367 136<766.142 848.819> 268 287<248.594 495.5>
LayerCount: 2
Fore
SplineSet
89 530 m 0
 91 542 99 549 119 560 c 1
 119 560 212 610 347 610 c 0
 490 610 555 552 555 439 c 0
 555 421 553 401 550 380 c 2
 496 40 l 2
 493 18 472 0 450 0 c 2
 250 0 l 2
 230 0 216 15 216 34 c 0
 216 36 216 38 216 40 c 2
 267 360 l 2
 268 366 268 371 268 376 c 0
 268 401 255 410 225 410 c 0
 199 410 175 404 153 395 c 0
 143 391 132 385 121 385 c 0
 110 385 106 393 104 405 c 2
 90 505 l 1
 90 505 88 522 89 530 c 0
-448 805 m 0
 -449 801 -448 798 -448 795 c 0
 -448 772 -434 760 -415 760 c 0
 -393 760 -373 775 -368 805 c 0
 -367 809 -367 812 -367 815 c 0
 -367 838 -381 850 -400 850 c 0
 -422 850 -443 835 -448 805 c 0
-583 805 m 0
 -570 884 -500 940 -386 940 c 0
 -283 940 -231 894 -231 827 c 0
 -231 820 -232 813 -233 805 c 0
 -246 726 -315 670 -429 670 c 0
 -532 670 -584 716 -584 783 c 0
 -584 790 -584 797 -583 805 c 0
EndSplineSet
Colour: ffff00
EndChar

StartChar: uni0E31.left
Encoding: 60977 60977 196
Width: 0
VWidth: 0
Flags: W
HStem: 690 150<-462 -267.188>
LayerCount: 2
Fore
SplineSet
-676 780 m 0
 -670 821 -641 870 -641 870 c 1
 -632 886 -616 900 -596 900 c 2
 -462 900 l 2
 -451 900 -444 893 -444 883 c 0
 -444 879 -445 875 -447 870 c 2
 -462 840 l 1
 -277 840 l 2
 -263 840 -252 829 -252 815 c 0
 -252 813 -252 812 -252 810 c 2
 -266 720 l 2
 -269 704 -285 690 -301 690 c 2
 -581 690 l 2
 -637 690 -678 716 -678 765 c 0
 -678 770 -677 775 -676 780 c 0
EndSplineSet
Colour: ffff00
EndChar

StartChar: uni0E34.left
Encoding: 60980 60980 197
Width: 0
VWidth: 0
Flags: W
HStem: 690 150<-680.812 -277.188>
LayerCount: 2
Fore
SplineSet
-696 720 m 2
 -682 810 l 2
 -679 826 -663 840 -647 840 c 2
 -287 840 l 2
 -273 840 -262 829 -262 815 c 0
 -262 813 -262 812 -262 810 c 2
 -276 720 l 2
 -279 704 -295 690 -311 690 c 2
 -671 690 l 2
 -685 690 -696 701 -696 715 c 0
 -696 717 -696 718 -696 720 c 2
EndSplineSet
Colour: ffff00
EndChar

StartChar: uni0E35.left
Encoding: 60981 60981 198
Width: 0
VWidth: 0
Flags: W
HStem: 690 230<-418.065 -256.935> 690 150<-690.812 -443.253>
LayerCount: 2
Fore
SplineSet
-706 720 m 2x40
 -692 810 l 2
 -689 826 -673 840 -657 840 c 2
 -507 840 l 2x40
 -451 840 -433 800 -433 800 c 1
 -419 890 l 2
 -416 906 -400 920 -384 920 c 2
 -254 920 l 2
 -240 920 -229 909 -229 895 c 0
 -229 893 -229 892 -229 890 c 2
 -256 720 l 2
 -259 704 -275 690 -291 690 c 2x80
 -681 690 l 2
 -695 690 -706 701 -706 715 c 0
 -706 717 -706 718 -706 720 c 2x40
EndSplineSet
Colour: ffff00
EndChar

StartChar: uni0E36.left
Encoding: 60982 60982 199
Width: 0
VWidth: 0
Flags: W
HStem: 690 150<-700.812 -503.092> 690 80<-397.861 -333.522> 850 80<-391.753 -326.811>
VStem: -493 95<798.154 844.876> -326 96<774.201 849.897>
LayerCount: 2
Fore
SplineSet
-397 810 m 0x78
 -398 807 -398 803 -398 800 c 0
 -398 780 -386 770 -368 770 c 0
 -347 770 -331 784 -327 810 c 0
 -326 813 -326 817 -326 820 c 0
 -326 840 -337 850 -355 850 c 0
 -376 850 -393 836 -397 810 c 0x78
-716 720 m 2
 -702 810 l 2
 -699 826 -683 840 -667 840 c 2
 -547 840 l 2xb8
 -521 840 -504 819 -493 798 c 1
 -493 802 -493 806 -492 810 c 0
 -481 882 -419 930 -343 930 c 0
 -275 930 -230 891 -230 831 c 0
 -230 824 -231 817 -232 810 c 0
 -243 738 -305 690 -381 690 c 2x78
 -691 690 l 2xb8
 -705 690 -716 701 -716 715 c 0
 -716 717 -716 718 -716 720 c 2
EndSplineSet
Colour: ffff00
EndChar

StartChar: uni0E37.left
Encoding: 60983 60983 200
Width: 0
VWidth: 0
Flags: W
HStem: 690 230<-536.9 -425 -424 -413 -357.844 -256.935> 690 150<-700.812 -561.113> 690 100<-425 -375>
LayerCount: 2
Fore
SplineSet
-716 720 m 2x40
 -702 810 l 2
 -699 826 -683 840 -667 840 c 2
 -617 840 l 2x40
 -566 840 -553 800 -553 800 c 1
 -537 900 l 2
 -535 911 -525 920 -514 920 c 2
 -424 920 l 2x80
 -413 920 -405 911 -407 900 c 2
 -425 790 l 1
 -375 790 l 1x20
 -357 900 l 2
 -355 911 -345 920 -334 920 c 2
 -244 920 l 2
 -233 920 -225 911 -227 900 c 2
 -256 720 l 2
 -259 704 -275 690 -291 690 c 2x80
 -691 690 l 2
 -705 690 -716 701 -716 715 c 0
 -716 717 -716 718 -716 720 c 2x40
EndSplineSet
Colour: ffff00
EndChar

StartChar: uni0E38.low
Encoding: 60984 60984 201
Width: 0
VWidth: -200
Flags: W
HStem: -490 220<-341.56 -154.579>
VStem: -387 256<-388.906 -304>
LayerCount: 2
Fore
SplineSet
-378 -300 m 2
 -375 -284 -359 -270 -343 -270 c 2
 -183 -270 l 2
 -151 -270 -131 -289 -131 -318 c 0
 -131 -322 -131 -326 -132 -330 c 2
 -153 -460 l 2
 -156 -476 -172 -490 -188 -490 c 2
 -328 -490 l 2
 -342 -490 -353 -479 -353 -465 c 0
 -353 -463 -353 -462 -353 -460 c 2
 -342 -390 l 1
 -362 -390 l 2
 -376 -390 -387 -379 -387 -365 c 0
 -387 -363 -387 -362 -387 -360 c 2
 -378 -300 l 2
EndSplineSet
Colour: ffff00
EndChar

StartChar: uni0E39.low
Encoding: 60985 60985 202
Width: 0
VWidth: 0
Flags: W
HStem: -490 220<-561.291 -383.36 -297.065 -156.457> -490 90<-383 -313>
LayerCount: 2
Fore
SplineSet
-598 -300 m 2x80
 -595 -284 -579 -270 -563 -270 c 2
 -423 -270 l 2x80
 -391 -270 -371 -289 -371 -318 c 0
 -371 -322 -371 -326 -372 -330 c 2
 -383 -400 l 1
 -313 -400 l 1x40
 -298 -300 l 2
 -295 -284 -279 -270 -263 -270 c 2
 -143 -270 l 2
 -129 -270 -118 -281 -118 -295 c 0
 -118 -297 -118 -298 -118 -300 c 2
 -138 -430 l 2
 -144 -465 -178 -490 -238 -490 c 2
 -488 -490 l 2
 -543 -490 -569 -469 -569 -439 c 0
 -569 -436 -568 -433 -568 -430 c 2
 -562 -390 l 1
 -582 -390 l 2
 -596 -390 -607 -379 -607 -365 c 0
 -607 -363 -607 -362 -607 -360 c 2
 -598 -300 l 2x80
EndSplineSet
Colour: ffff00
EndChar

StartChar: uni0E3A.low
Encoding: 60986 60986 203
Width: 0
VWidth: 0
Flags: W
HStem: -430 160<-346.673 -164.327>
VStem: -363 215<-356 -344>
LayerCount: 2
Fore
SplineSet
-348 -300 m 2
 -345 -284 -329 -270 -313 -270 c 2
 -173 -270 l 2
 -159 -270 -148 -281 -148 -295 c 0
 -148 -297 -148 -298 -148 -300 c 2
 -163 -400 l 2
 -166 -416 -182 -430 -198 -430 c 2
 -338 -430 l 2
 -352 -430 -363 -419 -363 -405 c 0
 -363 -403 -363 -402 -363 -400 c 2
 -348 -300 l 2
EndSplineSet
Colour: ffff00
EndChar

StartChar: uni0E47.left
Encoding: 60999 60999 204
Width: 0
VWidth: 0
Flags: W
HStem: 670 115<-591.5 -449.389> 680 140<-398.987 -271.995> 865 115<-516.738 -219.018>
VStem: -691 166<788.112 855.203>
LayerCount: 2
Fore
SplineSet
-689 825 m 0xb0
 -676 907 -608 980 -490 980 c 2
 -235 980 l 2
 -221 980 -210 969 -210 955 c 0
 -210 953 -210 952 -210 950 c 2
 -218 895 l 2
 -221 879 -237 865 -253 865 c 2
 -468 865 l 2
 -495 865 -520 852 -524 825 c 0
 -524 823 -525 820 -525 818 c 0
 -525 796 -506 785 -481 785 c 0xb0
 -457 785 -443 794 -434 805 c 0
 -428 813 -421 820 -410 820 c 2
 -298 820 l 2
 -282 820 -275 806 -271 790 c 2
 -249 710 l 1
 -249 710 -244 699 -245 695 c 0
 -247 685 -259 680 -270 680 c 2
 -372 680 l 2x70
 -388 680 -396 694 -400 710 c 1
 -405 742 l 1
 -428 706 -469 670 -539 670 c 0
 -644 670 -691 727 -691 798 c 0
 -691 807 -690 816 -689 825 c 0xb0
EndSplineSet
Colour: ffff00
EndChar

StartChar: uni0E4D.high
Encoding: 61005 61005 205
Width: 0
VWidth: 300
Flags: W
HStem: 920 75<-90.6892 -26.5602> 1075 75<-85.4398 -21.3108>
VStem: -207 115<995.25 1070.76> -20 115<999.244 1074.75>
AnchorPoint: "th-mkmk" 0 0 mark 0
LayerCount: 2
Fore
SplineSet
-91 1035 m 0
 -92 1032 -92 1029 -92 1026 c 0
 -92 1007 -81 995 -62 995 c 0
 -40 995 -25 1011 -21 1035 c 0
 -20 1038 -20 1041 -20 1044 c 0
 -20 1063 -31 1075 -50 1075 c 0
 -72 1075 -87 1059 -91 1035 c 0
-206 1035 m 0
 -196 1100 -133 1150 -38 1150 c 0
 48 1150 95 1108 95 1052 c 0
 95 1046 95 1041 94 1035 c 0
 84 970 21 920 -74 920 c 0
 -160 920 -207 962 -207 1018 c 0
 -207 1024 -207 1029 -206 1035 c 0
EndSplineSet
Substitution2: "TH Nikhahit High-Left" uni0E4D.high.left
Colour: ffff00
EndChar

StartChar: uni0E48.low
Encoding: 61000 61000 206
Width: 0
VWidth: 0
Flags: W
HStem: 690 230<-148.065 23.065>
VStem: -176 227
AnchorPoint: "th-vow-above" 35 660 mark 0
LayerCount: 2
Fore
SplineSet
-176 720 m 2
 -149 890 l 2
 -146 906 -130 920 -114 920 c 2
 26 920 l 2
 40 920 51 909 51 895 c 0
 51 893 51 892 51 890 c 2
 24 720 l 2
 21 704 5 690 -11 690 c 2
 -151 690 l 2
 -165 690 -176 701 -176 715 c 0
 -176 717 -176 718 -176 720 c 2
EndSplineSet
Substitution2: "TH Tone Low to High" uni0E48
Colour: ffff00
EndChar

StartChar: uni0E49.low
Encoding: 61001 61001 207
Width: 0
VWidth: 0
Flags: W
HStem: 690 120<-117 42.8947> 810 110<-297.982 -252>
VStem: -345 399<729.6 765.289>
AnchorPoint: "th-vow-above" 35 660 mark 0
LayerCount: 2
Fore
SplineSet
-344 730 m 0xa0
 -341 747 -328 759 -313 770 c 1
 -252 810 l 1
 -282 810 l 2
 -296 810 -307 821 -307 835 c 0
 -307 837 -307 838 -307 840 c 2
 -299 890 l 2
 -296 906 -280 920 -264 920 c 2
 -84 920 l 2x60
 -61 920 -50 903 -50 886 c 0
 -50 884 -51 882 -51 880 c 0
 -54 861 -66 848 -77 840 c 2
 -117 810 l 1
 28 810 l 2
 42 810 54 799 54 785 c 0
 54 783 54 782 54 780 c 2
 44 720 l 2
 41 704 25 690 9 690 c 2
 -311 690 l 2
 -333 690 -345 705 -345 723 c 0
 -345 725 -344 728 -344 730 c 0xa0
EndSplineSet
Substitution2: "TH Tone Low to High" uni0E49
Colour: ffff00
EndChar

StartChar: uni0E4A.low
Encoding: 61002 61002 208
Width: 0
VWidth: 0
Flags: W
HStem: 690 230<-178.065 -25.3269> 690 100<-25 42.75> 810 120<-317 -218.983>
VStem: -439 167<690.059 804.266>
AnchorPoint: "th-vow-above" 35 660 mark 0
LayerCount: 2
Fore
SplineSet
-436 780 m 0x70
 -422 869 -356 930 -278 930 c 0x70
 -231 930 -203 892 -185 851 c 1
 -179 890 l 2
 -176 906 -160 920 -144 920 c 2
 -34 920 l 2x90
 -20 920 -9 909 -9 895 c 0
 -9 893 -9 892 -9 890 c 2
 -25 790 l 1
 25 790 l 2
 39 790 50 779 50 765 c 0
 50 763 50 762 50 760 c 2
 44 720 l 2
 41 704 25 690 9 690 c 2
 -181 690 l 2
 -195 690 -206 701 -206 715 c 0
 -206 717 -206 718 -206 720 c 2
 -199 763 l 1
 -209 789 -224 810 -237 810 c 0
 -257 810 -267 782 -270 760 c 0
 -272 749 -272 740 -272 733 c 0
 -272 728 -272 723 -271 720 c 0
 -270 715 -268 709 -269 705 c 0
 -271 695 -285 690 -296 690 c 2
 -411 690 l 2
 -430 690 -439 709 -439 725 c 0
 -439 729 -439 734 -439 740 c 0
 -439 751 -438 765 -436 780 c 0x70
EndSplineSet
Substitution2: "TH Tone Low to High" uni0E4A
Colour: ffff00
EndChar

StartChar: uni0E4B.low
Encoding: 61003 61003 209
Width: 0
VWidth: 0
Flags: W
HStem: 690 230<-143.065 -1.93497> 755 100<-237.8 -165 20 92.7996>
VStem: -246 347<785 825>
AnchorPoint: "th-vow-above" 35 660 mark 0
LayerCount: 2
Fore
SplineSet
-246 785 m 2x60
 -239 825 l 2
 -236 841 -221 855 -205 855 c 2
 -150 855 l 1x60
 -144 890 l 2
 -141 906 -125 920 -109 920 c 2
 1 920 l 2xa0
 15 920 26 909 26 895 c 0
 26 893 26 892 26 890 c 2
 20 855 l 1
 75 855 l 2
 89 855 101 844 101 830 c 0
 101 828 101 827 101 825 c 2
 94 785 l 2
 91 769 76 755 60 755 c 2
 5 755 l 1x60
 -1 720 l 2
 -4 704 -20 690 -36 690 c 2
 -146 690 l 2xa0
 -160 690 -171 701 -171 715 c 0
 -171 717 -171 718 -171 720 c 2
 -165 755 l 1
 -220 755 l 2
 -234 755 -246 766 -246 780 c 0
 -246 782 -246 783 -246 785 c 2x60
EndSplineSet
Substitution2: "TH Tone Low to High" uni0E4B
Colour: ffff00
EndChar

StartChar: uni0E4C.low
Encoding: 61004 61004 210
Width: 0
VWidth: 0
Flags: W
HStem: 770 140<-73 86.002>
VStem: -252 351<824 870.352>
AnchorPoint: "th-vow-above" 35 660 mark 0
LayerCount: 2
Fore
SplineSet
-250 820 m 0
 -241 878 -187 910 -126 910 c 2
 74 910 l 2
 88 910 99 899 99 885 c 0
 99 883 99 882 99 880 c 2
 87 800 l 2
 84 784 68 770 52 770 c 2
 -73 770 l 1
 -66 740 l 1
 -66 740 -62 729 -63 725 c 0
 -65 715 -79 710 -90 710 c 2
 -213 710 l 2
 -229 710 -238 724 -244 740 c 1
 -244 740 -252 761 -252 793 c 0
 -252 801 -252 810 -250 820 c 0
EndSplineSet
Substitution2: "TH Tone Low to High" uni0E4C
Colour: ffff00
EndChar

StartChar: uni0E48.low.left
Encoding: 986696 986696 211
Width: 0
VWidth: 0
Flags: W
HStem: 690 230<-468.065 -296.935>
VStem: -496 227
LayerCount: 2
Fore
SplineSet
-496 720 m 2
 -469 890 l 2
 -466 906 -450 920 -434 920 c 2
 -294 920 l 2
 -280 920 -269 909 -269 895 c 0
 -269 893 -269 892 -269 890 c 2
 -296 720 l 2
 -299 704 -315 690 -331 690 c 2
 -471 690 l 2
 -485 690 -496 701 -496 715 c 0
 -496 717 -496 718 -496 720 c 2
EndSplineSet
Colour: ffff00
EndChar

StartChar: uni0E49.low.left
Encoding: 986697 986697 212
Width: 0
VWidth: 0
Flags: W
HStem: 690 120<-417 -257.105> 810 110<-597.982 -552>
VStem: -645 399<729.6 765.289>
LayerCount: 2
Fore
SplineSet
-644 730 m 0xa0
 -641 747 -628 759 -613 770 c 1
 -552 810 l 1
 -582 810 l 2
 -596 810 -607 821 -607 835 c 0
 -607 837 -607 838 -607 840 c 2
 -599 890 l 2
 -596 906 -580 920 -564 920 c 2
 -384 920 l 2x60
 -361 920 -350 903 -350 886 c 0
 -350 884 -351 882 -351 880 c 0
 -354 861 -366 848 -377 840 c 2
 -417 810 l 1
 -272 810 l 2
 -258 810 -246 799 -246 785 c 0
 -246 783 -246 782 -246 780 c 2
 -256 720 l 2
 -259 704 -275 690 -291 690 c 2
 -611 690 l 2
 -633 690 -645 705 -645 723 c 0
 -645 725 -644 728 -644 730 c 0xa0
EndSplineSet
Colour: ffff00
EndChar

StartChar: uni0E4A.low.left
Encoding: 986698 986698 213
Width: 0
VWidth: 0
Flags: W
HStem: 690 230<-438.065 -305.327> 690 100<-305 -247.25> 815 115<-567 -473.729>
VStem: -679 147<690.059 811.998>
LayerCount: 2
Fore
SplineSet
-676 780 m 0x70
 -662 869 -606 930 -528 930 c 0x70
 -479 930 -457 887 -446 844 c 1
 -439 890 l 2
 -436 906 -420 920 -404 920 c 2
 -314 920 l 2x90
 -300 920 -289 909 -289 895 c 0
 -289 893 -289 892 -289 890 c 2
 -305 790 l 1
 -265 790 l 2
 -251 790 -240 779 -240 765 c 0
 -240 763 -240 762 -240 760 c 2
 -246 720 l 2
 -249 704 -265 690 -281 690 c 2
 -441 690 l 2
 -455 690 -466 701 -466 715 c 0
 -466 717 -466 718 -466 720 c 2
 -462 746 l 1
 -468 782 -481 815 -496 815 c 0
 -516 815 -525 791 -530 760 c 0
 -532 749 -532 740 -532 733 c 0
 -532 728 -532 723 -531 720 c 0
 -530 715 -528 709 -529 705 c 0
 -531 695 -545 690 -556 690 c 2
 -651 690 l 2
 -670 690 -679 709 -679 725 c 0
 -679 729 -679 734 -679 740 c 0
 -679 751 -678 765 -676 780 c 0x70
EndSplineSet
Colour: ffff00
EndChar

StartChar: uni0E4B.low.left
Encoding: 986699 986699 214
Width: 0
VWidth: 0
Flags: W
HStem: 690 230<-493.065 -351.935> 755 100<-587.8 -515 -330 -257.2>
VStem: -596 347<785 825>
LayerCount: 2
Fore
SplineSet
-596 785 m 2x60
 -589 825 l 2
 -586 841 -571 855 -555 855 c 2
 -500 855 l 1x60
 -494 890 l 2
 -491 906 -475 920 -459 920 c 2
 -349 920 l 2xa0
 -335 920 -324 909 -324 895 c 0
 -324 893 -324 892 -324 890 c 2
 -330 855 l 1
 -275 855 l 2
 -261 855 -249 844 -249 830 c 0
 -249 828 -249 827 -249 825 c 2
 -256 785 l 2
 -259 769 -274 755 -290 755 c 2
 -345 755 l 1x60
 -351 720 l 2
 -354 704 -370 690 -386 690 c 2
 -496 690 l 2xa0
 -510 690 -521 701 -521 715 c 0
 -521 717 -521 718 -521 720 c 2
 -515 755 l 1
 -570 755 l 2
 -584 755 -596 766 -596 780 c 0
 -596 782 -596 783 -596 785 c 2x60
EndSplineSet
Colour: ffff00
EndChar

StartChar: uni0E4C.low.left
Encoding: 986700 986700 215
Width: 0
VWidth: 0
Flags: W
HStem: 770 140<-413 -253.998>
VStem: -592 351<824 870.352>
LayerCount: 2
Fore
SplineSet
-590 820 m 0
 -581 878 -527 910 -466 910 c 2
 -266 910 l 2
 -252 910 -241 899 -241 885 c 0
 -241 883 -241 882 -241 880 c 2
 -253 800 l 2
 -256 784 -272 770 -288 770 c 2
 -413 770 l 1
 -406 740 l 1
 -406 740 -402 729 -403 725 c 0
 -405 715 -419 710 -430 710 c 2
 -553 710 l 2
 -569 710 -578 724 -584 740 c 1
 -584 740 -592 761 -592 793 c 0
 -592 801 -592 810 -590 820 c 0
EndSplineSet
Colour: ffff00
EndChar

StartChar: uni0E4D.low.left
Encoding: 986701 986701 216
Width: 0
VWidth: 0
Flags: W
HStem: 670 90<-445.171 -374.041> 850 90<-441.428 -369.829>
VStem: -584 136<761.802 843.529> -367 136<766.142 848.819>
LayerCount: 2
Fore
SplineSet
-448 805 m 0
 -449 801 -448 798 -448 795 c 0
 -448 772 -434 760 -415 760 c 0
 -393 760 -373 775 -368 805 c 0
 -367 809 -367 812 -367 815 c 0
 -367 838 -381 850 -400 850 c 0
 -422 850 -443 835 -448 805 c 0
-583 805 m 0
 -570 884 -500 940 -386 940 c 0
 -283 940 -231 894 -231 827 c 0
 -231 820 -232 813 -233 805 c 0
 -246 726 -315 670 -429 670 c 0
 -532 670 -584 716 -584 783 c 0
 -584 790 -584 797 -583 805 c 0
EndSplineSet
Colour: ffff00
EndChar

StartChar: uni0E48.high.left
Encoding: 1044040 1044040 217
Width: 0
VWidth: 0
Flags: W
HStem: 960 210<-373.082 -219.345>
VStem: -398 204
LayerCount: 2
Fore
SplineSet
-398 990 m 2
 -374 1140 l 2
 -371 1156 -356 1170 -340 1170 c 2
 -220 1170 l 2
 -206 1170 -194 1159 -194 1145 c 0
 -194 1143 -194 1142 -194 1140 c 2
 -218 990 l 2
 -221 974 -237 960 -253 960 c 2
 -373 960 l 2
 -387 960 -398 971 -398 985 c 0
 -398 987 -398 988 -398 990 c 2
EndSplineSet
Colour: ffff00
EndChar

StartChar: uni0E49.high.left
Encoding: 1044041 1044041 218
Width: 0
VWidth: 0
Flags: W
HStem: 960 110<-306 -154.131> 1080 90<-477.9 -429>
VStem: -512 367<965.255 1039.48>
LayerCount: 2
Fore
SplineSet
-512 1000 m 0
 -509 1017 -500 1029 -485 1040 c 2
 -429 1080 l 1
 -469 1080 l 2
 -480 1080 -488 1089 -486 1100 c 2
 -478 1150 l 2
 -476 1161 -466 1170 -455 1170 c 2
 -275 1170 l 2
 -252 1170 -240 1156 -240 1140 c 0
 -240 1138 -240 1137 -240 1135 c 0
 -242 1121 -249 1113 -260 1105 c 2
 -306 1070 l 1
 -171 1070 l 2
 -157 1070 -145 1059 -145 1045 c 0
 -145 1043 -145 1042 -145 1040 c 2
 -153 990 l 2
 -156 974 -172 960 -188 960 c 2
 -478 960 l 2
 -500 960 -512 975 -512 993 c 0
 -512 995 -512 998 -512 1000 c 0
EndSplineSet
Colour: ffff00
EndChar

StartChar: uni0E4A.high.left
Encoding: 1044042 1044042 219
Width: 0
VWidth: 0
Flags: W
HStem: 960 210<-318.082 -184.454> 960 90<-184 -115.1> 1070 110<-448.5 -355.805>
VStem: -560 157<960.015 1065.79> -343 228<960.008 1049.13>
LayerCount: 2
Fore
SplineSet
-557 1030 m 0x78
 -543 1119 -484 1180 -413 1180 c 0x78
 -370 1180 -344 1146 -325 1108 c 1
 -319 1140 l 2
 -316 1156 -301 1170 -285 1170 c 2
 -195 1170 l 2x98
 -181 1170 -169 1159 -169 1145 c 0
 -169 1143 -169 1142 -169 1140 c 2
 -184 1050 l 1
 -124 1050 l 2
 -113 1050 -105 1041 -107 1030 c 2
 -115 980 l 2
 -117 969 -127 960 -138 960 c 2x58
 -318 960 l 2x98
 -332 960 -343 971 -343 985 c 0
 -343 987 -343 988 -343 990 c 2
 -337 1026 l 1
 -347 1051 -358 1070 -371 1070 c 0
 -391 1070 -400 1036 -403 1020 c 0
 -405 1010 -406 998 -404 990 c 0
 -403 985 -402 979 -403 975 c 0
 -405 965 -418 960 -429 960 c 2
 -533 960 l 2
 -549 960 -560 974 -560 991 c 0
 -560 1003 -559 1017 -557 1030 c 0x78
EndSplineSet
Colour: ffff00
EndChar

StartChar: uni0E4B.high.left
Encoding: 1044043 1044043 220
Width: 0
VWidth: 0
Flags: W
HStem: 960 210<-363.082 -229.345> 1020 90<-451.9 -383 -209 -140.1>
VStem: -460 328
LayerCount: 2
Fore
SplineSet
-460 1040 m 2x60
 -452 1090 l 2
 -450 1101 -440 1110 -429 1110 c 2
 -369 1110 l 1x60
 -364 1140 l 2
 -361 1156 -346 1170 -330 1170 c 2
 -230 1170 l 2xa0
 -216 1170 -204 1159 -204 1145 c 0
 -204 1143 -204 1142 -204 1140 c 2
 -209 1110 l 1
 -149 1110 l 2
 -138 1110 -130 1101 -132 1090 c 2
 -140 1040 l 2
 -142 1029 -152 1020 -163 1020 c 2
 -223 1020 l 1x60
 -228 990 l 2
 -231 974 -247 960 -263 960 c 2
 -363 960 l 2xa0
 -377 960 -388 971 -388 985 c 0
 -388 987 -388 988 -388 990 c 2
 -383 1020 l 1
 -443 1020 l 2
 -454 1020 -462 1029 -460 1040 c 2x60
EndSplineSet
Colour: ffff00
EndChar

StartChar: uni0E4C.high.left
Encoding: 1044044 1044044 221
Width: 0
VWidth: 0
Flags: W
HStem: 990 120<-258 -118.959>
VStem: -418 309<1024 1082.32>
LayerCount: 2
Fore
SplineSet
-417 1030 m 0
 -408 1088 -365 1110 -304 1110 c 2
 -134 1110 l 2
 -120 1110 -109 1099 -109 1085 c 0
 -109 1083 -109 1082 -109 1080 c 2
 -118 1020 l 2
 -121 1004 -137 990 -153 990 c 2
 -258 990 l 1
 -248 960 l 1
 -248 960 -242 949 -243 945 c 0
 -245 935 -259 930 -270 930 c 2
 -374 930 l 2
 -390 930 -400 944 -406 960 c 0
 -409 969 -418 985 -418 1011 c 0
 -418 1017 -418 1023 -417 1030 c 0
EndSplineSet
Colour: ffff00
EndChar

StartChar: uni0E4D.high.left
Encoding: 1044045 1044045 222
Width: 0
VWidth: 300
Flags: W
HStem: 920 75<-350.689 -286.56> 1075 75<-345.44 -281.311>
VStem: -467 115<995.25 1070.76> -280 115<999.244 1074.75>
LayerCount: 2
Fore
SplineSet
-351 1035 m 0
 -352 1032 -352 1029 -352 1026 c 0
 -352 1007 -341 995 -322 995 c 0
 -300 995 -285 1011 -281 1035 c 0
 -280 1038 -280 1041 -280 1044 c 0
 -280 1063 -291 1075 -310 1075 c 0
 -332 1075 -347 1059 -351 1035 c 0
-466 1035 m 0
 -456 1100 -393 1150 -298 1150 c 0
 -212 1150 -165 1108 -165 1052 c 0
 -165 1046 -165 1041 -166 1035 c 0
 -176 970 -239 920 -334 920 c 0
 -420 920 -467 962 -467 1018 c 0
 -467 1024 -467 1029 -466 1035 c 0
EndSplineSet
Colour: ffff00
EndChar

StartChar: a.alt
Encoding: 983137 983137 223
Width: 790
VWidth: 0
Flags: W
HStem: -10 190<239.5 448> 0 21G<520 711> 420 190<405.897 514.574> 580 20G<614 805>
VStem: 73 282<200.075 364.123>
LayerCount: 2
Fore
SplineSet
358 300 m 0xa8
 356 289 355 279 355 269 c 0
 355 210 388 180 429 180 c 0
 467 180 490 198 506 228 c 1
 529 372 l 1
 523 402 505 420 467 420 c 0
 419 420 371 380 358 300 c 0xa8
78 300 m 0
 105 471 239 610 417 610 c 0xa8
 498 610 545 571 572 518 c 1
 579 560 l 2
 582 582 603 600 625 600 c 2
 795 600 l 2
 815 600 829 585 829 566 c 0
 829 564 829 562 829 560 c 2
 746 40 l 2
 743 18 722 0 700 0 c 2
 530 0 l 2x58
 510 0 496 15 496 34 c 0
 496 36 496 38 496 40 c 2
 503 82 l 1
 460 29 399 -10 318 -10 c 0
 161 -10 73 98 73 241 c 0
 73 260 75 280 78 300 c 0
EndSplineSet
Colour: ffff00
EndChar

StartChar: g.alt
Encoding: 983143 983143 224
Width: 790
VWidth: 0
Flags: W
HStem: -260 180<204.378 444.855> -10 190<239.5 448> 420 190<405.897 514.574> 580 20G<614 805>
VStem: 73 282<200.075 364.123>
LayerCount: 2
Fore
SplineSet
358 300 m 0xe8
 356 289 355 279 355 269 c 0
 355 210 388 180 429 180 c 0
 467 180 490 198 506 228 c 1
 529 372 l 1
 523 402 505 420 467 420 c 0
 419 420 371 380 358 300 c 0xe8
78 300 m 0
 105 471 239 610 417 610 c 0xe8
 498 610 545 571 572 518 c 1
 579 560 l 2
 582 582 603 600 625 600 c 2
 795 600 l 2xd8
 815 600 829 585 829 566 c 0
 829 564 829 562 829 560 c 2
 743 20 l 2
 715 -156 601 -260 369 -260 c 0
 237 -260 180 -234 169 -230 c 0
 158 -226 142 -218 142 -207 c 0
 142 -200 151 -185 151 -185 c 2
 199 -75 l 2
 205 -63 211 -55 222 -55 c 0
 231 -55 247 -65 269 -70 c 0
 296 -76 331 -80 357 -80 c 0
 415 -80 471 -59 480 0 c 2
 491 68 l 1
 449 23 392 -10 318 -10 c 0
 161 -10 73 98 73 241 c 0
 73 260 75 280 78 300 c 0
EndSplineSet
Colour: ffff00
EndChar

StartChar: uni25CC
Encoding: 9676 9676 228
Width: 720
VWidth: 0
Flags: W
HStem: -20 70<329.583 394.466> 2 70<224.534 289.417 442.534 507.417> 63 70<141.534 206.417 545.534 610.417> 156 70<94.583 159.466 620.583 685.466> 265 70<90.5339 155.417 660.534 725.417> 374 70<129.534 194.417 655.534 720.417> 467 70<205.534 270.417 609.534 674.417> 528 70<307.583 372.466 525.583 590.466> 550 70<420.534 485.417>
VStem: 92 70<158.885 222.798 270.144 333.466> 127 70<404.093 441.115> 139 70<93.093 130.115> 203 70<497.093 534.115> 222 70<32.093 69.1153> 305 70<530.885 567.907> 327 70<-17.1153 19.907> 418 70<580.093 617.115> 440 70<32.093 69.1153> 523 70<530.885 567.907> 543 70<93.093 130.115> 607 70<497.093 534.115> 618 70<158.885 195.907> 658 70<295.093 332.115 404.093 442.648>
LayerCount: 2
Fore
SplineSet
658 300 m 0x1c0002
 661 319 679 335 698 335 c 0
 715 335 728 322 728 305 c 0
 728 303 728 302 728 300 c 0
 725 281 706 265 687 265 c 0
 670 265 657 278 657 295 c 0
 657 297 658 298 658 300 c 0x1c0002
653 409 m 0
 656 428 674 444 693 444 c 0
 710 444 723 431 723 414 c 0
 723 412 723 411 723 409 c 0
 720 390 701 374 682 374 c 0
 665 374 652 387 652 404 c 0
 652 406 653 407 653 409 c 0
618 191 m 0x1c0004
 621 210 640 226 659 226 c 0
 676 226 689 213 689 196 c 0
 689 194 688 193 688 191 c 0
 685 172 667 156 648 156 c 0
 631 156 618 169 618 186 c 0
 618 188 618 189 618 191 c 0x1c0004
607 502 m 0x1e0008
 610 521 628 537 647 537 c 0
 664 537 677 524 677 507 c 0
 677 505 677 504 677 502 c 0
 674 483 655 467 636 467 c 0
 619 467 606 480 606 497 c 0
 606 499 607 500 607 502 c 0x1e0008
543 98 m 0x3c0010
 546 117 564 133 583 133 c 0
 600 133 613 120 613 103 c 0
 613 101 613 100 613 98 c 0
 610 79 591 63 572 63 c 0
 555 63 542 76 542 93 c 0
 542 95 543 96 543 98 c 0x3c0010
523 563 m 0x1d0020
 526 582 545 598 564 598 c 0
 581 598 594 585 594 568 c 0
 594 566 593 565 593 563 c 0
 590 544 572 528 553 528 c 0
 536 528 523 541 523 558 c 0
 523 560 523 561 523 563 c 0x1d0020
440 37 m 0x5c0040
 443 56 461 72 480 72 c 0
 497 72 510 59 510 42 c 0
 510 40 510 39 510 37 c 0
 507 18 488 2 469 2 c 0
 452 2 439 15 439 32 c 0
 439 34 440 35 440 37 c 0x5c0040
418 585 m 0x1c8080
 421 604 439 620 458 620 c 0
 475 620 488 607 488 590 c 0
 488 588 488 587 488 585 c 0
 485 566 466 550 447 550 c 0
 430 550 417 563 417 580 c 0
 417 582 418 583 418 585 c 0x1c8080
327 15 m 0x9c01
 330 34 349 50 368 50 c 0
 385 50 398 37 398 20 c 0
 398 18 397 17 397 15 c 0
 394 -4 376 -20 357 -20 c 0
 340 -20 327 -7 327 10 c 0
 327 12 327 13 327 15 c 0x9c01
305 563 m 0x1d02
 308 582 327 598 346 598 c 0
 363 598 376 585 376 568 c 0
 376 566 375 565 375 563 c 0
 372 544 354 528 335 528 c 0
 318 528 305 541 305 558 c 0
 305 560 305 561 305 563 c 0x1d02
222 37 m 0x5c04
 225 56 243 72 262 72 c 0
 279 72 292 59 292 42 c 0
 292 40 292 39 292 37 c 0
 289 18 270 2 251 2 c 0
 234 2 221 15 221 32 c 0
 221 34 222 35 222 37 c 0x5c04
203 502 m 0x1e08
 206 521 224 537 243 537 c 0
 260 537 273 524 273 507 c 0
 273 505 273 504 273 502 c 0
 270 483 251 467 232 467 c 0
 215 467 202 480 202 497 c 0
 202 499 203 500 203 502 c 0x1e08
139 98 m 0x3c10
 142 117 160 133 179 133 c 0
 196 133 209 120 209 103 c 0
 209 101 209 100 209 98 c 0
 206 79 187 63 168 63 c 0
 151 63 138 76 138 93 c 0
 138 95 139 96 139 98 c 0x3c10
127 409 m 0x1c20
 130 428 148 444 167 444 c 0
 184 444 197 431 197 414 c 0
 197 412 197 411 197 409 c 0
 194 390 175 374 156 374 c 0
 139 374 126 387 126 404 c 0
 126 406 127 407 127 409 c 0x1c20
92 191 m 0x1c40
 95 210 114 226 133 226 c 0
 150 226 163 213 163 196 c 0
 163 194 162 193 162 191 c 0
 159 172 141 156 122 156 c 0
 105 156 92 169 92 186 c 0
 92 188 92 189 92 191 c 0x1c40
88 300 m 0
 91 319 109 335 128 335 c 0
 145 335 158 322 158 305 c 0
 158 303 158 302 158 300 c 0
 155 281 136 265 117 265 c 0
 100 265 87 278 87 295 c 0
 87 297 88 298 88 300 c 0
EndSplineSet
Colour: ffff00
EndChar

StartChar: uni0E0A.swap
Encoding: 60938 60938 229
Width: 770
VWidth: -360
Flags: W
HStem: -20 180<358.9 459.844> 490 168<688.567 810.912> 580 20G<167 392.5>
VStem: 81 273<165.021 292.931> 502 261<224.922 414.48>
AnchorPoint: "th-vow-above" 755 660 basechar 0
LayerCount: 2
Fore
SplineSet
85 220 m 0xd8
 104 338 197 420 197 420 c 1
 147 420 l 2
 133 420 121 431 121 445 c 0
 121 447 121 448 121 450 c 2
 140 570 l 2
 143 586 159 599 175 600 c 1
 355 600 l 2xb8
 430 600 459 566 459 511 c 0
 459 501 458 491 456 480 c 0
 443 397 370 317 355 220 c 0
 354 215 354 210 354 206 c 0
 354 174 375 160 405 160 c 0
 439 160 468 177 475 220 c 2
 499 370 l 2
 501 383 502 394 502 402 c 0
 502 419 497 427 488 430 c 0
 478 433 469 439 471 450 c 2
 481 510 l 2
 483 521 496 528 505 535 c 0
 546 565 694 658 804 658 c 0
 818 658 829 647 829 633 c 0
 829 631 829 630 829 628 c 2
 812 520 l 2
 809 504 794 490 778 490 c 0
 721 490 680 480 649 467 c 1
 714 454 763 402 763 345 c 0
 763 340 763 335 762 330 c 2
 745 220 l 2
 719 54 578 -20 377 -20 c 0
 194 -20 81 46 81 178 c 0
 81 191 83 205 85 220 c 0xd8
EndSplineSet
Colour: ffff00
EndChar

StartChar: uni0E0B.swap
Encoding: 60939 60939 230
Width: 780
VWidth: -360
Flags: W
HStem: -20 180<368.722 469.844> 450 160<230 406> 490 168<698.567 820.912>
VStem: 91 273<166.874 276.627> 512 261<224.922 414.48>
AnchorPoint: "th-vow-above" 775 660 basechar 0
LayerCount: 2
Fore
SplineSet
93 460 m 2xd8
 113 590 l 2
 114 598 121 607 129 607 c 0
 134 607 137 606 145 600 c 2
 217 550 l 1
 240 570 293 610 367 610 c 0
 445 610 488 564 488 502 c 0
 488 495 487 488 486 480 c 0
 473 397 380 317 365 220 c 0
 364 215 364 210 364 206 c 0
 364 173 385 160 415 160 c 0
 449 160 478 177 485 220 c 2
 509 370 l 2
 511 383 512 394 512 402 c 0
 512 419 507 427 498 430 c 0
 488 433 484 439 486 450 c 2xd8
 496 510 l 2
 498 521 506 528 515 535 c 0
 556 565 704 658 814 658 c 0
 828 658 839 647 839 633 c 0
 839 631 839 630 839 628 c 2
 822 520 l 2
 819 504 804 490 788 490 c 0xb8
 731 490 690 480 659 467 c 1
 724 454 773 402 773 345 c 0
 773 340 773 335 772 330 c 2
 755 220 l 2
 729 54 588 -20 387 -20 c 0
 205 -20 91 41 91 176 c 0
 91 190 93 204 95 220 c 0
 113 333 248 369 257 425 c 0
 259 438 256 450 241 450 c 0
 219 450 199 430 186 415 c 0
 181 409 175 400 163 400 c 0
 157 400 145 410 145 410 c 1
 104 435 l 2
 97 440 91 448 93 460 c 2xd8
EndSplineSet
Colour: ffff00
EndChar

StartChar: uni0E28.swap
Encoding: 60968 60968 231
Width: 800
VWidth: 0
Flags: W
HStem: 0 21G<70 281 500 711> 165 175<379.207 447.947> 430 190<390.843 518.861> 510 168<758.614 864.598>
AnchorPoint: "th-vow-above" 765 660 basechar 0
LayerCount: 2
Fore
SplineSet
46 40 m 2xe0
 99 370 l 2
 125 536 274 620 488 620 c 0xe0
 545 620 589 609 622 596 c 1
 687 634 781 678 857 678 c 0
 871 678 883 667 883 653 c 0
 883 651 883 650 883 648 c 2
 866 540 l 2
 863 524 847 510 831 510 c 0xd0
 803 510 778 508 757 503 c 1
 781 479 801 440 801 395 c 0
 801 387 800 378 799 370 c 2
 746 40 l 2
 743 18 722 0 700 0 c 2
 510 0 l 2
 490 0 476 15 476 34 c 0
 476 36 476 38 476 40 c 2
 527 360 l 2
 528 365 528 369 528 373 c 0
 528 412 498 430 458 430 c 0
 414 430 375 408 367 360 c 2
 356 290 l 1
 378 317 405 340 434 340 c 0
 445 340 452 338 458 335 c 0
 467 330 470 319 469 310 c 2
 448 175 l 2
 447 167 438 162 431 163 c 0
 425 164 419 165 406 165 c 0
 375 165 346 146 330 125 c 1
 316 40 l 2
 313 18 292 0 270 0 c 2
 80 0 l 2
 60 0 46 15 46 34 c 0
 46 36 46 38 46 40 c 2xe0
EndSplineSet
Colour: ffff00
EndChar

StartChar: uni0E2A.swap
Encoding: 60970 60970 232
Width: 760
VWidth: 0
Flags: W
HStem: -10 140<183 388.3> 0 21G<460 671> 230 140<236 433.717> 440 180<250.861 473.145> 510 168<715.033 824.598>
VStem: 56 272<132.891 219.023>
AnchorPoint: "th-vow-above" 725 660 basechar 0
LayerCount: 2
Fore
SplineSet
59 180 m 0xa4
 76 288 163 370 309 370 c 0
 406 370 456 335 479 311 c 1
 487 360 l 2
 488 365 488 370 488 375 c 0
 488 425 441 440 370 440 c 0xb4
 321 440 259 427 226 415 c 0
 212 410 187 400 174 400 c 0
 159 400 157 418 154 430 c 2
 136 510 l 1x2c
 136 510 133 522 135 535 c 0
 137 550 143 558 159 565 c 0
 172 570 292 620 468 620 c 0x34
 518 620 558 611 588 599 c 1
 653 636 743 678 817 678 c 0
 831 678 843 667 843 653 c 0
 843 651 843 650 843 648 c 2
 826 540 l 2
 823 524 807 510 791 510 c 0
 761 510 736 507 714 503 c 1
 733 483 761 447 761 395 c 0
 761 387 760 379 759 370 c 2
 706 40 l 2
 703 18 682 0 660 0 c 2
 470 0 l 2x6c
 450 0 436 15 436 34 c 0
 436 36 436 38 436 40 c 2
 463 208 l 1
 447 222 428 230 396 230 c 0
 364 230 335 215 329 180 c 0
 328 176 328 172 328 169 c 0
 328 139 351 130 371 130 c 0
 387 130 395 135 401 135 c 0
 407 135 411 132 409 120 c 2
 396 40 l 2
 394 25 378 16 362 10 c 0
 331 -1 292 -10 248 -10 c 0
 118 -10 56 55 56 146 c 0
 56 157 57 168 59 180 c 0xa4
EndSplineSet
Colour: ffff00
EndChar

StartChar: uni0E2C.swap
Encoding: 60972 60972 233
Width: 1040
VWidth: -360
Flags: W
HStem: 0 21G<200 438.5 611.5 850> 510 168<944.675 1104.6> 580 20G<139.5 369.5 560.5 679.5>
VStem: 107 284<373.125 598.622> 797 243<400.021 477.473>
AnchorPoint: "th-vow-below" 840 0 basechar 0
AnchorPoint: "th-vow-above" 945 660 basechar 0
LayerCount: 2
Fore
SplineSet
155 600 m 2xb8
 355 600 l 2
 384 600 393 587 394 560 c 2
 393 270 l 1
 391 230 l 1
 401 230 l 1
 413 270 l 1
 529 560 l 2
 538 584 546 600 575 600 c 2
 620 600 l 1
 665 600 l 2
 694 600 698 584 699 560 c 2
 723 270 l 1
 721 230 l 1
 731 230 l 1
 743 270 l 1
 784 400 l 1
 784 400 792 429 795 445 c 0
 796 450 797 454 797 458 c 0
 797 474 792 485 786 490 c 1
 786 490 778 494 780 505 c 2
 792 580 l 2xb8
 794 592 806 605 817 610 c 0
 838 619 1001 678 1097 678 c 0
 1111 678 1123 667 1123 653 c 0
 1123 651 1123 650 1123 648 c 2
 1106 540 l 2
 1103 524 1087 510 1071 510 c 2
 931 510 l 1xd8
 930 505 l 1
 990 505 1040 476 1040 418 c 0
 1040 412 1039 406 1038 400 c 0
 1033 367 1003 300 1003 300 c 1
 886 40 l 2
 877 19 865 0 835 0 c 2
 625 0 l 2
 598 0 590 16 586 40 c 1
 565 250 l 1
 476 40 l 1
 464 16 452 0 425 0 c 2
 215 0 l 2
 185 0 179 19 176 40 c 2
 109 560 l 2
 108 564 107 571 107 576 c 0
 107 595 124 600 155 600 c 2xb8
EndSplineSet
Colour: ffff00
EndChar

StartChar: uni0E2E.swap
Encoding: 60974 60974 234
Width: 750
VWidth: 0
Flags: W
HStem: -20 180<321.043 434.274> 230 110<310 359.982> 440 180<245.97 485> 510 168<703.391 814.598>
VStem: 480 273<226.164 406.42>
AnchorPoint: "th-vow-above" 715 660 basechar 0
LayerCount: 2
Fore
SplineSet
71 260 m 0xd8
 78 305 106 340 144 340 c 2
 344 340 l 2
 358 340 369 329 369 315 c 0
 369 313 369 312 369 310 c 2
 361 260 l 2
 358 244 342 230 326 230 c 2
 311 230 l 1
 310 225 310 220 310 216 c 0
 310 178 339 160 375 160 c 0
 433 160 464 210 478 300 c 0
 480 312 480 323 480 333 c 0
 480 409 429 440 350 440 c 0xe8
 290 440 250 427 227 420 c 0
 213 416 188 405 175 405 c 0
 160 405 158 423 155 435 c 2
 136 510 l 1xd8
 136 510 133 522 135 535 c 0
 137 550 143 558 159 565 c 0
 172 570 282 620 458 620 c 0xe8
 512 620 550 610 577 599 c 1
 641 635 733 678 807 678 c 0
 821 678 833 667 833 653 c 0
 833 651 833 650 833 648 c 2
 816 540 l 2
 813 524 797 510 781 510 c 0
 750 510 725 507 702 502 c 1
 727 479 753 437 753 362 c 0
 753 343 752 323 748 300 c 0
 720 123 561 -20 347 -20 c 0
 183 -20 67 52 67 205 c 0
 67 222 68 241 71 260 c 0xd8
EndSplineSet
Colour: ffff00
EndChar
